<?xml version="1.0" encoding="UTF-8"?>
<!DOCTYPE svg PUBLIC "-//W3C//DTD SVG 1.1//EN" "http://www.w3.org/Graphics/SVG/1.1/DTD/svg11.dtd">
<!-- Creator: CorelDRAW X8 -->
<svg xmlns="http://www.w3.org/2000/svg" xml:space="preserve" width="99.0595mm" height="28.3435mm" version="1.1" style="shape-rendering:geometricPrecision; text-rendering:geometricPrecision; image-rendering:optimizeQuality; fill-rule:evenodd; clip-rule:evenodd"
viewBox="0 0 5868 1679"
 xmlns:xlink="http://www.w3.org/1999/xlink">
 <defs>
  <style type="text/css">
   <![CDATA[
    .fil0 {fill:#0055FF;fill-rule:nonzero}
   ]]>
  </style>
 </defs>
 <g id="Warstwa_x0020_1">
  <metadata id="CorelCorpID_0Corel-Layer"/>
  <path class="fil0" d="M3846 0l0 1679 -478 0 0 -1201 -312 1201 -327 0 -232 0 0 -305c92,-3 166,-78 166,-171 0,-93 -74,-168 -166,-171l0 -391c68,-34 115,-104 115,-185 0,-113 -92,-205 -206,-205 -113,0 -205,92 -205,205 0,81 46,151 114,185l0 1038 -294 0 0 -1679 672 0 243 892 233 -892 677 0z"/>
  <path class="fil0" d="M1204 1034l568 27c-27,199 -119,352 -275,458 -157,107 -349,160 -578,160 -275,0 -497,-73 -665,-220 -169,-146 -254,-348 -254,-606 0,-255 80,-461 240,-618 160,-157 384,-235 670,-235 268,0 474,59 618,178 144,119 225,277 244,474l-581 25c0,-109 -25,-187 -77,-235 -52,-49 -113,-73 -183,-73 -195,0 -293,158 -293,476 0,177 26,298 76,362 51,64 123,96 214,96 164,0 256,-90 276,-269z"/>
  <path class="fil0" d="M5300 1034l568 27c-27,199 -119,352 -275,458 -157,107 -349,160 -577,160 -276,0 -497,-73 -666,-220 -169,-146 -254,-348 -254,-606 0,-255 80,-461 240,-618 160,-157 384,-235 670,-235 268,0 475,59 618,178 144,119 225,277 244,474l-580 25c0,-109 -26,-187 -78,-235 -52,-49 -113,-73 -183,-73 -195,0 -293,158 -293,476 0,177 26,298 76,362 52,64 123,96 215,96 163,0 255,-90 275,-269z"/>
 </g>
</svg>
