<?xml version="1.0" encoding="UTF-8"?>
<!DOCTYPE svg PUBLIC "-//W3C//DTD SVG 1.1//EN" "http://www.w3.org/Graphics/SVG/1.1/DTD/svg11.dtd">
<!-- Creator: CorelDRAW X8 -->
<svg xmlns="http://www.w3.org/2000/svg" xml:space="preserve" width="234.557mm" height="28.3717mm" version="1.1" style="shape-rendering:geometricPrecision; text-rendering:geometricPrecision; image-rendering:optimizeQuality; fill-rule:evenodd; clip-rule:evenodd"
viewBox="0 0 34092 4124"
 xmlns:xlink="http://www.w3.org/1999/xlink">
 <defs>
  <style type="text/css">
   <![CDATA[
    .fil0 {fill:#0055FF;fill-rule:nonzero}
    .fil1 {fill:gray;fill-rule:nonzero}
   ]]>
  </style>
 </defs>
 <g id="Warstwa_x0020_1">
  <metadata id="CorelCorpID_0Corel-Layer"/>
  <path class="fil0" d="M9438 0l0 4120 -1174 0 0 -2946 -766 2946 -802 0 -569 0 0 -748c226,-8 407,-193 407,-420 0,-228 -181,-413 -407,-420l0 -959c167,-83 282,-254 282,-453 0,-279 -226,-504 -505,-504 -279,0 -504,225 -504,504 0,199 114,370 281,453l0 2547 -721 0 0 -4120 1648 0 597 2188 570 -2188 1663 0z"/>
  <path class="fil0" d="M2953 2537l1394 67c-65,488 -290,863 -674,1124 -384,261 -857,392 -1417,392 -675,0 -1219,-180 -1633,-539 -415,-359 -623,-856 -623,-1487 0,-627 196,-1133 589,-1517 393,-385 941,-577 1644,-577 658,0 1164,146 1517,438 351,292 551,679 597,1161l-1424 62c0,-267 -63,-459 -190,-578 -127,-119 -277,-177 -449,-177 -478,0 -718,388 -718,1167 0,436 62,732 186,888 126,157 301,235 526,235 402,0 627,-220 675,-659z"/>
  <path class="fil0" d="M13004 2537l1394 67c-66,488 -291,863 -675,1124 -384,261 -856,392 -1417,392 -675,0 -1219,-180 -1633,-539 -415,-359 -622,-856 -622,-1487 0,-627 196,-1133 589,-1517 392,-385 941,-577 1644,-577 657,0 1163,146 1516,438 352,292 552,679 598,1161l-1424 62c0,-267 -64,-459 -190,-578 -127,-119 -278,-177 -449,-177 -479,0 -718,388 -718,1167 0,436 62,732 186,888 126,157 301,235 526,235 401,0 626,-220 675,-659z"/>
 </g>
 <g id="Warstwa_x0020_1_0">
  <metadata id="CorelCorpID_1Corel-Layer"/>
  <path class="fil1" d="M16568 3905c0,17 0,31 -1,43 -1,12 -3,22 -5,30 -2,9 -5,16 -8,22 -3,6 -9,13 -16,20 -7,8 -22,18 -42,30 -22,11 -47,23 -78,34 -30,10 -65,20 -104,27 -39,7 -81,11 -126,11 -89,0 -169,-14 -240,-41 -72,-28 -133,-69 -183,-123 -50,-54 -88,-122 -115,-204 -26,-81 -40,-176 -40,-284 0,-110 15,-208 44,-293 30,-86 71,-157 123,-215 53,-59 116,-102 190,-132 74,-31 155,-46 244,-46 36,0 70,4 104,10 33,5 64,13 92,23 29,10 54,21 77,34 22,13 39,24 47,33 9,9 15,16 19,22 3,6 6,14 8,23 2,10 4,21 5,33 1,13 1,28 1,47 0,20 -1,37 -2,51 -1,14 -4,25 -7,34 -3,8 -7,15 -12,19 -5,4 -10,6 -16,6 -10,0 -23,-6 -38,-18 -15,-11 -35,-24 -59,-39 -25,-14 -54,-27 -88,-39 -33,-11 -73,-17 -120,-17 -51,0 -97,11 -137,31 -41,22 -75,51 -103,90 -29,40 -50,87 -65,142 -15,55 -22,118 -22,187 0,76 8,142 24,198 16,55 38,101 67,137 29,36 64,63 105,80 41,18 87,27 138,27 47,0 87,-5 121,-16 34,-11 63,-24 87,-36 25,-14 45,-26 61,-36 15,-11 27,-16 36,-16 7,0 12,1 16,4 4,2 7,8 10,16 3,8 5,19 6,33 1,15 2,34 2,58z"/>
  <path id="1" class="fil1" d="M17504 4070c0,10 -3,17 -10,22 -7,6 -17,10 -32,12 -14,2 -35,3 -64,3 -30,0 -52,-1 -65,-3 -14,-2 -24,-6 -29,-12 -6,-5 -9,-12 -9,-22l0 -71c-37,40 -79,70 -126,92 -47,22 -99,33 -156,33 -47,0 -91,-6 -131,-19 -39,-12 -74,-30 -103,-55 -29,-24 -51,-54 -67,-90 -16,-37 -24,-79 -24,-126 0,-53 10,-98 30,-136 21,-39 51,-70 91,-96 41,-24 91,-43 151,-55 60,-12 129,-18 209,-18l87 0 0 -54c0,-28 -3,-53 -9,-74 -5,-21 -15,-39 -28,-53 -13,-14 -30,-24 -52,-31 -21,-6 -48,-10 -80,-10 -42,0 -80,5 -113,14 -33,10 -62,20 -87,32 -25,11 -47,21 -64,31 -17,9 -30,14 -41,14 -8,0 -14,-3 -19,-7 -6,-5 -11,-12 -14,-20 -4,-9 -7,-20 -9,-32 -2,-13 -3,-27 -3,-42 0,-21 2,-37 5,-49 3,-12 10,-23 19,-33 9,-9 25,-20 49,-32 23,-11 51,-22 82,-32 32,-10 66,-19 103,-25 37,-6 75,-9 114,-9 71,0 130,7 180,20 50,14 91,35 123,63 32,29 55,65 70,110 15,45 22,98 22,159l0 601zm-248 -383l-96 0c-41,0 -75,3 -104,9 -29,6 -52,15 -70,27 -18,12 -31,26 -40,44 -8,17 -12,36 -12,58 0,38 12,67 35,88 24,22 57,32 99,32 35,0 67,-9 97,-27 30,-18 60,-44 91,-79l0 -152z"/>
  <path id="2" class="fil1" d="M18609 4067c0,7 -2,13 -6,18 -4,5 -11,9 -20,12 -10,4 -23,6 -39,8 -17,2 -37,2 -61,2 -25,0 -45,0 -62,-2 -16,-2 -29,-4 -39,-8 -9,-3 -16,-7 -19,-12 -4,-5 -6,-11 -6,-18l0 -509c0,-44 -4,-78 -10,-103 -6,-24 -15,-46 -27,-63 -12,-18 -28,-32 -47,-41 -19,-10 -41,-15 -66,-15 -32,0 -64,12 -97,35 -33,24 -67,58 -102,102l0 594c0,7 -2,13 -6,18 -4,5 -11,9 -21,12 -9,4 -22,6 -38,8 -16,2 -37,2 -61,2 -25,0 -45,0 -61,-2 -16,-2 -29,-4 -39,-8 -10,-3 -17,-7 -20,-12 -4,-5 -6,-11 -6,-18l0 -894c0,-6 1,-12 5,-17 3,-5 9,-10 17,-13 9,-3 20,-6 34,-7 14,-2 31,-3 52,-3 21,0 39,1 53,3 14,1 25,4 32,7 8,3 13,8 17,13 3,5 5,11 5,17l0 103c49,-53 99,-93 151,-119 51,-27 104,-40 159,-40 61,0 112,10 154,30 42,20 75,47 101,81 26,35 44,75 56,121 11,46 17,102 17,166l0 552z"/>
  <path id="3" class="fil1" d="M19531 3925c0,17 0,32 -1,44 -1,11 -3,21 -4,29 -2,8 -4,15 -7,20 -2,5 -7,11 -15,19 -8,7 -22,17 -41,28 -19,11 -41,21 -66,30 -25,8 -52,15 -81,21 -29,5 -59,8 -90,8 -68,0 -129,-11 -182,-32 -53,-22 -98,-53 -134,-95 -36,-42 -63,-93 -81,-153 -19,-60 -28,-129 -28,-207 0,-89 11,-167 33,-232 23,-65 54,-119 94,-162 40,-43 88,-74 142,-95 55,-21 115,-31 181,-31 26,0 52,2 78,7 26,4 50,11 73,19 22,8 42,17 59,27 18,10 31,19 38,26 7,7 13,13 16,18 2,6 5,12 6,20 2,8 4,18 5,30 1,12 1,26 1,42 0,39 -3,67 -10,82 -7,16 -15,24 -26,24 -11,0 -24,-5 -36,-14 -13,-9 -28,-20 -45,-31 -17,-11 -38,-22 -62,-31 -24,-9 -53,-14 -86,-14 -66,0 -116,25 -151,75 -34,51 -52,125 -52,222 0,48 5,90 13,127 9,37 22,68 39,92 17,25 38,44 64,56 26,12 56,19 90,19 34,0 64,-6 89,-16 25,-10 47,-22 66,-35 18,-12 34,-24 47,-34 13,-11 23,-16 32,-16 6,0 11,2 15,5 4,4 7,10 10,19 2,9 4,20 5,34 1,14 2,33 2,55z"/>
  <path id="4" class="fil1" d="M20539 3595c0,30 -7,53 -20,68 -14,14 -33,22 -57,22l-544 0c0,38 4,72 13,103 9,31 24,57 43,79 20,21 45,38 76,49 31,11 68,17 112,17 44,0 82,-3 116,-10 33,-6 62,-13 86,-21 25,-8 45,-14 61,-21 16,-6 29,-10 39,-10 6,0 11,2 15,4 4,2 8,6 10,13 3,5 5,14 6,25 1,11 1,25 1,41 0,15 0,28 -1,38 -1,10 -2,19 -3,26 -1,8 -3,14 -6,19 -3,5 -6,10 -10,14 -5,5 -17,11 -36,19 -19,9 -44,17 -74,24 -30,8 -64,15 -103,21 -39,6 -80,9 -124,9 -80,0 -149,-10 -209,-30 -59,-20 -109,-51 -150,-91 -40,-41 -69,-93 -89,-154 -20,-63 -30,-135 -30,-219 0,-79 11,-151 31,-215 21,-63 51,-117 91,-162 39,-44 87,-78 143,-101 57,-24 121,-35 191,-35 75,0 139,11 192,33 53,22 97,53 131,91 34,39 59,86 75,139 16,54 24,112 24,175l0 40zm-244 -72c2,-71 -12,-127 -43,-167 -30,-41 -77,-61 -140,-61 -33,0 -61,6 -84,18 -24,12 -44,28 -60,49 -15,20 -27,44 -36,72 -8,28 -13,57 -14,89l377 0z"/>
  <path id="5" class="fil1" d="M21322 3257c0,23 -1,43 -2,59 -2,15 -4,27 -6,36 -3,8 -7,14 -11,18 -4,3 -10,4 -17,4 -5,0 -11,-1 -18,-3 -6,-2 -14,-5 -22,-7 -9,-3 -18,-6 -28,-8 -10,-2 -21,-3 -33,-3 -14,0 -28,2 -42,8 -14,6 -29,14 -44,27 -15,12 -30,28 -47,48 -16,20 -34,44 -52,74l0 557c0,7 -2,13 -7,18 -3,5 -10,9 -20,12 -10,4 -23,6 -38,8 -16,2 -37,2 -62,2 -24,0 -45,0 -61,-2 -15,-2 -28,-4 -38,-8 -10,-3 -17,-7 -21,-12 -4,-5 -6,-11 -6,-18l0 -894c0,-6 2,-12 5,-17 4,-5 10,-10 18,-13 9,-3 20,-6 34,-7 13,-2 31,-3 51,-3 22,0 39,1 53,3 14,1 25,4 33,7 8,3 13,8 17,13 3,5 5,11 5,17l0 112c23,-34 45,-61 66,-83 20,-21 40,-39 59,-51 19,-13 37,-22 56,-27 19,-5 37,-7 56,-7 9,0 18,0 28,1 10,1 21,3 31,5 11,3 21,5 28,8 9,3 14,6 18,10 4,3 6,7 8,11 2,4 3,9 4,16 2,7 3,18 4,32 0,14 1,33 1,57z"/>
  <path id="6" class="fil1" d="M23361 4067c0,7 -2,13 -6,18 -4,5 -10,9 -20,12 -9,4 -22,6 -38,8 -16,2 -37,2 -61,2 -26,0 -47,0 -63,-2 -16,-2 -29,-4 -38,-8 -10,-3 -17,-7 -20,-12 -4,-5 -6,-11 -6,-18l0 -529c0,-31 -3,-58 -8,-83 -6,-24 -15,-46 -26,-63 -12,-18 -27,-32 -44,-41 -18,-10 -39,-15 -63,-15 -31,0 -61,12 -91,35 -31,24 -64,58 -100,102l0 594c0,7 -2,13 -6,18 -4,5 -11,9 -21,12 -9,4 -22,6 -39,8 -16,2 -36,2 -60,2 -25,0 -45,0 -61,-2 -16,-2 -29,-4 -39,-8 -10,-3 -17,-7 -20,-12 -4,-5 -6,-11 -6,-18l0 -529c0,-31 -3,-58 -9,-83 -6,-24 -14,-46 -26,-63 -11,-18 -26,-32 -43,-41 -19,-10 -40,-15 -64,-15 -30,0 -61,12 -92,35 -30,24 -64,58 -99,102l0 594c0,7 -2,13 -6,18 -4,5 -11,9 -20,12 -10,4 -23,6 -39,8 -16,2 -36,2 -61,2 -24,0 -45,0 -61,-2 -16,-2 -29,-4 -38,-8 -10,-3 -17,-7 -21,-12 -4,-5 -6,-11 -6,-18l0 -894c0,-6 2,-12 5,-17 3,-5 9,-10 18,-13 9,-3 20,-6 33,-7 14,-2 31,-3 52,-3 22,0 39,1 53,3 14,1 25,4 33,7 7,3 13,8 16,13 4,5 5,11 5,17l0 103c50,-53 99,-93 148,-119 49,-27 101,-40 154,-40 37,0 70,3 99,11 30,8 56,19 79,33 23,15 43,32 59,51 17,21 31,43 42,67 27,-28 53,-53 79,-73 26,-21 51,-38 76,-51 25,-13 50,-23 76,-29 24,-6 50,-9 76,-9 59,0 109,10 150,30 41,20 74,47 99,81 25,35 43,75 53,121 11,46 16,95 16,146l0 572z"/>
  <path id="7" class="fil1" d="M23861 4067c0,7 -2,13 -6,18 -4,5 -11,9 -21,12 -9,4 -22,6 -38,8 -16,2 -37,2 -61,2 -25,0 -46,0 -62,-2 -15,-2 -28,-4 -38,-8 -10,-3 -17,-7 -20,-12 -4,-5 -7,-11 -7,-18l0 -892c0,-6 3,-12 7,-17 3,-5 10,-10 20,-13 10,-4 23,-7 38,-9 16,-2 37,-3 62,-3 24,0 45,1 61,3 16,2 29,5 38,9 10,3 17,8 21,13 4,5 6,11 6,17l0 892zm20 -1197c0,50 -10,85 -31,105 -21,19 -59,29 -115,29 -57,0 -96,-9 -115,-28 -20,-19 -30,-53 -30,-101 0,-51 10,-86 31,-106 20,-20 59,-30 116,-30 56,0 94,10 114,29 20,19 30,53 30,102z"/>
  <path id="8" class="fil1" d="M25089 4067c0,8 -2,14 -4,19 -3,5 -9,9 -19,12 -11,4 -25,6 -44,7 -20,2 -46,2 -79,2 -28,0 -51,0 -67,-2 -17,-1 -30,-3 -40,-7 -10,-4 -16,-8 -21,-14 -3,-6 -7,-13 -9,-21l-117 -290c-14,-33 -28,-62 -41,-87 -14,-26 -29,-47 -45,-64 -17,-17 -36,-30 -57,-39 -21,-9 -46,-13 -74,-13l-83 0 0 495c0,7 -2,13 -6,18 -5,6 -12,10 -22,13 -10,3 -23,6 -40,8 -16,2 -38,3 -63,3 -26,0 -47,-1 -64,-3 -17,-2 -30,-5 -40,-8 -10,-3 -17,-7 -21,-13 -4,-5 -6,-11 -6,-18l0 -1177c0,-29 7,-51 22,-64 15,-13 34,-19 56,-19l335 0c34,0 63,1 84,2 22,1 42,3 61,5 52,7 98,20 140,38 42,18 77,41 106,70 29,30 52,64 67,103 15,40 23,86 23,137 0,43 -6,83 -16,118 -12,36 -28,68 -49,96 -22,28 -48,52 -79,73 -32,21 -68,37 -108,50 20,9 38,21 55,34 17,13 33,30 48,49 15,19 30,41 43,65 13,24 26,52 39,83l110 256c10,25 16,44 19,56 4,11 6,21 6,27zm-341 -880c0,-43 -9,-79 -29,-108 -19,-29 -51,-50 -95,-62 -14,-4 -29,-6 -46,-8 -17,-2 -40,-3 -71,-3l-118 0 0 367 135 0c37,0 70,-4 98,-14 28,-8 51,-21 70,-38 19,-16 33,-35 42,-58 9,-23 14,-48 14,-76z"/>
  <path id="9" class="fil1" d="M26350 4009c0,15 -3,29 -8,41 -5,12 -13,22 -22,30 -9,8 -19,14 -32,18 -12,4 -25,5 -37,5l-113 0c-23,0 -43,-2 -60,-7 -17,-4 -33,-13 -47,-25 -15,-13 -29,-29 -42,-50 -13,-21 -28,-49 -45,-82l-322 -606c-19,-36 -37,-75 -57,-117 -19,-42 -36,-83 -52,-122l-2 0c3,48 5,96 6,144 2,48 2,97 2,148l0 678c0,7 -1,13 -5,18 -4,6 -10,10 -19,14 -9,3 -21,6 -37,8 -15,2 -35,3 -59,3 -24,0 -43,-1 -58,-3 -16,-2 -28,-5 -36,-8 -9,-4 -15,-8 -18,-14 -4,-5 -6,-11 -6,-18l0 -1165c0,-31 10,-55 28,-70 18,-16 41,-24 68,-24l141 0c25,0 47,2 64,6 18,5 33,12 47,22 13,10 26,24 38,42 12,17 25,39 37,65l252 474c15,29 29,58 44,85 14,28 28,56 41,83 13,28 26,55 39,82 13,27 25,54 37,80l1 0c-2,-47 -4,-95 -5,-146 -1,-51 -1,-99 -1,-146l0 -608c0,-7 2,-13 6,-18 4,-5 11,-10 20,-14 10,-4 22,-7 37,-9 16,-1 36,-2 59,-2 23,0 42,1 58,2 15,2 27,5 35,9 9,4 15,9 18,14 3,5 5,11 5,18l0 1165z"/>
  <path id="10" class="fil1" d="M27694 4003c8,24 13,43 15,57 2,14 -1,25 -8,32 -8,7 -21,11 -39,13 -19,2 -45,2 -77,2 -34,0 -61,0 -80,-1 -19,-1 -33,-3 -44,-6 -10,-3 -16,-7 -21,-13 -4,-5 -7,-12 -9,-21l-86 -260 -488 0 -82 253c-3,10 -6,18 -11,24 -4,6 -11,11 -21,15 -9,4 -23,6 -41,7 -17,2 -41,2 -69,2 -31,0 -55,-1 -72,-3 -18,-2 -30,-7 -36,-14 -7,-8 -10,-19 -8,-33 3,-14 8,-32 16,-56l399 -1150c4,-12 8,-21 14,-28 5,-7 13,-12 25,-16 12,-3 28,-6 49,-7 20,-1 48,-1 82,-1 39,0 71,0 94,1 24,1 42,4 55,7 13,4 22,10 28,17 5,7 10,17 14,30l401 1149zm-595 -952l-1 0 -181 552 364 0 -182 -552z"/>
  <path id="11" class="fil1" d="M29235 3905c0,17 0,31 -1,43 -1,12 -3,22 -5,30 -2,9 -5,16 -8,22 -3,6 -8,13 -16,20 -7,8 -22,18 -42,30 -22,11 -47,23 -78,34 -30,10 -65,20 -104,27 -39,7 -81,11 -126,11 -89,0 -169,-14 -240,-41 -72,-28 -133,-69 -183,-123 -50,-54 -88,-122 -115,-204 -26,-81 -40,-176 -40,-284 0,-110 15,-208 44,-293 30,-86 71,-157 123,-215 53,-59 116,-102 190,-132 74,-31 155,-46 244,-46 36,0 70,4 104,10 33,5 64,13 92,23 29,10 54,21 77,34 23,13 39,24 48,33 8,9 15,16 18,22 3,6 6,14 8,23 2,10 4,21 5,33 1,13 1,28 1,47 0,20 -1,37 -2,51 -1,14 -4,25 -7,34 -3,8 -7,15 -12,19 -5,4 -10,6 -16,6 -10,0 -23,-6 -38,-18 -15,-11 -35,-24 -59,-39 -25,-14 -54,-27 -88,-39 -33,-11 -73,-17 -120,-17 -51,0 -97,11 -137,31 -41,22 -75,51 -103,90 -29,40 -50,87 -65,142 -14,55 -22,118 -22,187 0,76 8,142 24,198 16,55 38,101 67,137 29,36 64,63 105,80 41,18 87,27 138,27 47,0 87,-5 121,-16 34,-11 63,-24 87,-36 25,-14 45,-26 61,-36 15,-11 27,-16 36,-16 7,0 12,1 16,4 4,2 7,8 10,16 3,8 5,19 6,33 1,15 2,34 2,58z"/>
  <path id="12" class="fil1" d="M30235 3595c0,30 -7,53 -21,68 -14,14 -32,22 -57,22l-544 0c0,38 5,72 14,103 9,31 23,57 43,79 19,21 45,38 76,49 31,11 68,17 111,17 44,0 83,-3 116,-10 34,-6 63,-13 87,-21 24,-8 44,-14 60,-21 17,-6 29,-10 39,-10 7,0 12,2 15,4 5,2 8,6 11,13 2,5 4,14 5,25 1,11 2,25 2,41 0,15 -1,28 -1,38 -1,10 -2,19 -4,26 -1,8 -3,14 -5,19 -3,5 -7,10 -11,14 -4,5 -16,11 -36,19 -19,9 -44,17 -74,24 -30,8 -64,15 -103,21 -38,6 -80,9 -124,9 -79,0 -149,-10 -209,-30 -59,-20 -109,-51 -149,-91 -40,-41 -70,-93 -90,-154 -19,-63 -29,-135 -29,-219 0,-79 10,-151 31,-215 20,-63 50,-117 90,-162 39,-44 87,-78 144,-101 56,-24 120,-35 191,-35 75,0 139,11 192,33 53,22 96,53 130,91 34,39 60,86 76,139 16,54 24,112 24,175l0 40zm-244 -72c2,-71 -13,-127 -43,-167 -31,-41 -77,-61 -141,-61 -32,0 -60,6 -84,18 -24,12 -44,28 -59,49 -16,20 -28,44 -36,72 -9,28 -13,57 -15,89l378 0z"/>
  <path id="13" class="fil1" d="M31296 4067c0,7 -2,13 -6,18 -4,5 -11,9 -20,12 -10,4 -23,6 -39,8 -16,2 -37,2 -60,2 -25,0 -46,0 -62,-2 -17,-2 -30,-4 -39,-8 -10,-3 -16,-7 -20,-12 -4,-5 -6,-11 -6,-18l0 -509c0,-44 -3,-78 -10,-103 -6,-24 -15,-46 -27,-63 -12,-18 -28,-32 -47,-41 -19,-10 -41,-15 -66,-15 -32,0 -64,12 -97,35 -33,24 -67,58 -102,102l0 594c0,7 -2,13 -6,18 -4,5 -11,9 -21,12 -9,4 -22,6 -38,8 -16,2 -36,2 -61,2 -25,0 -45,0 -61,-2 -16,-2 -29,-4 -39,-8 -9,-3 -16,-7 -20,-12 -4,-5 -6,-11 -6,-18l0 -894c0,-6 1,-12 5,-17 3,-5 9,-10 18,-13 9,-3 20,-6 33,-7 14,-2 31,-3 52,-3 21,0 39,1 53,3 14,1 25,4 33,7 7,3 13,8 16,13 3,5 5,11 5,17l0 103c49,-53 100,-93 151,-119 51,-27 104,-40 160,-40 60,0 112,10 153,30 42,20 76,47 102,81 25,35 44,75 55,121 11,46 17,102 17,166l0 552z"/>
  <path id="14" class="fil1" d="M32173 3814c0,51 -9,96 -29,135 -18,38 -45,70 -80,97 -35,26 -76,45 -124,58 -47,13 -98,20 -154,20 -33,0 -65,-3 -96,-8 -30,-5 -57,-11 -82,-19 -23,-8 -44,-16 -60,-24 -16,-8 -27,-16 -35,-23 -7,-7 -13,-18 -17,-33 -4,-15 -6,-37 -6,-66 0,-19 1,-35 2,-46 2,-12 4,-22 6,-28 3,-7 6,-12 10,-14 4,-3 9,-4 15,-4 7,0 18,4 33,13 14,8 32,18 53,28 22,10 47,19 75,28 28,9 61,13 97,13 22,0 43,-2 60,-7 18,-4 33,-11 46,-20 13,-9 23,-20 30,-33 7,-14 10,-29 10,-46 0,-21 -6,-38 -18,-52 -13,-14 -29,-27 -50,-38 -20,-10 -43,-20 -69,-30 -26,-9 -52,-19 -79,-31 -27,-11 -54,-24 -80,-39 -25,-15 -49,-32 -69,-54 -20,-21 -37,-47 -49,-77 -13,-30 -19,-66 -19,-108 0,-43 9,-82 26,-118 16,-35 40,-66 72,-91 31,-26 70,-45 115,-59 45,-14 96,-21 152,-21 29,0 56,2 82,6 27,4 51,9 72,15 22,6 40,12 55,19 14,7 25,13 31,18 7,5 11,10 14,15 2,5 4,11 6,18 1,7 3,16 4,26 1,10 1,23 1,39 0,18 0,32 -1,44 -1,11 -3,20 -6,27 -2,7 -5,11 -9,13 -4,3 -9,4 -14,4 -6,0 -16,-4 -29,-11 -12,-7 -28,-14 -47,-22 -20,-8 -42,-15 -67,-22 -25,-7 -54,-11 -86,-11 -23,0 -43,3 -59,7 -17,5 -31,12 -42,20 -10,9 -18,19 -24,31 -5,11 -8,24 -8,37 0,21 7,38 19,52 13,14 30,26 51,37 20,11 44,21 70,30 27,9 54,20 81,31 27,11 54,23 80,38 26,15 50,33 71,54 21,22 37,47 50,77 13,30 19,65 19,105z"/>
  <path id="15" class="fil1" d="M33209 4067c0,7 -2,13 -5,18 -3,5 -9,9 -18,12 -8,4 -19,6 -33,8 -13,2 -31,2 -51,2 -22,0 -40,0 -54,-2 -13,-2 -24,-4 -32,-8 -8,-3 -14,-7 -17,-12 -4,-5 -5,-11 -5,-18l0 -103c-50,53 -100,93 -151,120 -51,26 -104,40 -159,40 -62,0 -114,-10 -155,-30 -42,-20 -76,-48 -102,-82 -25,-35 -44,-75 -55,-121 -11,-46 -16,-103 -16,-171l0 -547c0,-6 1,-12 5,-17 4,-5 11,-10 20,-13 10,-3 23,-6 40,-7 16,-2 36,-3 60,-3 25,0 46,1 62,3 16,1 29,4 38,7 10,3 17,8 21,13 4,5 6,11 6,17l0 505c0,47 3,82 9,107 6,25 15,46 28,64 12,17 28,31 47,41 19,10 41,14 66,14 33,0 65,-11 97,-35 32,-23 67,-57 104,-101l0 -595c0,-6 1,-12 5,-17 4,-5 10,-10 20,-13 10,-3 23,-6 39,-7 16,-2 36,-3 61,-3 24,0 45,1 61,3 16,1 29,4 38,7 9,3 16,8 20,13 4,5 6,11 6,17l0 894z"/>
  <path id="16" class="fil1" d="M34092 3814c0,51 -9,96 -28,135 -19,38 -46,70 -81,97 -35,26 -76,45 -124,58 -47,13 -98,20 -154,20 -33,0 -65,-3 -96,-8 -30,-5 -57,-11 -81,-19 -24,-8 -45,-16 -61,-24 -16,-8 -27,-16 -35,-23 -7,-7 -13,-18 -17,-33 -4,-15 -6,-37 -6,-66 0,-19 1,-35 2,-46 2,-12 4,-22 6,-28 3,-7 6,-12 10,-14 4,-3 9,-4 15,-4 8,0 19,4 33,13 14,8 32,18 54,28 21,10 46,19 74,28 28,9 61,13 97,13 22,0 43,-2 60,-7 18,-4 33,-11 46,-20 13,-9 23,-20 30,-33 7,-14 10,-29 10,-46 0,-21 -6,-38 -18,-52 -13,-14 -29,-27 -50,-38 -20,-10 -43,-20 -69,-30 -26,-9 -52,-19 -79,-31 -27,-11 -54,-24 -80,-39 -25,-15 -48,-32 -69,-54 -20,-21 -37,-47 -49,-77 -13,-30 -19,-66 -19,-108 0,-43 9,-82 26,-118 16,-35 40,-66 72,-91 32,-26 70,-45 115,-59 45,-14 96,-21 152,-21 29,0 56,2 82,6 27,4 51,9 72,15 22,6 40,12 55,19 14,7 25,13 31,18 7,5 11,10 14,15 2,5 4,11 6,18 1,7 3,16 4,26 1,10 1,23 1,39 0,18 0,32 -1,44 -1,11 -3,20 -6,27 -2,7 -5,11 -9,13 -4,3 -9,4 -14,4 -6,0 -16,-4 -28,-11 -13,-7 -29,-14 -48,-22 -19,-8 -42,-15 -67,-22 -25,-7 -54,-11 -86,-11 -23,0 -43,3 -59,7 -17,5 -31,12 -42,20 -10,9 -18,19 -24,31 -5,11 -8,24 -8,37 0,21 7,38 19,52 13,14 30,26 51,37 20,11 44,21 70,30 27,9 54,20 81,31 27,11 54,23 80,38 26,15 50,33 71,54 21,22 37,47 50,77 13,30 19,65 19,105z"/>
 </g>
</svg>
