<?xml version="1.0" encoding="UTF-8"?>
<!DOCTYPE svg PUBLIC "-//W3C//DTD SVG 1.1//EN" "http://www.w3.org/Graphics/SVG/1.1/DTD/svg11.dtd">
<!-- Creator: CorelDRAW X8 -->
<svg xmlns="http://www.w3.org/2000/svg" xml:space="preserve" width="46.0866mm" height="28.3887mm" version="1.1" style="shape-rendering:geometricPrecision; text-rendering:geometricPrecision; image-rendering:optimizeQuality; fill-rule:evenodd; clip-rule:evenodd"
viewBox="0 0 2816 1735"
 xmlns:xlink="http://www.w3.org/1999/xlink">
 <defs>
  <style type="text/css">
   <![CDATA[
    .fil2 {fill:none;fill-rule:nonzero}
    .fil0 {fill:#0055FF;fill-rule:nonzero}
    .fil1 {fill:gray;fill-rule:nonzero}
    .fil3 {fill:gray;fill-rule:nonzero}
   ]]>
  </style>
 </defs>
 <g id="Warstwa_x0020_1">
  <metadata id="CorelCorpID_0Corel-Layer"/>
  <g id="_2977053548304">
   <path class="fil0" d="M566 607l0 521 -148 0 0 -373 -97 373 -102 0 -71 0 0 -95c28,-1 51,-24 51,-53 0,-29 -23,-52 -51,-53l0 -121c21,-11 35,-32 35,-57 0,-36 -28,-64 -64,-64 -35,0 -63,28 -63,64 0,25 14,46 35,57l0 322 -91 0 0 -521 208 0 76 277 72 -277 210 0z"/>
   <path class="fil1" d="M1057 529l-144 0c-4,-17 -6,-35 -6,-55 -27,42 -69,62 -124,62 -46,0 -80,-11 -103,-35 -23,-23 -34,-50 -34,-80 0,-41 18,-74 56,-99 37,-25 103,-41 197,-46l0 -8c0,-18 -3,-29 -11,-35 -8,-5 -19,-8 -34,-8 -35,0 -54,14 -58,43l-139 -14c19,-81 87,-121 202,-121 31,0 60,3 86,9 26,6 47,16 62,29 15,13 25,27 31,42 5,15 7,43 7,85l0 155c0,29 4,55 12,76zm-158 -182c-64,7 -96,28 -96,62 0,24 12,35 38,35 16,0 30,-5 41,-14 12,-10 17,-31 17,-64l0 -19zm633 182l-152 0 0 -245c0,-20 -3,-33 -9,-38 -6,-6 -14,-9 -23,-9 -28,0 -42,20 -42,58l0 234 -152 0 0 -388 141 0 0 54c21,-41 58,-62 112,-62 28,0 52,5 71,16 20,11 33,25 42,42 8,17 12,47 12,89l0 249zm344 -157l129 11c-6,45 -25,82 -57,111 -32,28 -74,42 -127,42 -59,0 -107,-18 -144,-56 -37,-37 -56,-84 -56,-143 0,-59 19,-108 56,-147 36,-38 84,-57 143,-57 52,0 95,14 127,43 33,30 52,67 57,111l-134 11c-5,-41 -21,-61 -46,-61 -17,0 -29,7 -36,22 -7,15 -11,40 -11,77 0,32 4,55 11,71 8,15 21,22 39,22 28,0 44,-19 49,-57zm460 17l141 9c-8,39 -29,71 -64,98 -34,27 -81,40 -139,40 -66,0 -118,-19 -157,-56 -39,-38 -58,-85 -58,-141 0,-58 19,-107 57,-146 39,-40 90,-60 154,-60 62,0 112,18 150,56 39,38 58,89 58,153 0,6 0,13 -1,23l-259 0c1,24 5,42 13,54 8,12 24,18 47,18 33,0 52,-16 58,-48zm-11 -101c0,-26 -5,-43 -15,-52 -11,-9 -23,-14 -38,-14 -36,0 -54,22 -54,66l107 0zm387 241l-146 0 0 -388 128 0 0 79c14,-58 48,-87 100,-87 6,0 13,0 22,1l0 135c-10,-2 -20,-4 -28,-4 -51,0 -76,29 -76,85l0 179z"/>
   <g>
    <polygon class="fil2" points="566,607 566,1128 418,1128 418,755 321,1128 219,1128 119,755 119,1128 0,1128 0,607 208,607 284,884 356,607 "/>
    <path class="fil3" d="M903 591l0 120 -153 0 0 -120 153 0zm0 149l0 388 -153 0 0 -388 153 0zm648 388l-178 0 -76 -199 -49 0 0 199 -160 0 0 -521 272 0c59,0 106,14 139,42 33,28 50,65 50,111 0,30 -6,57 -18,80 -13,23 -37,43 -75,61l95 227zm-303 -310l68 0c20,0 36,-4 48,-13 13,-8 19,-21 19,-37 0,-33 -21,-50 -62,-50l-73 0 0 100zm923 310l-131 0 -143 -230c-18,-29 -36,-65 -54,-108 8,34 12,62 12,85l0 253 -129 0 0 -521 150 0 122 191c24,38 42,71 55,100 -9,-45 -13,-90 -13,-137l0 -154 131 0 0 521zm478 0l-29 -103 -142 0 -31 103 -129 0 161 -521 169 0 164 521 -163 0zm-142 -217l83 0 -41 -150 -42 150z"/>
   </g>
   <path class="fil1" d="M923 1582l141 10c-8,38 -30,70 -64,97 -34,27 -81,41 -140,41 -65,0 -117,-19 -156,-57 -39,-38 -58,-84 -58,-140 0,-58 19,-107 57,-147 39,-40 90,-60 154,-60 62,0 112,19 150,56 38,38 58,89 58,154 0,5 -1,13 -1,22l-259 0c0,25 5,43 13,55 8,12 24,18 46,18 34,0 53,-17 59,-49zm-11 -101c0,-25 -6,-43 -16,-52 -10,-9 -22,-13 -38,-13 -35,0 -53,22 -53,65l107 0zm590 241l-152 0 0 -244c0,-21 -3,-33 -9,-39 -6,-5 -14,-8 -24,-8 -27,0 -41,19 -41,58l0 233 -152 0 0 -388 141 0 0 55c21,-42 58,-63 112,-63 28,0 52,6 71,16 19,11 33,25 42,42 8,17 12,47 12,90l0 248zm46 -110l120 -17c7,29 34,43 82,43 40,0 60,-8 60,-23 0,-7 -4,-12 -12,-16 -8,-3 -26,-7 -54,-11 -80,-11 -129,-28 -148,-51 -20,-23 -30,-49 -30,-78 0,-39 17,-72 50,-96 33,-25 76,-37 130,-37 95,0 155,34 181,102l-115 21c-11,-22 -34,-34 -68,-34 -17,0 -29,2 -37,7 -8,4 -12,9 -12,13 0,13 12,20 36,23 64,7 107,14 130,22 23,7 42,21 58,40 16,20 24,44 24,71 0,43 -18,76 -53,101 -36,25 -85,38 -147,38 -105,0 -170,-40 -195,-118zm825 -278l0 388 -140 0 0 -64c-21,48 -61,72 -121,72 -37,0 -65,-11 -86,-31 -20,-20 -30,-50 -30,-88l0 -277 152 0 0 244c0,15 2,26 6,32 5,6 13,10 25,10 13,0 24,-5 32,-14 8,-10 12,-23 12,-39l0 -233 150 0zm46 278l120 -17c7,29 34,43 82,43 39,0 59,-8 59,-23 0,-7 -4,-12 -11,-16 -8,-3 -26,-7 -55,-11 -79,-11 -128,-28 -148,-51 -19,-23 -29,-49 -29,-78 0,-39 16,-72 49,-96 34,-25 77,-37 131,-37 94,0 154,34 180,102l-114 21c-11,-22 -34,-34 -69,-34 -16,0 -28,2 -36,7 -8,4 -13,9 -13,13 0,13 13,20 37,23 64,7 107,14 130,22 22,7 42,21 58,40 16,20 24,44 24,71 0,43 -18,76 -53,101 -36,25 -85,38 -147,38 -105,0 -170,-40 -195,-118z"/>
   <path class="fil0" d="M384 330l182 9c-9,64 -38,112 -88,146 -50,34 -111,51 -184,51 -88,0 -159,-23 -213,-70 -54,-47 -81,-111 -81,-193 0,-82 26,-148 77,-198 51,-50 122,-75 214,-75 85,0 151,19 197,57 46,38 72,88 78,151l-185 8c0,-34 -9,-59 -25,-75 -17,-15 -36,-23 -59,-23 -62,0 -93,50 -93,152 0,57 8,95 24,116 16,20 39,30 69,30 52,0 81,-29 87,-86z"/>
   <path class="fil0" d="M384 1529l182 8c-9,64 -38,113 -88,147 -50,34 -111,51 -184,51 -88,0 -159,-24 -213,-70 -54,-47 -81,-112 -81,-194 0,-82 26,-147 77,-197 51,-51 122,-76 214,-76 85,0 151,19 197,57 46,38 72,89 78,152l-185 8c0,-35 -9,-60 -25,-76 -17,-15 -36,-23 -59,-23 -62,0 -93,51 -93,152 0,57 8,96 24,116 16,20 39,31 69,31 52,0 81,-29 87,-86z"/>
  </g>
 </g>
</svg>
