<?xml version="1.0" encoding="UTF-8"?>
<!DOCTYPE svg PUBLIC "-//W3C//DTD SVG 1.1//EN" "http://www.w3.org/Graphics/SVG/1.1/DTD/svg11.dtd">
<!-- Creator: CorelDRAW 2021.5 -->
<svg xmlns="http://www.w3.org/2000/svg" xml:space="preserve" width="533.753mm" height="136.172mm" version="1.1" style="shape-rendering:geometricPrecision; text-rendering:geometricPrecision; image-rendering:optimizeQuality; fill-rule:evenodd; clip-rule:evenodd"
viewBox="0 0 53375.28 13617.22"
 xmlns:xlink="http://www.w3.org/1999/xlink"
 xmlns:xodm="http://www.corel.com/coreldraw/odm/2003">
 <defs>
  <style type="text/css">
   <![CDATA[
    .fil1 {fill:#333B72;fill-rule:nonzero}
    .fil0 {fill:#333A71;fill-rule:nonzero}
    .fil3 {fill:url(#id0);fill-rule:nonzero}
    .fil2 {fill:url(#id1);fill-rule:nonzero}
    .fil4 {fill:url(#id2);fill-rule:nonzero}
    .fil5 {fill:url(#id3);fill-rule:nonzero}
   ]]>
  </style>
  <linearGradient id="id0" gradientUnits="userSpaceOnUse" x1="3999.26" y1="7614.09" x2="3999.26" y2="4852.34">
   <stop offset="0" style="stop-opacity:1; stop-color:#FECA1F"/>
   <stop offset="0.988235" style="stop-opacity:1; stop-color:#D87F23"/>
   <stop offset="1" style="stop-opacity:1; stop-color:#D87F23"/>
  </linearGradient>
  <linearGradient id="id1" gradientUnits="userSpaceOnUse" x1="2552.62" y1="6227.47" x2="2552.62" y2="8992.41">
   <stop offset="0" style="stop-opacity:1; stop-color:#333B72"/>
   <stop offset="0.988235" style="stop-opacity:1; stop-color:#8589C2"/>
   <stop offset="1" style="stop-opacity:1; stop-color:#8589C2"/>
  </linearGradient>
  <linearGradient id="id2" gradientUnits="userSpaceOnUse" xlink:href="#id0" x1="1364.28" y1="7473.42" x2="4444.36" y2="7473.42">
  </linearGradient>
  <linearGradient id="id3" gradientUnits="userSpaceOnUse" xlink:href="#id1" x1="5192.99" y1="6371.33" x2="2437.51" y2="6371.33">
  </linearGradient>
 </defs>
 <g id="Warstwa_x0020_1">
  <metadata id="CorelCorpID_0Corel-Layer"/>
  <path class="fil0" d="M6857.54 7673.59c173.67,0 302.03,35.87 381.32,107.6 79.28,71.74 118.93,169.9 118.93,298.26 0,58.52 -7.56,115.15 -26.43,168.01 -18.88,50.97 -47.2,98.16 -88.73,137.8 -41.53,41.54 -96.27,71.74 -162.34,96.28 -67.96,22.65 -151.02,33.98 -249.18,33.98l-143.47 0 0 505.91 -220.86 0 0 -1347.84 390.76 0zm-15.11 183.11l-154.79 0 0 475.71 120.82 0c69.84,0 128.36,-9.44 177.44,-24.54 47.2,-16.99 84.95,-43.42 109.49,-77.4 26.43,-35.87 37.76,-83.06 37.76,-141.58 0,-77.4 -22.66,-135.92 -69.85,-173.67 -47.19,-39.64 -120.82,-58.52 -220.87,-58.52z"/>
  <path id="_1" class="fil0" d="M8508.67 8509.86c0,83.06 -11.33,158.56 -33.98,224.64 -22.66,66.07 -54.75,120.81 -96.28,166.12 -43.41,45.3 -94.38,79.28 -152.9,103.82 -60.41,22.65 -128.37,35.87 -201.99,35.87 -69.85,0 -134.03,-13.22 -192.55,-35.87 -58.52,-24.54 -109.49,-58.52 -152.9,-103.82 -41.53,-45.31 -75.51,-100.05 -98.17,-166.12 -24.54,-66.08 -35.86,-141.58 -35.86,-224.64 0,-113.27 20.76,-209.54 58.52,-286.94 39.64,-79.28 96.27,-137.8 168,-179.33 71.74,-41.53 158.57,-62.3 258.62,-62.3 94.39,0 177.45,20.77 249.18,62.3 71.74,41.53 128.37,100.05 168.01,179.33 41.53,79.28 62.3,173.67 62.3,286.94zm-741.88 0c0,73.62 9.44,137.8 28.31,190.66 16.99,52.85 45.31,92.49 84.95,120.81 37.76,28.32 86.84,41.53 147.25,41.53 60.4,0 109.48,-13.21 147.24,-41.53 37.75,-28.32 66.07,-67.96 83.06,-120.81 18.88,-52.86 26.43,-117.04 26.43,-190.66 0,-75.51 -7.55,-137.81 -26.43,-190.67 -16.99,-50.96 -45.31,-90.61 -83.06,-118.92 -37.76,-26.43 -88.72,-41.53 -149.13,-41.53 -88.73,0 -154.8,30.2 -196.33,90.61 -41.53,60.41 -62.29,147.24 -62.29,260.51z"/>
  <polygon id="_2" class="fil0" points="8973.67,9021.43 8756.58,9021.43 8756.58,7586.76 8973.67,7586.76 "/>
  <path id="_3" class="fil0" d="M9500.03 8000.17l0 1021.26 -217.09 0 0 -1021.26 217.09 0zm-107.6 -390.76c33.98,0 62.3,9.44 86.84,28.31 24.54,16.99 35.86,47.2 35.86,90.61 0,43.42 -11.32,73.63 -35.86,92.5 -24.54,18.88 -52.86,26.43 -86.84,26.43 -33.98,0 -62.29,-7.55 -86.83,-26.43 -24.54,-18.87 -35.87,-49.08 -35.87,-92.5 0,-43.41 11.33,-73.62 35.87,-90.61 24.54,-18.87 52.85,-28.31 86.83,-28.31z"/>
  <path id="_4" class="fil0" d="M10494.55 8730.72c0,66.07 -15.1,122.7 -49.08,169.9 -32.09,45.3 -79.29,79.28 -141.58,103.82 -62.3,22.65 -137.81,35.87 -228.42,35.87 -71.73,0 -134.03,-5.67 -184.99,-15.1 -50.97,-11.33 -100.05,-26.43 -145.36,-47.2l0 -186.88c49.08,22.65 103.83,41.53 164.23,58.52 60.41,16.99 117.04,24.54 171.79,24.54 71.73,0 122.7,-11.33 154.79,-32.09 30.2,-22.66 47.19,-52.86 47.19,-90.62 0,-22.65 -7.55,-41.53 -18.87,-60.4 -13.22,-16.99 -37.76,-33.98 -71.74,-52.86 -33.98,-18.88 -83.06,-41.53 -149.13,-67.96 -64.18,-26.43 -118.92,-52.85 -162.34,-77.39 -45.31,-26.43 -79.29,-56.64 -101.94,-94.39 -22.65,-35.87 -33.98,-83.06 -33.98,-139.69 0,-90.61 35.87,-160.46 107.6,-205.77 71.74,-47.19 166.12,-71.73 285.05,-71.73 62.29,0 120.81,7.55 177.45,18.88 54.74,13.21 109.48,32.09 164.23,54.74l-69.85 164.23c-45.3,-20.76 -92.5,-37.75 -137.8,-50.96 -47.2,-13.22 -94.39,-18.88 -141.58,-18.88 -56.63,0 -98.16,7.55 -128.37,24.54 -28.31,16.99 -43.42,41.53 -43.42,73.62 0,24.54 7.56,45.31 20.77,62.3 15.1,15.1 39.64,32.09 73.62,49.08 35.87,16.99 83.06,37.75 145.36,62.29 60.4,22.65 113.26,47.2 158.57,71.74 43.41,26.42 79.28,56.63 101.93,94.38 24.54,37.76 35.87,84.95 35.87,143.47z"/>
  <path id="_5" class="fil0" d="M10945.4 7586.76l0 360.55c0,37.76 -1.88,73.62 -3.77,109.49 -1.89,35.87 -3.78,64.18 -7.55,83.06l13.21 0c20.77,-35.87 47.19,-64.18 79.29,-86.84 30.2,-24.54 66.07,-41.53 105.71,-52.85 37.75,-11.33 79.28,-16.99 124.59,-16.99 77.4,0 143.47,13.21 198.21,37.75 54.74,26.43 96.27,67.96 126.48,122.71 28.31,54.74 43.42,124.59 43.42,211.42l0 666.37 -217.09 0 0 -624.84c0,-79.28 -15.11,-139.69 -47.2,-179.33 -33.98,-39.65 -83.06,-58.52 -152.9,-58.52 -64.19,0 -117.04,13.21 -154.8,41.53 -39.64,26.43 -66.07,67.96 -83.06,120.81 -16.99,52.86 -24.54,117.04 -24.54,192.55l0 507.8 -217.09 0 0 -1434.67 217.09 0z"/>
  <path id="_6" class="fil0" d="M13275.18 9021.43l-132.14 -373.77 -515.35 0 -130.25 373.77 -234.08 0 502.14 -1353.5 245.4 0 500.25 1353.5 -235.97 0zm-188.77 -564.43l-128.37 -368.11c-3.77,-16.99 -11.32,-39.64 -20.76,-67.96 -9.44,-28.31 -18.88,-58.52 -28.32,-88.72 -9.43,-32.09 -16.99,-56.63 -22.65,-77.4 -5.66,24.54 -13.21,52.86 -22.65,84.95 -9.44,30.2 -16.99,58.52 -26.43,86.84 -7.55,26.42 -13.21,47.19 -18.88,62.29l-128.36 368.11 396.42 0z"/>
  <path id="_7" class="fil0" d="M14077.78 9040.31c-96.28,0 -181.22,-18.88 -251.07,-56.63 -69.85,-37.76 -124.59,-94.39 -162.34,-171.79 -39.65,-77.39 -58.52,-175.56 -58.52,-296.37 0,-122.7 20.76,-224.64 62.29,-303.93 43.42,-77.39 100.05,-135.91 175.56,-173.67 73.62,-37.75 158.57,-56.63 254.84,-56.63 60.41,0 115.16,5.66 164.24,18.88 49.08,11.32 92.5,26.43 126.47,43.42l-64.18 173.67c-37.75,-15.1 -77.4,-28.32 -115.15,-39.65 -39.64,-9.43 -77.4,-15.1 -113.26,-15.1 -60.41,0 -109.49,13.22 -149.13,39.65 -39.65,26.42 -69.85,66.07 -88.73,117.03 -18.87,52.86 -30.2,117.04 -30.2,194.44 0,75.51 11.33,139.69 30.2,190.66 18.88,50.97 49.08,88.72 86.84,115.15 39.64,26.43 86.83,39.65 143.47,39.65 56.63,0 105.71,-7.56 151.01,-20.77 43.42,-13.21 84.95,-30.2 124.59,-52.86l0 188.78c-37.75,22.65 -79.28,39.64 -124.59,49.08 -43.41,11.32 -98.16,16.99 -162.34,16.99z"/>
  <path id="_8" class="fil0" d="M15003.71 7981.29c128.37,0 226.53,28.32 292.6,86.84 66.07,56.63 98.16,145.35 98.16,266.17l0 687.13 -152.9 0 -41.53 -145.36 -7.55 0c-28.32,37.76 -58.52,67.96 -88.73,92.5 -32.09,22.66 -66.07,41.53 -107.6,52.86 -39.64,13.21 -88.72,18.88 -147.24,18.88 -60.41,0 -115.15,-11.33 -162.35,-33.98 -47.19,-22.65 -84.94,-56.63 -113.26,-103.83 -28.32,-45.3 -41.53,-103.82 -41.53,-173.67 0,-105.71 39.64,-185 117.04,-237.85 79.28,-52.86 196.32,-81.17 354.89,-86.84l177.45 -7.55 0 -52.86c0,-69.84 -16.99,-120.81 -49.08,-151.01 -32.09,-30.21 -79.29,-45.31 -137.81,-45.31 -50.96,0 -101.93,7.55 -149.13,22.65 -47.19,15.11 -94.38,32.1 -139.69,54.75l-69.84 -152.91c49.08,-26.43 105.71,-49.08 169.89,-66.07 62.3,-15.1 128.37,-24.54 198.21,-24.54zm177.45 553.11l-132.14 3.77c-107.6,3.78 -185,22.65 -228.42,54.75 -43.41,33.97 -64.18,79.28 -64.18,137.8 0,49.08 15.1,86.84 45.31,109.49 28.31,22.65 67.95,33.98 118.92,33.98 73.62,0 135.92,-20.77 185,-64.19 50.97,-41.53 75.51,-103.82 75.51,-186.88l0 -88.72z"/>
  <path id="_9" class="fil0" d="M16041.96 9040.31c-122.7,0 -218.98,-45.31 -292.6,-134.03 -73.62,-88.72 -111.37,-218.98 -111.37,-392.65 0,-175.56 37.75,-307.7 113.26,-396.42 73.62,-90.61 171.78,-135.92 294.49,-135.92 50.96,0 96.27,7.55 135.91,20.77 37.76,15.1 71.74,32.09 100.05,56.63 28.32,22.65 50.97,49.08 71.74,77.39l9.43 0c-3.77,-18.87 -5.66,-45.3 -11.32,-81.17 -3.78,-35.86 -5.66,-69.84 -5.66,-100.05l0 -368.1 218.97 0 0 1434.67 -169.89 0 -39.65 -139.69 -9.43 0c-16.99,30.2 -41.53,56.63 -69.85,81.17 -26.43,22.65 -60.41,41.53 -98.16,56.63 -39.65,13.22 -84.95,20.77 -135.92,20.77zm60.41 -175.56c92.5,0 158.57,-28.32 196.32,-81.17 37.76,-52.86 58.52,-134.03 58.52,-239.75l0 -30.2c0,-113.26 -18.88,-201.99 -54.74,-262.39 -37.76,-60.41 -103.83,-92.5 -201.99,-92.5 -77.4,0 -137.8,32.09 -179.33,96.27 -39.65,62.3 -60.41,149.13 -60.41,262.4 0,111.37 20.76,198.21 60.41,256.73 41.53,60.4 101.93,90.61 181.22,90.61z"/>
  <path id="_10" class="fil0" d="M17279.37 7981.29c92.49,0 169.89,18.88 234.07,56.63 66.07,37.76 115.16,90.61 151.02,158.57 35.87,69.85 52.86,152.91 52.86,247.29l0 117.04 -681.47 0c1.89,98.17 28.31,175.56 79.28,228.42 50.97,52.86 122.71,79.28 213.32,79.28 66.07,0 124.59,-5.66 175.56,-18.87 52.85,-11.33 105.71,-30.21 160.45,-54.75l0 175.56c-50.97,24.54 -101.93,41.53 -154.79,52.86 -52.86,11.32 -117.04,16.99 -190.66,16.99 -100.05,0 -186.89,-20.77 -264.28,-58.52 -75.51,-39.64 -134.03,-98.16 -177.45,-175.56 -41.53,-77.4 -64.18,-173.67 -64.18,-288.82 0,-113.27 20.76,-211.43 58.52,-290.71 39.64,-79.29 92.49,-139.7 162.34,-183.11 71.73,-41.53 152.91,-62.3 245.41,-62.3zm0 164.23c-67.96,0 -122.71,20.77 -164.24,66.07 -43.41,43.42 -67.95,109.49 -75.51,194.44l466.27 0c-1.88,-50.97 -9.44,-96.27 -26.42,-135.92 -16.99,-39.64 -41.53,-69.84 -73.63,-92.5 -32.09,-20.76 -75.51,-32.09 -126.47,-32.09z"/>
  <path id="_11" class="fil0" d="M19114.56 7981.29c113.26,0 200.1,30.2 258.62,88.72 58.52,58.52 86.83,152.91 86.83,283.16l0 668.26 -217.09 0 0 -628.61c0,-77.4 -15.1,-135.92 -45.3,-175.56 -30.21,-39.65 -75.51,-58.52 -135.92,-58.52 -86.84,0 -149.13,28.31 -186.88,83.06 -37.76,54.74 -56.64,134.03 -56.64,237.85l0 541.78 -217.09 0 0 -628.61c0,-50.97 -5.66,-94.39 -18.87,-130.26 -13.22,-33.98 -33.98,-60.4 -60.41,-77.39 -26.43,-16.99 -60.41,-26.43 -101.94,-26.43 -60.41,0 -107.6,13.21 -143.47,39.64 -33.97,28.32 -60.4,67.96 -75.5,120.81 -15.11,52.86 -22.66,117.04 -22.66,192.55l0 509.69 -217.09 0 0 -1021.26 168.01 0 32.09 137.8 11.33 0c20.76,-35.86 47.19,-64.18 77.4,-86.83 32.09,-24.54 66.07,-41.53 103.82,-52.86 37.76,-11.33 77.4,-16.99 118.93,-16.99 75.51,0 139.69,13.21 192.55,39.64 52.85,28.32 90.61,67.96 117.04,122.71l16.99 0c32.09,-54.75 75.51,-96.28 134.02,-122.71 56.64,-26.43 117.04,-39.64 181.23,-39.64z"/>
  <path id="_12" class="fil0" d="M19607.57 8000.17l235.97 0 209.53 583.31c9.44,26.42 18.88,52.85 26.43,77.39 7.55,26.43 13.22,50.97 18.88,75.51 7.55,24.54 11.33,49.08 15.1,73.62l5.66 0c5.67,-32.09 15.11,-67.95 26.43,-107.6 11.33,-39.64 24.54,-79.28 37.76,-118.92l201.98 -583.31 232.2 0 -437.96 1160.95c-24.54,66.07 -54.74,122.7 -92.5,169.9 -35.86,47.19 -79.28,83.06 -128.36,107.6 -50.97,24.54 -107.6,35.87 -171.79,35.87 -30.2,0 -56.63,-1.89 -79.28,-3.78 -22.65,-3.78 -43.42,-7.55 -58.52,-11.33l0 -173.67c13.21,3.78 28.32,5.67 49.08,9.44 18.88,1.89 39.64,1.89 60.41,1.89 39.64,0 71.73,-7.55 100.05,-22.65 28.31,-15.11 52.85,-35.87 71.73,-64.19 20.77,-28.31 35.87,-60.4 49.08,-96.27l35.87 -94.39 -407.75 -1019.37z"/>
  <path id="_13" class="fil0" d="M22167.34 8509.86c0,83.06 -11.33,158.56 -33.98,224.64 -22.66,66.07 -54.75,120.81 -96.28,166.12 -43.41,45.3 -94.38,79.28 -152.9,103.82 -60.41,22.65 -128.37,35.87 -201.99,35.87 -69.85,0 -134.03,-13.22 -192.55,-35.87 -58.52,-24.54 -109.49,-58.52 -152.9,-103.82 -41.53,-45.31 -75.51,-100.05 -98.17,-166.12 -24.54,-66.08 -35.86,-141.58 -35.86,-224.64 0,-113.27 20.76,-209.54 58.52,-286.94 39.64,-79.28 96.27,-137.8 168,-179.33 71.74,-41.53 158.57,-62.3 258.62,-62.3 94.39,0 177.45,20.77 249.18,62.3 71.74,41.53 128.37,100.05 168.01,179.33 41.53,79.28 62.3,173.67 62.3,286.94zm-741.88 0c0,73.62 9.44,137.8 28.31,190.66 16.99,52.85 45.31,92.49 84.95,120.81 37.76,28.32 86.84,41.53 147.25,41.53 60.4,0 109.48,-13.21 147.24,-41.53 37.75,-28.32 66.07,-67.96 83.06,-120.81 18.88,-52.86 26.43,-117.04 26.43,-190.66 0,-75.51 -7.55,-137.81 -26.43,-190.67 -16.99,-50.96 -45.31,-90.61 -83.06,-118.92 -37.76,-26.43 -88.72,-41.53 -149.13,-41.53 -88.73,0 -154.8,30.2 -196.33,90.61 -41.53,60.41 -62.29,147.24 -62.29,260.51z"/>
  <path id="_14" class="fil0" d="M22924.94 8166.29l-247.29 0 0 855.14 -217.09 0 0 -855.14 -166.12 0 0 -103.83 166.12 -64.18 0 -71.73c0,-84.95 13.21,-154.8 41.53,-205.77 26.43,-50.96 66.07,-86.83 117.04,-109.48 50.97,-22.66 113.26,-33.98 185,-33.98 45.3,0 88.72,3.77 126.47,11.32 39.65,7.55 71.74,16.99 98.17,26.43l-56.64 164.23c-20.76,-7.55 -43.41,-13.21 -69.84,-18.87 -24.54,-5.67 -52.86,-9.44 -83.06,-9.44 -49.08,0 -84.95,15.1 -107.6,47.19 -22.66,30.2 -33.98,75.51 -33.98,134.03l0 67.96 247.29 0 0 166.12z"/>
  <path id="_15" class="fil0" d="M24389.19 8655.21c0,79.29 -18.88,147.24 -58.52,205.76 -39.64,58.52 -94.38,101.94 -168.01,132.14 -73.62,32.1 -160.45,47.2 -260.5,47.2 -49.08,0 -96.28,-3.78 -141.58,-9.44 -43.42,-5.66 -86.84,-13.22 -126.48,-24.54 -39.64,-9.44 -75.51,-22.65 -107.6,-37.76l0 -209.53c54.74,24.54 115.15,45.3 183.11,66.07 67.96,18.87 135.92,28.31 205.76,28.31 58.52,0 105.71,-7.55 143.47,-22.65 37.75,-15.1 66.07,-35.87 83.06,-64.18 18.88,-28.32 28.31,-60.41 28.31,-98.17 0,-39.64 -11.32,-73.62 -32.09,-101.93 -20.76,-26.43 -54.74,-52.86 -96.27,-75.51 -43.42,-22.65 -98.16,-47.2 -164.23,-73.62 -43.42,-18.88 -84.95,-37.76 -126.48,-62.3 -39.64,-22.65 -75.51,-49.08 -107.6,-79.28 -30.21,-30.21 -54.75,-67.96 -73.62,-109.49 -18.88,-41.53 -26.43,-90.61 -26.43,-149.13 0,-75.51 16.99,-141.58 54.74,-194.44 35.87,-54.74 86.84,-96.27 154.8,-124.59 66.07,-28.31 143.46,-43.42 232.19,-43.42 71.73,0 137.8,7.55 200.1,22.66 62.29,13.21 124.59,33.98 184.99,62.29l-71.73 177.45c-54.74,-22.65 -107.6,-41.53 -160.46,-54.75 -50.97,-13.21 -103.82,-20.76 -158.57,-20.76 -47.19,0 -86.83,7.55 -118.92,22.65 -32.09,13.22 -56.63,33.98 -73.62,58.52 -16.99,26.43 -26.43,56.63 -26.43,90.61 0,39.64 9.44,73.62 30.2,100.05 18.88,26.43 49.08,50.97 90.61,73.62 39.64,20.77 92.5,45.31 156.68,73.62 75.51,30.21 137.81,62.3 190.66,96.28 50.97,33.98 90.62,73.62 118.93,120.81 28.32,47.2 41.53,105.72 41.53,177.45z"/>
  <path id="_16" class="fil0" d="M25038.26 9040.31c-96.28,0 -181.22,-18.88 -251.07,-56.63 -69.85,-37.76 -124.59,-94.39 -162.34,-171.79 -39.65,-77.39 -58.52,-175.56 -58.52,-296.37 0,-122.7 20.76,-224.64 62.29,-303.93 43.42,-77.39 100.05,-135.91 175.56,-173.67 73.62,-37.75 158.57,-56.63 254.84,-56.63 60.41,0 115.16,5.66 164.24,18.88 49.08,11.32 92.5,26.43 126.47,43.42l-64.18 173.67c-37.75,-15.1 -77.4,-28.32 -115.15,-39.65 -39.64,-9.43 -77.4,-15.1 -113.26,-15.1 -60.41,0 -109.49,13.22 -149.13,39.65 -39.65,26.42 -69.85,66.07 -88.73,117.03 -18.87,52.86 -30.2,117.04 -30.2,194.44 0,75.51 11.33,139.69 30.2,190.66 18.88,50.97 49.08,88.72 86.84,115.15 39.64,26.43 86.83,39.65 143.47,39.65 56.63,0 105.71,-7.56 151.01,-20.77 43.42,-13.21 84.95,-30.2 124.59,-52.86l0 188.78c-37.75,22.65 -79.28,39.64 -124.59,49.08 -43.41,11.32 -98.16,16.99 -162.34,16.99z"/>
  <path id="_17" class="fil0" d="M25781.08 8000.17l0 1021.26 -217.09 0 0 -1021.26 217.09 0zm-107.6 -390.76c33.98,0 62.3,9.44 86.84,28.31 24.54,16.99 35.86,47.2 35.86,90.61 0,43.42 -11.32,73.63 -35.86,92.5 -24.54,18.88 -52.86,26.43 -86.84,26.43 -33.98,0 -62.29,-7.55 -86.83,-26.43 -24.54,-18.87 -35.87,-49.08 -35.87,-92.5 0,-43.41 11.33,-73.62 35.87,-90.61 24.54,-18.87 52.85,-28.31 86.83,-28.31z"/>
  <path id="_18" class="fil0" d="M26496.22 7981.29c92.49,0 169.89,18.88 234.07,56.63 66.07,37.76 115.16,90.61 151.02,158.57 35.87,69.85 52.86,152.91 52.86,247.29l0 117.04 -681.47 0c1.89,98.17 28.31,175.56 79.28,228.42 50.97,52.86 122.71,79.28 213.32,79.28 66.07,0 124.59,-5.66 175.56,-18.87 52.85,-11.33 105.71,-30.21 160.45,-54.75l0 175.56c-50.97,24.54 -101.93,41.53 -154.79,52.86 -52.86,11.32 -117.04,16.99 -190.66,16.99 -100.05,0 -186.89,-20.77 -264.28,-58.52 -75.51,-39.64 -134.03,-98.16 -177.45,-175.56 -41.53,-77.4 -64.18,-173.67 -64.18,-288.82 0,-113.27 20.76,-211.43 58.52,-290.71 39.64,-79.29 92.49,-139.7 162.34,-183.11 71.73,-41.53 152.91,-62.3 245.41,-62.3zm0 164.23c-67.96,0 -122.71,20.77 -164.24,66.07 -43.41,43.42 -67.95,109.49 -75.51,194.44l466.27 0c-1.88,-50.97 -9.44,-96.27 -26.42,-135.92 -16.99,-39.64 -41.53,-69.84 -73.63,-92.5 -32.09,-20.76 -75.51,-32.09 -126.47,-32.09z"/>
  <path id="_19" class="fil0" d="M27710.34 7981.29c115.16,0 203.88,30.2 268.06,88.72 64.18,60.41 96.28,154.8 96.28,285.05l0 666.37 -217.09 0 0 -624.84c0,-79.28 -15.11,-139.69 -47.2,-179.33 -33.98,-39.65 -83.06,-58.52 -152.9,-58.52 -98.16,0 -166.12,30.2 -205.77,90.61 -37.75,62.29 -56.63,149.13 -56.63,264.28l0 507.8 -217.09 0 0 -1021.26 168.01 0 32.09 139.69 11.33 0c22.65,-35.87 49.08,-66.07 83.06,-88.72 32.09,-22.66 67.96,-39.65 109.49,-52.86 41.53,-11.33 83.06,-16.99 128.36,-16.99z"/>
  <path id="_20" class="fil0" d="M28788.87 9040.31c-96.28,0 -181.22,-18.88 -251.07,-56.63 -69.85,-37.76 -124.59,-94.39 -162.34,-171.79 -39.65,-77.39 -58.52,-175.56 -58.52,-296.37 0,-122.7 20.76,-224.64 62.29,-303.93 43.42,-77.39 100.05,-135.91 175.56,-173.67 73.62,-37.75 158.57,-56.63 254.84,-56.63 60.41,0 115.16,5.66 164.24,18.88 49.08,11.32 92.5,26.43 126.47,43.42l-64.18 173.67c-37.75,-15.1 -77.4,-28.32 -115.15,-39.65 -39.64,-9.43 -77.4,-15.1 -113.26,-15.1 -60.41,0 -109.49,13.22 -149.13,39.65 -39.65,26.42 -69.85,66.07 -88.73,117.03 -18.87,52.86 -30.2,117.04 -30.2,194.44 0,75.51 11.33,139.69 30.2,190.66 18.88,50.97 49.08,88.72 86.84,115.15 39.64,26.43 86.83,39.65 143.47,39.65 56.63,0 105.71,-7.56 151.01,-20.77 43.42,-13.21 84.95,-30.2 124.59,-52.86l0 188.78c-37.75,22.65 -79.28,39.64 -124.59,49.08 -43.41,11.32 -98.16,16.99 -162.34,16.99z"/>
  <path id="_21" class="fil0" d="M29720.47 7981.29c92.49,0 169.89,18.88 234.07,56.63 66.07,37.76 115.16,90.61 151.02,158.57 35.87,69.85 52.86,152.91 52.86,247.29l0 117.04 -681.47 0c1.89,98.17 28.31,175.56 79.28,228.42 50.97,52.86 122.71,79.28 213.32,79.28 66.07,0 124.59,-5.66 175.56,-18.87 52.85,-11.33 105.71,-30.21 160.45,-54.75l0 175.56c-50.97,24.54 -101.93,41.53 -154.79,52.86 -52.86,11.32 -117.04,16.99 -190.66,16.99 -100.05,0 -186.89,-20.77 -264.28,-58.52 -75.51,-39.64 -134.03,-98.16 -177.45,-175.56 -41.53,-77.4 -64.18,-173.67 -64.18,-288.82 0,-113.27 20.76,-211.43 58.52,-290.71 39.64,-79.29 92.49,-139.7 162.34,-183.11 71.73,-41.53 152.91,-62.3 245.41,-62.3zm0 164.23c-67.96,0 -122.71,20.77 -164.24,66.07 -43.41,43.42 -67.95,109.49 -75.51,194.44l466.27 0c-1.88,-50.97 -9.44,-96.27 -26.42,-135.92 -16.99,-39.64 -41.53,-69.84 -73.63,-92.5 -32.09,-20.76 -75.51,-32.09 -126.47,-32.09z"/>
  <path id="_22" class="fil0" d="M31087.5 8730.72c0,66.07 -15.1,122.7 -49.08,169.9 -32.09,45.3 -79.29,79.28 -141.58,103.82 -62.3,22.65 -137.81,35.87 -228.42,35.87 -71.73,0 -134.03,-5.67 -184.99,-15.1 -50.97,-11.33 -100.05,-26.43 -145.36,-47.2l0 -186.88c49.08,22.65 103.83,41.53 164.23,58.52 60.41,16.99 117.04,24.54 171.79,24.54 71.73,0 122.7,-11.33 154.79,-32.09 30.2,-22.66 47.19,-52.86 47.19,-90.62 0,-22.65 -7.55,-41.53 -18.87,-60.4 -13.22,-16.99 -37.76,-33.98 -71.74,-52.86 -33.98,-18.88 -83.06,-41.53 -149.13,-67.96 -64.18,-26.43 -118.92,-52.85 -162.34,-77.39 -45.31,-26.43 -79.29,-56.64 -101.94,-94.39 -22.65,-35.87 -33.98,-83.06 -33.98,-139.69 0,-90.61 35.87,-160.46 107.6,-205.77 71.74,-47.19 166.12,-71.73 285.05,-71.73 62.29,0 120.81,7.55 177.45,18.88 54.74,13.21 109.48,32.09 164.23,54.74l-69.85 164.23c-45.3,-20.76 -92.5,-37.75 -137.8,-50.96 -47.2,-13.22 -94.39,-18.88 -141.58,-18.88 -56.63,0 -98.16,7.55 -128.37,24.54 -28.31,16.99 -43.42,41.53 -43.42,73.62 0,24.54 7.56,45.31 20.77,62.3 15.1,15.1 39.64,32.09 73.62,49.08 35.87,16.99 83.06,37.75 145.36,62.29 60.4,22.65 113.26,47.2 158.57,71.74 43.41,26.42 79.28,56.63 101.93,94.38 24.54,37.76 35.87,84.95 35.87,143.47z"/>
 </g>
 <g id="Warstwa_x0020_1_0">
  <metadata id="CorelCorpID_1Corel-Layer"/>
  <polygon class="fil1" points="6441.02,6634.95 6441.02,4939.51 6800.52,4939.51 6800.52,6634.95 "/>
  <path class="fil1" d="M8731.33 6634.95l-456.88 0 -737.55 -1282.68 -10.43 0c14.69,226.62 22.03,388.2 22.03,484.75l0 797.93 -321.2 0 0 -1695.44 453.41 0 736.37 1269.79 8.13 0c-11.61,-220.34 -17.38,-376.1 -17.38,-467.37l0 -802.42 323.5 0 0 1695.44z"/>
  <path class="fil1" d="M10158.89 6164.11c0,153.06 -55.06,273.71 -165.28,361.85 -110.12,88.14 -263.4,132.2 -459.74,132.2 -180.93,0 -341,-34.08 -480.16,-102.15l0 -333.93c114.43,51.02 211.26,87.02 290.54,107.87 79.22,20.86 151.71,31.29 217.42,31.29 78.83,0 139.33,-15.03 181.49,-45.19 42.11,-30.17 63.19,-75.02 63.19,-134.56 0,-33.19 -9.25,-62.8 -27.81,-88.7 -18.56,-25.9 -45.81,-50.79 -81.75,-74.79 -35.99,-24 -109.21,-62.23 -219.78,-114.82 -103.61,-48.67 -181.31,-95.54 -233.12,-140.28 -51.8,-44.86 -93.18,-97.11 -124.02,-156.65 -30.95,-59.43 -46.42,-129.07 -46.42,-208.68 0,-150.03 50.79,-267.89 152.5,-353.78 101.65,-85.78 242.21,-128.61 421.51,-128.61 88.13,0 172.23,10.42 252.29,31.28 79.95,20.86 163.66,50.24 251.07,88.14l-116 279.43c-90.44,-37.12 -165.23,-63.02 -224.44,-77.71 -59.09,-14.69 -117.29,-21.98 -174.47,-21.98 -68.07,0 -120.21,15.82 -156.54,47.55 -36.39,31.73 -54.55,73 -54.55,124.02 0,31.73 7.34,59.43 22.03,82.98 14.69,23.54 38.07,46.42 70.2,68.4 32.07,22.09 107.98,61.67 227.85,118.86 158.44,75.8 267.1,151.71 325.86,227.85 58.75,76.14 88.13,169.55 88.13,280.11z"/>
  <polygon class="fil1" points="11120.32,6634.95 10760.82,6634.95 10760.82,5238.68 10300.4,5238.68 10300.4,4939.51 11580.68,4939.51 11580.68,5238.68 11120.32,5238.68 "/>
  <polygon class="fil1" points="11841.61,6634.95 11841.61,4939.51 12201.11,4939.51 12201.11,6634.95 "/>
  <polygon class="fil1" points="13281.9,6634.95 12922.4,6634.95 12922.4,5238.68 12462.04,5238.68 12462.04,4939.51 13742.31,4939.51 13742.31,5238.68 13281.9,5238.68 "/>
  <path class="fil1" d="M15383.26 4939.51l0 1096.99c0,125.25 -28.03,235.03 -84.1,329.33 -56.07,94.42 -137.03,166.63 -242.93,216.87 -105.91,50.35 -231.17,75.46 -375.7,75.46 -218.05,0 -387.37,-55.84 -507.97,-167.63 -120.65,-111.69 -180.92,-264.53 -180.92,-458.63l0 -1092.39 358.32 0 0 1037.9c0,130.63 26.29,226.5 78.88,287.62 52.54,61 139.55,91.61 260.94,91.61 117.46,0 202.73,-30.72 255.71,-92.29 52.93,-61.44 79.39,-157.88 79.39,-289.3l0 -1035.54 358.38 0z"/>
  <polygon class="fil1" points="16452.44,6634.95 16092.95,6634.95 16092.95,5238.68 15632.59,5238.68 15632.59,4939.51 16912.86,4939.51 16912.86,5238.68 16452.44,5238.68 "/>
  <polygon class="fil1" points="18150.24,6634.95 17173.79,6634.95 17173.79,4939.51 18150.24,4939.51 18150.24,5234.08 17533.29,5234.08 17533.29,5606.25 18107.35,5606.25 18107.35,5900.82 17533.29,5900.82 17533.29,6338.03 18150.24,6338.03 "/>
  <path class="fil1" d="M20659.77 5784.88c0,280.66 -69.52,496.29 -208.79,647.11 -139.16,150.71 -338.53,226.17 -598.34,226.17 -259.81,0 -459.18,-75.46 -598.34,-226.17 -139.27,-150.82 -208.79,-367.23 -208.79,-649.47 0,-282.12 69.75,-497.64 209.35,-646.44 139.49,-148.8 339.54,-223.26 600.13,-223.26 260.49,0 459.75,75.02 597.78,224.94 138.04,150.03 207,365.66 207,647.12zm-1237.38 0l0 0c0,189.39 35.99,332.02 107.87,427.89 71.88,95.88 179.3,143.87 322.38,143.87 286.83,0 430.25,-190.63 430.25,-571.76 0,-381.93 -142.63,-572.89 -427.9,-572.89 -143.08,0 -250.95,48.11 -323.61,144.43 -72.66,96.21 -108.99,239.06 -108.99,428.46z"/>
  <polygon class="fil1" points="21364.86,6634.95 21011.19,6634.95 21011.19,4939.51 21982.93,4939.51 21982.93,5234.08 21364.86,5234.08 21364.86,5671.29 21940.1,5671.29 21940.1,5964.62 21364.86,5964.62 "/>
  <path class="fil1" d="M22931.58 4939.51l527.69 0c240.41,0 414.89,34.2 523.55,102.6 108.65,68.4 162.93,177.28 162.93,326.42 0,101.37 -23.78,184.46 -71.32,249.38 -47.54,64.92 -110.67,103.95 -189.62,117.07l0 11.66c107.54,23.99 185.02,68.74 232.57,134.45 47.54,65.82 71.31,153.17 71.31,262.16 0,154.63 -55.84,275.17 -167.52,361.74 -111.8,86.68 -263.51,129.96 -455.26,129.96l-634.33 0 0 -1695.44zm359.49 671.45l0 0 208.79 0c97.45,0 167.98,-15.14 211.6,-45.3 43.73,-30.06 65.6,-79.95 65.6,-149.59 0,-64.92 -23.78,-111.46 -71.43,-139.72 -47.55,-28.25 -122.68,-42.27 -225.5,-42.27l-189.06 0 0 376.88zm0 285.26l0 0 0 441.81 234.25 0c99.01,0 172.01,-18.96 219.22,-56.86 47.09,-37.78 70.75,-95.76 70.75,-173.91 0,-140.73 -100.58,-211.04 -301.52,-211.04l-222.7 0z"/>
  <polygon class="fil1" points="24527.33,6634.95 24527.33,4939.51 24886.83,4939.51 24886.83,6634.95 "/>
  <path class="fil1" d="M26852.51 5784.88c0,280.66 -69.63,496.29 -208.79,647.11 -139.15,150.71 -338.64,226.17 -598.34,226.17 -259.81,0 -459.29,-75.46 -598.45,-226.17 -139.15,-150.82 -208.79,-367.23 -208.79,-649.47 0,-282.12 69.86,-497.64 209.35,-646.44 139.61,-148.8 339.65,-223.26 600.14,-223.26 260.59,0 459.85,75.02 597.89,224.94 137.92,150.03 206.99,365.66 206.99,647.12zm-1237.38 0l0 0c0,189.39 35.88,332.02 107.76,427.89 71.99,95.88 179.41,143.87 322.49,143.87 286.73,0 430.15,-190.63 430.15,-571.76 0,-381.93 -142.64,-572.89 -427.9,-572.89 -142.97,0 -250.84,48.11 -323.51,144.43 -72.66,96.21 -108.99,239.06 -108.99,428.46z"/>
  <path class="fil1" d="M28742.73 5784.88c0,280.66 -69.52,496.29 -208.79,647.11 -139.15,150.71 -338.53,226.17 -598.34,226.17 -259.81,0 -459.18,-75.46 -598.34,-226.17 -139.26,-150.82 -208.79,-367.23 -208.79,-649.47 0,-282.12 69.75,-497.64 209.35,-646.44 139.5,-148.8 339.54,-223.26 600.14,-223.26 260.48,0 459.74,75.02 597.78,224.94 138.03,150.03 206.99,365.66 206.99,647.12zm-1237.38 0l0 0c0,189.39 36,332.02 107.87,427.89 71.88,95.88 179.3,143.87 322.38,143.87 286.84,0 430.26,-190.63 430.26,-571.76 0,-381.93 -142.64,-572.89 -427.9,-572.89 -143.08,0 -250.95,48.11 -323.62,144.43 -72.66,96.21 -108.99,239.06 -108.99,428.46z"/>
  <path class="fil1" d="M29453.65 5984.36l0 650.59 -359.49 0 0 -1695.44 493.94 0c230.43,0 400.87,41.94 511.44,125.81 110.56,83.88 165.84,211.26 165.84,382.15 0,99.68 -27.47,188.38 -82.3,266.09 -54.95,77.71 -132.66,138.59 -233.13,182.66 255.1,381.14 421.4,627.38 498.66,738.73l-398.86 0 -404.8 -650.59 -191.3 0zm0 -292.22l0 0 115.95 0c113.59,0 197.46,-18.95 251.62,-56.85 54.16,-37.9 81.19,-97.44 81.19,-178.63 0,-80.4 -27.7,-137.58 -82.87,-171.56 -55.28,-34.09 -140.95,-51.02 -256.89,-51.02l-109 0 0 458.06z"/>
  <path class="fil1" d="M31305.64 5682.83l672.57 0 0 879.01c-109,35.55 -211.6,60.55 -307.81,74.79 -96.32,14.36 -194.66,21.53 -295.13,21.53 -256,0 -451.33,-75.24 -586.23,-225.61 -135.01,-150.37 -202.4,-366.22 -202.4,-647.67 0,-273.72 78.27,-487.11 234.81,-640.17 156.53,-153.06 373.62,-229.53 651.15,-229.53 174.03,0 341.78,34.76 503.36,104.28l-119.53 287.62c-123.68,-61.79 -252.41,-92.74 -386.07,-92.74 -155.42,0 -279.89,52.15 -373.52,156.54 -93.51,104.4 -140.27,244.68 -140.27,420.95 0,184.01 37.67,324.51 113.03,421.5 75.46,97.11 185.01,145.55 328.77,145.55 75.02,0 151.15,-7.62 228.52,-23.1l0 -353.78 -321.25 0 0 -299.17z"/>
  <path class="fil1" d="M33419.78 6634.95l-122.89 -403.56 -618.19 0 -122.9 403.56 -387.3 0 598.33 -1702.39 439.56 0 600.7 1702.39 -387.31 0zm-208.79 -705.09l0 0c-113.59,-365.66 -177.62,-572.55 -191.86,-620.43 -14.35,-47.99 -24.55,-85.78 -30.72,-113.7 -25.57,99.01 -98.68,343.69 -219.22,734.13l441.8 0z"/>
  <path class="fil1" d="M35524.51 6634.95l-456.83 0 -737.61 -1282.68 -10.42 0c14.69,226.62 21.97,388.2 21.97,484.75l0 797.93 -321.14 0 0 -1695.44 453.35 0 736.49 1269.79 8.07 0c-11.55,-220.34 -17.38,-376.1 -17.38,-467.37l0 -802.42 323.5 0 0 1695.44z"/>
  <polygon class="fil1" points="35951.29,6634.95 35951.29,4939.51 36310.78,4939.51 36310.78,6634.95 "/>
  <path class="fil1" d="M37457.79 5214.34c-135.35,0 -240.08,50.8 -314.31,152.51 -74.23,101.59 -111.35,243.32 -111.35,424.98 0,378.11 141.85,567.05 425.66,567.05 118.97,0 263.17,-29.71 432.49,-89.26l0 301.53c-139.15,57.97 -294.57,87.01 -466.13,87.01 -246.69,0 -435.3,-74.79 -565.93,-224.49 -130.75,-149.58 -196.01,-364.31 -196.01,-644.2 0,-176.27 32.07,-330.68 96.21,-463.22 64.25,-132.65 156.42,-234.24 276.63,-305 120.2,-70.75 261.04,-106.07 422.74,-106.07 164.61,0 330.12,39.8 496.3,119.42l-115.95 292.21c-63.47,-30.16 -127.16,-56.4 -191.41,-78.83 -64.14,-22.42 -127.16,-33.64 -188.94,-33.64z"/>
  <path class="fil1" d="M39588.08 5214.34c-135.34,0 -240.07,50.8 -314.31,152.51 -74.11,101.59 -111.23,243.32 -111.23,424.98 0,378.11 141.85,567.05 425.54,567.05 119.09,0 263.29,-29.71 432.61,-89.26l0 301.53c-139.16,57.97 -294.57,87.01 -466.25,87.01 -246.58,0 -435.3,-74.79 -565.93,-224.49 -130.63,-149.58 -196.01,-364.31 -196.01,-644.2 0,-176.27 32.07,-330.68 96.32,-463.22 64.14,-132.65 156.32,-234.24 276.52,-305 120.21,-70.75 261.16,-106.07 422.74,-106.07 164.73,0 330.12,39.8 496.3,119.42l-115.94 292.21c-63.36,-30.16 -127.16,-56.4 -191.3,-78.83 -64.25,-22.42 -127.16,-33.64 -189.06,-33.64z"/>
  <polygon class="fil1" points="41770.52,6634.95 41412.25,6634.95 41412.25,5903.18 40740.81,5903.18 40740.81,6634.95 40381.31,6634.95 40381.31,4939.51 40740.81,4939.51 40740.81,5604.01 41412.25,5604.01 41412.25,4939.51 41770.52,4939.51 "/>
  <polygon class="fil1" points="43174.98,6634.95 42198.53,6634.95 42198.53,4939.51 43174.98,4939.51 43174.98,5234.08 42558.03,5234.08 42558.03,5606.25 43132.03,5606.25 43132.03,5900.82 42558.03,5900.82 42558.03,6338.03 43174.98,6338.03 "/>
  <path class="fil1" d="M44246.52 6634.95l-408.17 -1330.23 -10.54 0c14.69,270.69 22.09,451.11 22.09,541.6l0 788.63 -321.26 0 0 -1695.44 489.46 0 401.21 1296.47 6.96 0 425.54 -1296.47 489.46 0 0 1695.44 -335.17 0 0 -802.53c0,-37.9 0.56,-81.52 1.69,-131.08 1.23,-49.45 6.39,-180.87 15.69,-394.26l-10.42 0 -437.21 1327.87 -329.33 0z"/>
  <polygon class="fil1" points="45768.04,6634.95 45768.04,4939.51 46127.54,4939.51 46127.54,6634.95 "/>
  <path class="fil1" d="M47554.99 6164.11c0,153.06 -55.06,273.71 -165.17,361.85 -110.23,88.14 -263.51,132.2 -459.86,132.2 -180.87,0 -340.99,-34.08 -480.15,-102.15l0 -333.93c114.49,51.02 211.26,87.02 290.54,107.87 79.27,20.86 151.71,31.29 217.42,31.29 78.83,0 139.38,-15.03 181.54,-45.19 42.05,-30.17 63.13,-75.02 63.13,-134.56 0,-33.19 -9.19,-62.8 -27.81,-88.7 -18.5,-25.9 -45.75,-50.79 -81.74,-74.79 -35.99,-24 -109.22,-62.23 -219.78,-114.82 -103.61,-48.67 -181.32,-95.54 -233.12,-140.28 -51.81,-44.86 -93.07,-97.11 -124.02,-156.65 -30.95,-59.43 -46.42,-129.07 -46.42,-208.68 0,-150.03 50.79,-267.89 152.5,-353.78 101.7,-85.78 242.2,-128.61 421.61,-128.61 88.14,0 172.13,10.42 252.19,31.28 80.06,20.86 163.71,50.24 251.07,88.14l-115.95 279.43c-90.49,-37.12 -165.28,-63.02 -224.38,-77.71 -59.2,-14.69 -117.4,-21.98 -174.59,-21.98 -68.06,0 -120.2,15.82 -156.53,47.55 -36.34,31.73 -54.5,73 -54.5,124.02 0,31.73 7.29,59.43 21.98,82.98 14.69,23.54 38.12,46.42 70.19,68.4 32.07,22.09 107.99,61.67 227.86,118.86 158.55,75.8 267.09,151.71 325.85,227.85 58.76,76.14 88.14,169.55 88.14,280.11z"/>
  <polygon class="fil1" points="48516.41,6634.95 48156.92,6634.95 48156.92,5238.68 47696.5,5238.68 47696.5,4939.51 48976.83,4939.51 48976.83,5238.68 48516.41,5238.68 "/>
  <path class="fil1" d="M49597.26 5984.36l0 650.59 -359.5 0 0 -1695.44 493.95 0c230.43,0 400.87,41.94 511.43,125.81 110.57,83.88 165.85,211.26 165.85,382.15 0,99.68 -27.48,188.38 -82.31,266.09 -54.94,77.71 -132.65,138.59 -233.12,182.66 255.1,381.14 421.39,627.38 498.65,738.73l-398.85 0 -404.8 -650.59 -191.3 0zm0 -292.22l0 0 115.94 0c113.59,0 197.47,-18.95 251.63,-56.85 54.16,-37.9 81.18,-97.44 81.18,-178.63 0,-80.4 -27.69,-137.58 -82.86,-171.56 -55.28,-34.09 -140.95,-51.02 -256.9,-51.02l-108.99 0 0 458.06z"/>
  <polygon class="fil1" points="51333.3,5637.65 51686.96,4939.51 52074.27,4939.51 51511.81,5975.05 51511.81,6634.95 51154.67,6634.95 51154.67,5986.71 50592.21,4939.51 50981.87,4939.51 "/>
  <g id="_105553180333184">
   <g>
    <path class="fil2" d="M3075.16 6232.4c-176.73,17.94 -315.91,162.89 -324.97,342.25 -0.33,6.1 -0.33,2417.77 -0.33,2417.77l-718.62 0c-0.32,-14.83 -1.15,-1760.76 -1.15,-1760.91 34.06,-255.48 278.53,-680.28 466.14,-824.89 118.85,-91.61 496.28,-204.98 574.49,-173.89 1.54,0.6 3.13,-0.17 4.44,-0.33z"/>
    <path class="fil3" d="M3476.72 7612.36c176.73,-17.96 315.91,-162.9 324.97,-342.27 0.33,-6.09 0.33,-2417.75 0.33,-2417.75l718.62 0c0.33,14.82 1.16,1760.74 1.16,1760.74 -71.17,661.49 -754.98,1032.13 -1040.64,998.95 -1.64,-0.19 -3.12,0.17 -4.44,0.33z"/>
    <path class="fil4" d="M1353.96 8333.46l0.67 -720.11c0,0 2117.98,-0.66 2122.09,-0.99 1.32,-0.16 2.8,-0.16 4.44,-0.33 85.49,-6.59 173.12,-27.34 259.42,-61.1 0.33,-0.17 0.5,-0.17 0.83,-0.33 52.71,-20.92 105.58,-46.78 156.64,-77.58 75.27,-45.3 147.41,-101.79 213.95,-168.34 162.08,-161.57 334.85,-429.38 398.76,-648.94 0,0 10.71,-41 11.04,-42.49l0 16.96 0.49 182.83 0.33 296.63 0 4.45 -0.33 0c-1.32,307.18 -117.44,613.86 -348.03,850.05 -3.46,3.96 -26.19,26.03 -33.6,33.11 -249.69,237.01 -575,348.36 -895.67,334.85 0,0 -1890.36,1.98 -1891.03,1.33z"/>
    <path class="fil5" d="M5197.92 5511.3l-0.66 720.1c0,0 -2124.9,1.16 -2126.54,1.33 -85.48,6.58 -173.11,27.34 -259.42,61.1 -0.33,0.16 -0.49,0.16 -0.82,0.33 -52.7,20.92 -105.58,46.78 -156.64,77.58 -75.27,45.29 -147.41,101.79 -213.96,168.34 -162.07,161.57 -334.85,429.38 -398.75,648.92 0,0 -10.71,41.02 -11.04,42.51l-0.49 -199.8 -0.33 -301.07 0.33 0c1.32,-307.18 117.43,-613.88 348.02,-850.06 3.46,-3.95 26.19,-26.03 33.6,-33.11 249.71,-237.02 575,-348.36 895.69,-334.85 0,0 1890.35,-1.98 1891.01,-1.32z"/>
   </g>
  </g>
 </g>
</svg>
