<?xml version="1.0" encoding="UTF-8" standalone="no"?>
<!-- Creator: CorelDRAW X8 -->

<svg
   xml:space="preserve"
   width="532.73755"
   height="75"
   version="1.1"
   style="clip-rule:evenodd;fill-rule:evenodd;image-rendering:optimizeQuality;shape-rendering:geometricPrecision;text-rendering:geometricPrecision"
   viewBox="0 0 10423.077 1466.973"
   id="svg28"
   sodipodi:docname="ichb_wide_color_eng_adjusted.svg"
   inkscape:version="1.3 (0e150ed6c4, 2023-07-21)"
   xmlns:inkscape="http://www.inkscape.org/namespaces/inkscape"
   xmlns:sodipodi="http://sodipodi.sourceforge.net/DTD/sodipodi-0.dtd"
   xmlns:xlink="http://www.w3.org/1999/xlink"
   xmlns="http://www.w3.org/2000/svg"
   xmlns:svg="http://www.w3.org/2000/svg"><sodipodi:namedview
   id="namedview28"
   pagecolor="#ffffff"
   bordercolor="#000000"
   borderopacity="0.25"
   inkscape:showpageshadow="2"
   inkscape:pageopacity="0.0"
   inkscape:pagecheckerboard="0"
   inkscape:deskcolor="#d1d1d1"
   inkscape:document-units="px"
   inkscape:zoom="3.370615"
   inkscape:cx="155.01622"
   inkscape:cy="38.865311"
   inkscape:window-width="1958"
   inkscape:window-height="1360"
   inkscape:window-x="188"
   inkscape:window-y="0"
   inkscape:window-maximized="0"
   inkscape:current-layer="Warstwa_x0020_1" />&#10; <defs
   id="defs6">&#10;  <style
   type="text/css"
   id="style1">&#10;   <![CDATA[
    .fil0 {fill:#333A71;fill-rule:nonzero}
    .fil1 {fill:#333B72;fill-rule:nonzero}
    .fil2 {fill:url(#id0);fill-rule:nonzero}
    .fil3 {fill:url(#id1);fill-rule:nonzero}
    .fil4 {fill:url(#id2);fill-rule:nonzero}
    .fil5 {fill:url(#id3);fill-rule:nonzero}
   ]]>&#10;  </style>&#10;  <linearGradient
   id="id0"
   gradientUnits="userSpaceOnUse"
   x1="440.55399"
   y1="514.91602"
   x2="440.55399"
   y2="1522.27">&#10;   <stop
   offset="0"
   style="stop-opacity:1; stop-color:#333B72"
   id="stop1" />&#10;   <stop
   offset="0.988235"
   style="stop-opacity:1; stop-color:#8589C2"
   id="stop2" />&#10;   <stop
   offset="1"
   style="stop-opacity:1; stop-color:#8589C2"
   id="stop3" />&#10;  </linearGradient>&#10;  <linearGradient
   id="id1"
   gradientUnits="userSpaceOnUse"
   x1="972.65503"
   y1="1004.22"
   x2="972.65503"
   y2="-0.12571">&#10;   <stop
   offset="0"
   style="stop-opacity:1; stop-color:#FECA1F"
   id="stop4" />&#10;   <stop
   offset="0.988235"
   style="stop-opacity:1; stop-color:#D87F23"
   id="stop5" />&#10;   <stop
   offset="1"
   style="stop-opacity:1; stop-color:#D87F23"
   id="stop6" />&#10;  </linearGradient>&#10;  <linearGradient
   id="id2"
   gradientUnits="userSpaceOnUse"
   xlink:href="#id1"
   x1="3.68256"
   y1="961.48901"
   x2="1136.3"
   y2="961.48901">&#10;  </linearGradient>&#10;  <linearGradient
   id="id3"
   gradientUnits="userSpaceOnUse"
   xlink:href="#id0"
   x1="1411.36"
   y1="560.659"
   x2="398.25699"
   y2="560.659">&#10;  </linearGradient>&#10; <linearGradient
   inkscape:collect="always"
   xlink:href="#id0"
   id="linearGradient31"
   gradientUnits="userSpaceOnUse"
   x1="440.55399"
   y1="514.91602"
   x2="440.55399"
   y2="1522.27" /><linearGradient
   inkscape:collect="always"
   xlink:href="#id1"
   id="linearGradient32"
   gradientUnits="userSpaceOnUse"
   x1="972.65503"
   y1="1004.22"
   x2="972.65503"
   y2="-0.12571" /></defs>&#10; <g
   id="Warstwa_x0020_1"
   inkscape:label="Warstwa 1"
   inkscape:groupmode="layer">&#10;  <metadata
   id="CorelCorpID_0Corel-Layer" />&#10;  <g
   id="_2130212037280"
   transform="scale(0.96411592)">&#10;   <g
   id="g25">&#10;    <g
   id="g6">&#10;     <path
   class="fil0"
   d="m 1778,786 c 35,0 61,7 77,22 15,14 23,34 23,59 0,12 -1,23 -5,34 -4,10 -9,19 -18,27 -8,9 -19,15 -32,20 -14,4 -30,6 -50,6 h -29 v 102 h -44 V 786 Z m -3,37 h -31 v 95 h 25 c 14,0 25,-2 35,-5 9,-3 17,-9 22,-16 5,-7 7,-16 7,-28 0,-15 -4,-27 -13,-35 -10,-7 -25,-11 -45,-11 z"
   id="path6" />&#10;     <path
   id="_1"
   class="fil0"
   d="m 2108,953 c 0,17 -2,32 -6,45 -5,13 -11,24 -20,33 -8,9 -19,16 -30,21 -12,5 -26,7 -41,7 -14,0 -26,-2 -38,-7 -12,-5 -22,-12 -31,-21 -8,-9 -15,-20 -19,-33 -5,-13 -7,-28 -7,-45 0,-22 4,-42 11,-57 8,-16 20,-28 34,-36 14,-8 32,-12 52,-12 18,0 35,4 49,12 15,8 26,20 34,36 8,16 12,35 12,57 z m -148,0 c 0,15 2,28 6,38 3,11 9,19 17,25 7,5 17,8 29,8 12,0 22,-3 30,-8 7,-6 13,-14 16,-25 4,-10 5,-23 5,-38 0,-15 -1,-27 -5,-38 -3,-10 -9,-18 -16,-24 -8,-5 -18,-8 -30,-8 -18,0 -31,6 -39,18 -9,12 -13,30 -13,52 z" />&#10;     <polygon
   id="_2"
   class="fil0"
   points="2201,769 2201,1056 2158,1056 2158,769 " />&#10;     <path
   id="_3"
   class="fil0"
   d="m 2306,851 v 205 h -43 V 851 Z m -21,-78 c 7,0 12,2 17,6 5,3 7,9 7,18 0,9 -2,15 -7,19 -5,3 -10,5 -17,5 -7,0 -13,-2 -17,-5 -5,-4 -8,-10 -8,-19 0,-9 3,-15 8,-18 4,-4 10,-6 17,-6 z" />&#10;     <path
   id="_4"
   class="fil0"
   d="m 2505,997 c 0,14 -3,25 -10,34 -6,9 -15,16 -28,21 -12,5 -27,7 -46,7 -14,0 -26,-1 -37,-3 -10,-2 -20,-5 -29,-9 v -37 c 10,4 21,8 33,11 12,4 24,5 35,5 14,0 24,-2 30,-6 7,-5 10,-11 10,-18 0,-5 -2,-9 -4,-12 -2,-4 -7,-7 -14,-11 -7,-4 -17,-8 -30,-14 -13,-5 -24,-10 -32,-15 -9,-5 -16,-11 -21,-19 -4,-7 -7,-17 -7,-28 0,-18 8,-32 22,-41 14,-9 33,-14 57,-14 12,0 24,1 35,3 11,3 22,7 33,11 l -14,33 c -9,-4 -18,-7 -27,-10 -10,-3 -19,-4 -29,-4 -11,0 -19,2 -25,5 -6,4 -9,8 -9,15 0,5 2,9 4,12 3,3 8,7 15,10 7,4 17,8 29,13 12,4 23,9 32,14 8,5 15,11 20,19 5,7 7,17 7,28 z" />&#10;     <path
   id="_5"
   class="fil0"
   d="m 2595,769 v 72 c 0,7 0,15 0,22 -1,7 -1,13 -2,16 h 3 c 4,-7 9,-12 15,-17 7,-5 14,-8 22,-11 7,-2 15,-3 25,-3 15,0 28,3 39,8 11,5 19,13 25,24 6,11 9,25 9,42 v 134 h -43 V 931 c 0,-16 -3,-28 -10,-36 -7,-8 -16,-12 -30,-12 -13,0 -24,3 -31,8 -8,6 -13,14 -17,25 -3,10 -5,23 -5,38 v 102 h -43 V 769 Z" />&#10;     <path
   id="_6"
   class="fil0"
   d="m 3061,1056 -27,-75 h -103 l -26,75 h -46 l 100,-271 h 49 l 100,271 z m -38,-113 -26,-74 c 0,-3 -2,-8 -4,-13 -2,-6 -3,-12 -5,-18 -2,-7 -4,-11 -5,-16 -1,5 -3,11 -4,17 -2,6 -4,12 -6,18 -1,5 -2,9 -3,12 l -26,74 z" />&#10;     <path
   id="_7"
   class="fil0"
   d="m 3221,1059 c -19,0 -36,-3 -50,-11 -14,-8 -25,-19 -32,-34 -8,-16 -12,-35 -12,-60 0,-24 4,-44 12,-60 9,-16 20,-27 35,-35 15,-8 32,-11 51,-11 12,0 23,1 33,3 10,3 19,6 25,9 l -12,35 c -8,-3 -16,-6 -23,-8 -8,-2 -16,-3 -23,-3 -12,0 -22,3 -30,8 -8,5 -14,13 -18,23 -3,11 -6,24 -6,39 0,15 3,28 6,38 4,10 10,18 18,23 8,5 17,8 28,8 12,0 22,-1 31,-4 8,-3 17,-6 25,-11 v 38 c -8,5 -16,8 -25,10 -9,2 -20,3 -33,3 z" />&#10;     <path
   id="_8"
   class="fil0"
   d="m 3406,848 c 26,0 46,5 59,17 13,11 19,29 19,53 v 138 h -30 l -9,-30 h -1 c -6,8 -12,14 -18,19 -6,5 -13,8 -21,11 -8,2 -18,3 -30,3 -12,0 -23,-2 -32,-6 -10,-5 -17,-12 -23,-21 -5,-9 -8,-21 -8,-35 0,-21 8,-37 23,-47 16,-11 40,-17 71,-18 l 36,-1 v -11 c 0,-14 -4,-24 -10,-30 -7,-6 -16,-9 -28,-9 -10,0 -20,1 -29,4 -10,3 -19,7 -28,11 l -14,-30 c 9,-5 21,-10 34,-13 12,-3 25,-5 39,-5 z m 36,110 -27,1 c -21,1 -37,4 -45,11 -9,7 -13,16 -13,27 0,10 3,18 9,22 6,5 13,7 24,7 14,0 27,-4 37,-13 10,-8 15,-20 15,-37 z" />&#10;     <path
   id="_9"
   class="fil0"
   d="m 3614,1059 c -25,0 -44,-9 -59,-26 -14,-18 -22,-44 -22,-79 0,-35 8,-61 23,-79 14,-18 34,-27 58,-27 11,0 20,1 28,4 7,3 14,6 20,11 5,5 10,10 14,16 h 2 c -1,-4 -1,-9 -2,-17 -1,-7 -2,-14 -2,-20 v -73 h 44 v 287 h -34 l -8,-28 h -2 c -3,6 -8,11 -14,16 -5,4 -12,8 -19,11 -8,3 -17,4 -27,4 z m 12,-35 c 18,0 31,-5 39,-16 8,-11 12,-27 12,-48 v -6 c 0,-23 -4,-40 -11,-52 -8,-12 -21,-19 -41,-19 -15,0 -27,7 -35,19 -8,13 -12,30 -12,53 0,22 4,39 12,51 8,12 20,18 36,18 z" />&#10;     <path
   id="_10"
   class="fil0"
   d="m 3861,848 c 18,0 34,3 47,11 13,8 23,18 30,32 7,14 11,30 11,49 v 23 h -137 c 1,20 6,36 16,46 10,11 25,16 43,16 13,0 25,-1 35,-4 10,-2 21,-6 32,-11 v 35 c -10,5 -20,9 -31,11 -11,2 -23,3 -38,3 -20,0 -37,-4 -53,-11 -15,-8 -27,-20 -35,-35 -9,-16 -13,-35 -13,-58 0,-23 4,-42 12,-58 7,-16 18,-28 32,-37 14,-8 30,-12 49,-12 z m 0,33 c -14,0 -25,4 -33,13 -9,8 -13,22 -15,39 h 93 c 0,-11 -2,-20 -5,-28 -3,-8 -8,-14 -15,-18 -6,-4 -15,-6 -25,-6 z" />&#10;     <path
   id="_11"
   class="fil0"
   d="m 4228,848 c 22,0 40,6 51,17 12,12 18,31 18,57 v 134 h -44 V 930 c 0,-16 -3,-27 -9,-35 -6,-8 -15,-12 -27,-12 -17,0 -30,6 -37,17 -8,11 -12,27 -12,47 v 109 h -43 V 930 c 0,-10 -1,-19 -4,-26 -2,-7 -6,-12 -12,-16 -5,-3 -12,-5 -20,-5 -12,0 -22,3 -29,8 -7,6 -12,14 -15,24 -3,11 -4,24 -4,39 v 102 h -44 V 851 h 34 l 6,28 h 2 c 5,-7 10,-13 16,-17 6,-5 13,-9 21,-11 7,-2 15,-3 23,-3 16,0 28,2 39,8 10,5 18,13 23,24 h 4 c 6,-11 15,-19 26,-24 12,-6 24,-8 37,-8 z" />&#10;     <path
   id="_12"
   class="fil0"
   d="m 4326,851 h 47 l 42,117 c 2,5 4,11 6,15 1,6 2,11 3,16 2,4 3,9 3,14 h 1 c 2,-6 3,-13 6,-21 2,-8 5,-16 7,-24 l 41,-117 h 46 l -87,232 c -5,14 -11,25 -19,34 -7,10 -16,17 -26,22 -10,5 -21,7 -34,7 -6,0 -11,0 -16,-1 -4,0 -8,-1 -11,-2 v -35 c 2,1 5,1 9,2 4,1 8,1 12,1 8,0 15,-2 20,-5 6,-3 11,-7 15,-13 4,-5 7,-12 10,-19 l 7,-19 z" />&#10;     <path
   id="_13"
   class="fil0"
   d="m 4838,953 c 0,17 -3,32 -7,45 -5,13 -11,24 -19,33 -9,9 -19,16 -31,21 -12,5 -25,7 -40,7 -14,0 -27,-2 -39,-7 -11,-5 -22,-12 -30,-21 -9,-9 -15,-20 -20,-33 -5,-13 -7,-28 -7,-45 0,-22 4,-42 12,-57 8,-16 19,-28 33,-36 15,-8 32,-12 52,-12 19,0 35,4 50,12 14,8 25,20 33,36 9,16 13,35 13,57 z m -149,0 c 0,15 2,28 6,38 4,11 9,19 17,25 8,5 17,8 30,8 12,0 21,-3 29,-8 8,-6 13,-14 17,-25 3,-10 5,-23 5,-38 0,-15 -2,-27 -5,-38 -4,-10 -9,-18 -17,-24 -8,-5 -18,-8 -30,-8 -18,0 -31,6 -39,18 -8,12 -13,30 -13,52 z" />&#10;     <path
   id="_14"
   class="fil0"
   d="m 4989,885 h -49 v 171 h -44 V 885 h -33 v -21 l 33,-13 v -14 c 0,-17 3,-31 9,-41 5,-11 13,-18 23,-22 10,-5 23,-7 37,-7 9,0 18,1 25,2 8,2 15,4 20,6 l -11,32 c -5,-1 -9,-2 -14,-3 -5,-2 -11,-2 -17,-2 -10,0 -17,3 -21,9 -5,6 -7,15 -7,27 v 13 h 49 z" />&#10;     <path
   id="_15"
   class="fil0"
   d="m 5282,982 c 0,16 -4,30 -12,41 -8,12 -19,21 -34,27 -14,6 -32,9 -52,9 -9,0 -19,0 -28,-2 -9,-1 -17,-2 -25,-4 -8,-2 -15,-5 -22,-8 v -42 c 11,5 23,9 37,13 14,4 27,6 41,6 12,0 21,-2 29,-5 7,-3 13,-7 16,-12 4,-6 6,-12 6,-20 0,-8 -2,-15 -6,-20 -5,-6 -11,-11 -20,-15 -8,-5 -19,-10 -32,-15 -9,-4 -17,-8 -26,-13 -8,-4 -15,-9 -21,-15 -6,-7 -11,-14 -15,-22 -4,-9 -5,-18 -5,-30 0,-15 3,-28 11,-39 7,-11 17,-19 31,-25 13,-6 28,-9 46,-9 14,0 28,2 40,5 12,3 25,7 37,12 l -14,36 c -11,-5 -22,-8 -32,-11 -11,-3 -21,-4 -32,-4 -10,0 -17,1 -24,4 -6,3 -11,7 -15,12 -3,5 -5,11 -5,18 0,8 2,15 6,20 4,5 10,10 18,15 8,4 19,9 32,15 15,6 27,12 38,19 10,7 18,14 23,24 6,9 9,21 9,35 z" />&#10;     <path
   id="_16"
   class="fil0"
   d="m 5411,1059 c -19,0 -36,-3 -50,-11 -14,-8 -25,-19 -32,-34 -8,-16 -12,-35 -12,-60 0,-24 4,-44 13,-60 8,-16 20,-27 35,-35 14,-8 31,-11 51,-11 12,0 23,1 32,3 10,3 19,6 26,9 l -13,35 c -8,-3 -16,-6 -23,-8 -8,-2 -16,-3 -23,-3 -12,0 -22,3 -30,8 -8,5 -14,13 -17,23 -4,11 -6,24 -6,39 0,15 2,28 6,38 3,10 9,18 17,23 8,5 17,8 29,8 11,0 21,-1 30,-4 9,-3 17,-6 25,-11 v 38 c -8,5 -16,8 -25,10 -9,2 -20,3 -33,3 z" />&#10;     <path
   id="_17"
   class="fil0"
   d="m 5560,851 v 205 h -44 V 851 Z m -22,-78 c 7,0 13,2 18,6 5,3 7,9 7,18 0,9 -2,15 -7,19 -5,3 -11,5 -18,5 -6,0 -12,-2 -17,-5 -5,-4 -7,-10 -7,-19 0,-9 2,-15 7,-18 5,-4 11,-6 17,-6 z" />&#10;     <path
   id="_18"
   class="fil0"
   d="m 5703,848 c 18,0 34,3 47,11 13,8 23,18 30,32 7,14 10,30 10,49 v 23 h -136 c 0,20 6,36 16,46 10,11 24,16 43,16 13,0 24,-1 35,-4 10,-2 21,-6 32,-11 v 35 c -10,5 -21,9 -31,11 -11,2 -24,3 -38,3 -20,0 -38,-4 -53,-11 -15,-8 -27,-20 -36,-35 -8,-16 -12,-35 -12,-58 0,-23 4,-42 11,-58 8,-16 19,-28 33,-37 14,-8 30,-12 49,-12 z m 0,33 c -14,0 -25,4 -33,13 -9,8 -14,22 -15,39 h 93 c 0,-11 -2,-20 -5,-28 -4,-8 -9,-14 -15,-18 -6,-4 -15,-6 -25,-6 z" />&#10;     <path
   id="_19"
   class="fil0"
   d="m 5945,848 c 23,0 41,6 54,17 13,12 19,31 19,57 v 134 h -43 V 931 c 0,-16 -3,-28 -10,-36 -6,-8 -16,-12 -30,-12 -20,0 -33,6 -41,18 -8,13 -12,30 -12,53 v 102 h -43 V 851 h 34 l 6,28 h 2 c 5,-7 10,-13 17,-17 6,-5 13,-8 22,-11 8,-2 16,-3 25,-3 z" />&#10;     <path
   id="_20"
   class="fil0"
   d="m 6161,1059 c -19,0 -36,-3 -50,-11 -14,-8 -25,-19 -33,-34 -8,-16 -11,-35 -11,-60 0,-24 4,-44 12,-60 9,-16 20,-27 35,-35 15,-8 32,-11 51,-11 12,0 23,1 33,3 10,3 18,6 25,9 l -13,35 c -7,-3 -15,-6 -23,-8 -8,-2 -15,-3 -22,-3 -12,0 -22,3 -30,8 -8,5 -14,13 -18,23 -4,11 -6,24 -6,39 0,15 2,28 6,38 4,10 10,18 18,23 7,5 17,8 28,8 11,0 21,-1 30,-4 9,-3 17,-6 25,-11 v 38 c -7,5 -16,8 -25,10 -8,2 -19,3 -32,3 z" />&#10;     <path
   id="_21"
   class="fil0"
   d="m 6347,848 c 19,0 34,3 47,11 13,8 23,18 30,32 7,14 11,30 11,49 v 23 h -137 c 1,20 6,36 16,46 10,11 25,16 43,16 13,0 25,-1 35,-4 11,-2 21,-6 32,-11 v 35 c -10,5 -20,9 -31,11 -10,2 -23,3 -38,3 -20,0 -37,-4 -53,-11 -15,-8 -27,-20 -35,-35 -9,-16 -13,-35 -13,-58 0,-23 4,-42 12,-58 8,-16 18,-28 32,-37 14,-8 31,-12 49,-12 z m 0,33 c -13,0 -24,4 -33,13 -8,8 -13,22 -15,39 h 93 c 0,-11 -2,-20 -5,-28 -3,-8 -8,-14 -15,-18 -6,-4 -15,-6 -25,-6 z" />&#10;     <path
   id="_22"
   class="fil0"
   d="m 6620,997 c 0,14 -3,25 -10,34 -6,9 -15,16 -28,21 -12,5 -27,7 -45,7 -15,0 -27,-1 -37,-3 -11,-2 -20,-5 -30,-9 v -37 c 10,4 21,8 33,11 12,4 24,5 35,5 14,0 24,-2 31,-6 6,-5 9,-11 9,-18 0,-5 -2,-9 -4,-12 -2,-4 -7,-7 -14,-11 -7,-4 -17,-8 -30,-14 -13,-5 -24,-10 -32,-15 -9,-5 -16,-11 -21,-19 -4,-7 -7,-17 -7,-28 0,-18 8,-32 22,-41 14,-9 33,-14 57,-14 12,0 24,1 35,3 11,3 22,7 33,11 l -14,33 c -9,-4 -18,-7 -27,-10 -10,-3 -19,-4 -29,-4 -11,0 -19,2 -25,5 -6,4 -9,8 -9,15 0,5 2,9 4,12 3,3 8,7 15,10 7,4 17,8 29,13 12,4 23,9 32,14 8,5 16,11 20,19 5,7 7,17 7,28 z" />&#10;    </g>&#10;    <polygon
   class="fil1"
   points="1767,720 1695,720 1695,382 1767,382 "
   id="polygon6" />&#10;    <path
   class="fil1"
   d="m 2153,720 h -91 L 1914,464 h -2 c 3,45 4,78 4,97 v 159 h -64 V 382 h 91 l 147,253 h 2 c -3,-44 -4,-75 -4,-93 V 382 h 65 z"
   id="path7" />&#10;    <path
   class="fil1"
   d="m 2438,626 c 0,31 -11,55 -33,73 -22,17 -53,26 -92,26 -36,0 -68,-7 -96,-20 v -67 c 23,10 42,17 58,22 16,4 31,6 44,6 16,0 28,-3 36,-9 8,-6 13,-15 13,-27 0,-7 -2,-13 -6,-18 -4,-5 -9,-10 -16,-15 -7,-5 -22,-12 -44,-23 -21,-9 -36,-19 -47,-28 -10,-9 -18,-19 -25,-31 -6,-12 -9,-26 -9,-42 0,-30 10,-53 31,-70 20,-18 48,-26 84,-26 18,0 34,2 50,6 16,4 33,10 50,18 l -23,56 c -18,-8 -33,-13 -45,-16 -11,-3 -23,-4 -34,-4 -14,0 -24,3 -32,9 -7,6 -11,15 -11,25 0,6 2,12 5,16 3,5 7,10 14,14 6,5 21,12 45,24 32,15 54,30 65,45 12,16 18,34 18,56 z"
   id="path8" />&#10;    <polygon
   class="fil1"
   points="2630,441 2630,720 2558,720 2558,441 2466,441 2466,382 2722,382 2722,441 "
   id="polygon8" />&#10;    <polygon
   class="fil1"
   points="2846,720 2774,720 2774,382 2846,382 "
   id="polygon9" />&#10;    <polygon
   class="fil1"
   points="3062,441 3062,720 2990,720 2990,441 2898,441 2898,382 3154,382 3154,441 "
   id="polygon10" />&#10;    <path
   class="fil1"
   d="m 3482,382 v 219 c 0,25 -6,47 -17,66 -11,19 -27,33 -48,43 -21,10 -46,15 -75,15 -44,0 -78,-11 -102,-33 -24,-23 -36,-53 -36,-92 V 382 h 72 v 207 c 0,26 5,45 15,58 11,12 28,18 53,18 23,0 40,-6 51,-19 10,-12 15,-31 15,-57 V 382 Z"
   id="path10" />&#10;    <polygon
   class="fil1"
   points="3696,441 3696,720 3624,720 3624,441 3532,441 3532,382 3788,382 3788,441 "
   id="polygon11" />&#10;    <polygon
   class="fil1"
   points="4035,661 4035,720 3840,720 3840,382 4035,382 4035,441 3912,441 3912,515 4026,515 4026,574 3912,574 3912,661 "
   id="polygon12" />&#10;    <path
   class="fil1"
   d="m 4536,551 c 0,56 -13,99 -41,129 -28,30 -68,45 -120,45 -52,0 -92,-15 -119,-45 -28,-30 -42,-73 -42,-130 0,-56 14,-99 42,-129 28,-30 68,-45 120,-45 52,0 92,15 119,45 28,30 41,73 41,130 z m -247,0 v 0 c 0,37 7,66 22,85 14,19 36,29 64,29 58,0 86,-38 86,-114 0,-77 -28,-115 -85,-115 -29,0 -50,10 -65,29 -15,19 -22,48 -22,86 z"
   id="path12" />&#10;    <polygon
   class="fil1"
   points="4801,382 4801,441 4677,441 4677,528 4792,528 4792,587 4677,587 4677,720 4607,720 4607,382 "
   id="polygon13" />&#10;    <path
   class="fil1"
   d="m 4990,382 h 106 c 48,0 83,7 105,20 21,14 32,36 32,65 0,21 -5,37 -14,50 -10,13 -22,21 -38,24 v 2 c 21,5 37,14 46,27 10,13 15,30 15,52 0,31 -11,55 -34,73 -22,17 -52,25 -91,25 h -127 z m 72,134 v 0 h 42 c 19,0 34,-3 42,-9 9,-6 13,-16 13,-30 0,-13 -4,-22 -14,-28 -9,-6 -24,-8 -45,-8 h -38 z m 0,57 v 0 88 h 47 c 20,0 34,-4 44,-11 9,-8 14,-19 14,-35 0,-28 -20,-42 -60,-42 z"
   id="path13" />&#10;    <polygon
   class="fil1"
   points="5381,720 5309,720 5309,382 5381,382 "
   id="polygon14" />&#10;    <path
   class="fil1"
   d="m 5774,551 c 0,56 -14,99 -42,129 -28,30 -67,45 -119,45 -52,0 -92,-15 -120,-45 -28,-30 -42,-73 -42,-130 0,-56 14,-99 42,-129 28,-30 68,-45 120,-45 52,0 92,15 120,45 27,30 41,73 41,130 z m -247,0 v 0 c 0,37 7,66 21,85 15,19 36,29 65,29 57,0 86,-38 86,-114 0,-77 -29,-115 -86,-115 -28,0 -50,10 -65,29 -14,19 -21,48 -21,86 z"
   id="path14" />&#10;    <path
   class="fil1"
   d="m 6152,551 c 0,56 -14,99 -42,129 -28,30 -68,45 -120,45 -52,0 -91,-15 -119,-45 -28,-30 -42,-73 -42,-130 0,-56 14,-99 42,-129 28,-30 68,-45 120,-45 52,0 92,15 119,45 28,30 42,73 42,130 z m -248,0 v 0 c 0,37 8,66 22,85 14,19 36,29 64,29 58,0 86,-38 86,-114 0,-77 -28,-115 -85,-115 -29,0 -50,10 -65,29 -14,19 -22,48 -22,86 z"
   id="path15" />&#10;    <path
   class="fil1"
   d="m 6294,590 v 130 h -72 V 382 h 99 c 46,0 80,8 102,25 22,17 33,42 33,76 0,20 -6,38 -16,53 -11,16 -27,28 -47,37 51,76 84,125 100,147 h -80 l -81,-130 z m 0,-58 v 0 h 23 c 23,0 39,-4 50,-11 11,-8 16,-20 16,-36 0,-16 -5,-27 -16,-34 -11,-7 -28,-10 -51,-10 h -22 z"
   id="path16" />&#10;    <path
   class="fil1"
   d="m 6664,530 h 134 v 176 c -22,7 -42,12 -61,15 -20,3 -39,4 -59,4 -51,0 -90,-15 -117,-45 -27,-30 -41,-73 -41,-129 0,-55 16,-98 47,-128 31,-31 75,-46 130,-46 35,0 69,7 101,21 l -24,57 c -25,-12 -51,-18 -77,-18 -31,0 -56,10 -75,31 -19,21 -28,49 -28,84 0,37 8,65 23,84 15,20 37,29 65,29 15,0 31,-1 46,-4 v -71 h -64 z"
   id="path17" />&#10;    <path
   class="fil1"
   d="m 7086,720 -24,-80 h -124 l -24,80 h -78 l 120,-340 h 88 l 120,340 z m -41,-140 v 0 c -23,-73 -36,-115 -39,-124 -3,-10 -5,-18 -6,-23 -5,20 -20,69 -44,147 z"
   id="path18" />&#10;    <path
   class="fil1"
   d="m 7507,720 h -91 L 7268,464 h -2 c 3,45 5,78 5,97 v 159 h -65 V 382 h 91 l 147,253 h 2 c -3,-44 -4,-75 -4,-93 V 382 h 65 z"
   id="path19" />&#10;    <polygon
   class="fil1"
   points="7664,720 7592,720 7592,382 7664,382 "
   id="polygon19" />&#10;    <path
   class="fil1"
   d="m 7893,437 c -27,0 -48,10 -63,30 -14,20 -22,49 -22,85 0,76 29,113 85,113 24,0 53,-6 87,-18 v 61 c -28,11 -59,17 -94,17 -49,0 -86,-15 -113,-45 -26,-30 -39,-73 -39,-128 0,-36 7,-67 19,-93 13,-27 32,-47 56,-61 24,-14 52,-21 84,-21 33,0 66,8 99,24 l -23,58 c -12,-6 -25,-11 -38,-16 -13,-4 -25,-6 -38,-6 z"
   id="path20" />&#10;    <path
   class="fil1"
   d="m 8319,437 c -27,0 -48,10 -63,30 -15,20 -22,49 -22,85 0,76 28,113 85,113 24,0 53,-6 86,-18 v 61 c -27,11 -58,17 -93,17 -49,0 -87,-15 -113,-45 -26,-30 -39,-73 -39,-128 0,-36 6,-67 19,-93 13,-27 31,-47 55,-61 24,-14 53,-21 85,-21 33,0 66,8 99,24 l -23,58 c -13,-6 -25,-11 -38,-16 -13,-4 -26,-6 -38,-6 z"
   id="path21" />&#10;    <polygon
   class="fil1"
   points="8755,382 8755,720 8683,720 8683,574 8549,574 8549,720 8477,720 8477,382 8549,382 8549,514 8683,514 8683,382 "
   id="polygon21" />&#10;    <polygon
   class="fil1"
   points="9036,661 9036,720 8841,720 8841,382 9036,382 9036,441 8912,441 8912,515 9027,515 9027,574 8912,574 8912,661 "
   id="polygon22" />&#10;    <path
   class="fil1"
   d="m 9250,720 -82,-265 h -2 c 3,54 5,90 5,108 v 157 h -65 V 382 h 98 l 80,259 h 2 l 85,-259 h 98 v 338 h -67 V 560 c 0,-7 0,-16 0,-26 0,-10 1,-36 3,-79 h -2 l -87,265 z"
   id="path22" />&#10;    <polygon
   class="fil1"
   points="9626,720 9554,720 9554,382 9626,382 "
   id="polygon23" />&#10;    <path
   class="fil1"
   d="m 9911,626 c 0,31 -11,55 -33,73 -22,17 -53,26 -92,26 -36,0 -68,-7 -96,-20 v -67 c 23,10 42,17 58,22 16,4 30,6 44,6 15,0 27,-3 36,-9 8,-6 12,-15 12,-27 0,-7 -1,-13 -5,-18 -4,-5 -9,-10 -16,-15 -8,-5 -22,-12 -44,-23 -21,-9 -37,-19 -47,-28 -10,-9 -18,-19 -25,-31 -6,-12 -9,-26 -9,-42 0,-30 10,-53 31,-70 20,-18 48,-26 84,-26 17,0 34,2 50,6 16,4 33,10 50,18 l -23,56 c -18,-8 -33,-13 -45,-16 -12,-3 -23,-4 -35,-4 -13,0 -24,3 -31,9 -7,6 -11,15 -11,25 0,6 2,12 5,16 3,5 7,10 14,14 6,5 21,12 45,24 32,15 54,30 65,45 12,16 18,34 18,56 z"
   id="path23" />&#10;    <polygon
   class="fil1"
   points="10103,441 10103,720 10031,720 10031,441 9939,441 9939,382 10195,382 10195,441 "
   id="polygon24" />&#10;    <path
   class="fil1"
   d="m 10319,590 v 130 h -72 V 382 h 99 c 46,0 80,8 102,25 22,17 33,42 33,76 0,20 -5,38 -16,53 -11,16 -27,28 -47,37 51,76 84,125 100,147 h -80 l -81,-130 z m 0,-58 v 0 h 23 c 23,0 40,-4 50,-11 11,-8 17,-20 17,-36 0,-16 -6,-27 -17,-34 -11,-7 -28,-10 -51,-10 h -22 z"
   id="path24" />&#10;    <polygon
   class="fil1"
   points="10630,720 10630,591 10518,382 10596,382 10666,521 10737,382 10814,382 10702,589 10702,720 "
   id="polygon25" />&#10;   </g>&#10;   <g
   id="_105553180333184">&#10;    <g
   id="g28">&#10;     <path
   class="fil2"
   d="m 633,507 c -65,7 -116,60 -120,126 0,3 0,889 0,889 H 249 c 0,-5 0,-647 0,-647 12,-94 102,-250 171,-303 44,-34 183,-76 211,-64 1,0 1,0 2,-1 z"
   id="path25"
   style="fill:url(#linearGradient31)" />&#10;     <path
   class="fil3"
   d="m 781,1015 c 65,-7 116,-60 119,-126 0,-2 0,-889 0,-889 h 264 c 1,5 1,647 1,647 -26,244 -278,380 -383,368 z"
   id="path26"
   style="fill:url(#linearGradient32)" />&#10;     <path
   class="fil4"
   d="m 0,1280 v -265 c 0,0 779,0 781,0 0,0 1,0 1,0 32,-3 64,-10 96,-23 0,0 0,0 0,0 19,-7 39,-17 58,-28 27,-17 54,-38 78,-62 60,-60 123,-158 147,-239 0,0 4,-15 4,-15 v 6 67 109 2 0 c 0,113 -43,225 -128,312 -1,2 -10,10 -12,12 -92,88 -212,129 -330,124 z"
   id="path27"
   style="fill:url(#id2)" />&#10;     <path
   class="fil5"
   d="m 1414,242 -1,265 c 0,0 -781,1 -782,1 -31,2 -63,10 -95,22 0,0 0,0 0,0 -20,8 -39,17 -58,29 -28,16 -54,37 -79,62 -59,59 -123,158 -146,238 0,0 -4,15 -4,16 l -1,-74 v -110 0 c 1,-113 44,-226 128,-313 2,-1 10,-9 13,-12 92,-87 211,-128 329,-123 0,0 695,-1 696,-1 z"
   id="path28"
   style="fill:url(#id3)" />&#10;    </g>&#10;   </g>&#10;  </g>&#10; </g>&#10;</svg>
