<?xml version="1.0" encoding="UTF-8"?>
<!DOCTYPE svg PUBLIC "-//W3C//DTD SVG 1.1//EN" "http://www.w3.org/Graphics/SVG/1.1/DTD/svg11.dtd">
<!-- Creator: CorelDRAW X8 -->
<svg xmlns="http://www.w3.org/2000/svg" xml:space="preserve" width="146.24mm" height="20.5881mm" version="1.1" style="shape-rendering:geometricPrecision; text-rendering:geometricPrecision; image-rendering:optimizeQuality; fill-rule:evenodd; clip-rule:evenodd"
viewBox="0 0 10814 1522"
 xmlns:xlink="http://www.w3.org/1999/xlink">
 <defs>
  <style type="text/css">
   <![CDATA[
    .fil0 {fill:#333A71;fill-rule:nonzero}
    .fil1 {fill:#333B72;fill-rule:nonzero}
    .fil2 {fill:url(#id0);fill-rule:nonzero}
    .fil3 {fill:url(#id1);fill-rule:nonzero}
    .fil4 {fill:url(#id2);fill-rule:nonzero}
    .fil5 {fill:url(#id3);fill-rule:nonzero}
   ]]>
  </style>
  <linearGradient id="id0" gradientUnits="userSpaceOnUse" x1="440.554" y1="514.916" x2="440.554" y2="1522.27">
   <stop offset="0" style="stop-opacity:1; stop-color:#333B72"/>
   <stop offset="0.988235" style="stop-opacity:1; stop-color:#8589C2"/>
   <stop offset="1" style="stop-opacity:1; stop-color:#8589C2"/>
  </linearGradient>
  <linearGradient id="id1" gradientUnits="userSpaceOnUse" x1="972.655" y1="1004.22" x2="972.655" y2="-0.12571">
   <stop offset="0" style="stop-opacity:1; stop-color:#FECA1F"/>
   <stop offset="0.988235" style="stop-opacity:1; stop-color:#D87F23"/>
   <stop offset="1" style="stop-opacity:1; stop-color:#D87F23"/>
  </linearGradient>
  <linearGradient id="id2" gradientUnits="userSpaceOnUse" xlink:href="#id1" x1="3.68256" y1="961.489" x2="1136.3" y2="961.489">
  </linearGradient>
  <linearGradient id="id3" gradientUnits="userSpaceOnUse" xlink:href="#id0" x1="1411.36" y1="560.659" x2="398.257" y2="560.659">
  </linearGradient>
 </defs>
 <g id="Warstwa_x0020_1">
  <metadata id="CorelCorpID_0Corel-Layer"/>
  <g id="_2130212037280">
   <g>
    <g>
     <path class="fil0" d="M1778 786c35,0 61,7 77,22 15,14 23,34 23,59 0,12 -1,23 -5,34 -4,10 -9,19 -18,27 -8,9 -19,15 -32,20 -14,4 -30,6 -50,6l-29 0 0 102 -44 0 0 -270 78 0zm-3 37l-31 0 0 95 25 0c14,0 25,-2 35,-5 9,-3 17,-9 22,-16 5,-7 7,-16 7,-28 0,-15 -4,-27 -13,-35 -10,-7 -25,-11 -45,-11z"/>
     <path id="_1" class="fil0" d="M2108 953c0,17 -2,32 -6,45 -5,13 -11,24 -20,33 -8,9 -19,16 -30,21 -12,5 -26,7 -41,7 -14,0 -26,-2 -38,-7 -12,-5 -22,-12 -31,-21 -8,-9 -15,-20 -19,-33 -5,-13 -7,-28 -7,-45 0,-22 4,-42 11,-57 8,-16 20,-28 34,-36 14,-8 32,-12 52,-12 18,0 35,4 49,12 15,8 26,20 34,36 8,16 12,35 12,57zm-148 0c0,15 2,28 6,38 3,11 9,19 17,25 7,5 17,8 29,8 12,0 22,-3 30,-8 7,-6 13,-14 16,-25 4,-10 5,-23 5,-38 0,-15 -1,-27 -5,-38 -3,-10 -9,-18 -16,-24 -8,-5 -18,-8 -30,-8 -18,0 -31,6 -39,18 -9,12 -13,30 -13,52z"/>
     <polygon id="_2" class="fil0" points="2201,1056 2158,1056 2158,769 2201,769 "/>
     <path id="_3" class="fil0" d="M2306 851l0 205 -43 0 0 -205 43 0zm-21 -78c7,0 12,2 17,6 5,3 7,9 7,18 0,9 -2,15 -7,19 -5,3 -10,5 -17,5 -7,0 -13,-2 -17,-5 -5,-4 -8,-10 -8,-19 0,-9 3,-15 8,-18 4,-4 10,-6 17,-6z"/>
     <path id="_4" class="fil0" d="M2505 997c0,14 -3,25 -10,34 -6,9 -15,16 -28,21 -12,5 -27,7 -46,7 -14,0 -26,-1 -37,-3 -10,-2 -20,-5 -29,-9l0 -37c10,4 21,8 33,11 12,4 24,5 35,5 14,0 24,-2 30,-6 7,-5 10,-11 10,-18 0,-5 -2,-9 -4,-12 -2,-4 -7,-7 -14,-11 -7,-4 -17,-8 -30,-14 -13,-5 -24,-10 -32,-15 -9,-5 -16,-11 -21,-19 -4,-7 -7,-17 -7,-28 0,-18 8,-32 22,-41 14,-9 33,-14 57,-14 12,0 24,1 35,3 11,3 22,7 33,11l-14 33c-9,-4 -18,-7 -27,-10 -10,-3 -19,-4 -29,-4 -11,0 -19,2 -25,5 -6,4 -9,8 -9,15 0,5 2,9 4,12 3,3 8,7 15,10 7,4 17,8 29,13 12,4 23,9 32,14 8,5 15,11 20,19 5,7 7,17 7,28z"/>
     <path id="_5" class="fil0" d="M2595 769l0 72c0,7 0,15 0,22 -1,7 -1,13 -2,16l3 0c4,-7 9,-12 15,-17 7,-5 14,-8 22,-11 7,-2 15,-3 25,-3 15,0 28,3 39,8 11,5 19,13 25,24 6,11 9,25 9,42l0 134 -43 0 0 -125c0,-16 -3,-28 -10,-36 -7,-8 -16,-12 -30,-12 -13,0 -24,3 -31,8 -8,6 -13,14 -17,25 -3,10 -5,23 -5,38l0 102 -43 0 0 -287 43 0z"/>
     <path id="_6" class="fil0" d="M3061 1056l-27 -75 -103 0 -26 75 -46 0 100 -271 49 0 100 271 -47 0zm-38 -113l-26 -74c0,-3 -2,-8 -4,-13 -2,-6 -3,-12 -5,-18 -2,-7 -4,-11 -5,-16 -1,5 -3,11 -4,17 -2,6 -4,12 -6,18 -1,5 -2,9 -3,12l-26 74 79 0z"/>
     <path id="_7" class="fil0" d="M3221 1059c-19,0 -36,-3 -50,-11 -14,-8 -25,-19 -32,-34 -8,-16 -12,-35 -12,-60 0,-24 4,-44 12,-60 9,-16 20,-27 35,-35 15,-8 32,-11 51,-11 12,0 23,1 33,3 10,3 19,6 25,9l-12 35c-8,-3 -16,-6 -23,-8 -8,-2 -16,-3 -23,-3 -12,0 -22,3 -30,8 -8,5 -14,13 -18,23 -3,11 -6,24 -6,39 0,15 3,28 6,38 4,10 10,18 18,23 8,5 17,8 28,8 12,0 22,-1 31,-4 8,-3 17,-6 25,-11l0 38c-8,5 -16,8 -25,10 -9,2 -20,3 -33,3z"/>
     <path id="_8" class="fil0" d="M3406 848c26,0 46,5 59,17 13,11 19,29 19,53l0 138 -30 0 -9 -30 -1 0c-6,8 -12,14 -18,19 -6,5 -13,8 -21,11 -8,2 -18,3 -30,3 -12,0 -23,-2 -32,-6 -10,-5 -17,-12 -23,-21 -5,-9 -8,-21 -8,-35 0,-21 8,-37 23,-47 16,-11 40,-17 71,-18l36 -1 0 -11c0,-14 -4,-24 -10,-30 -7,-6 -16,-9 -28,-9 -10,0 -20,1 -29,4 -10,3 -19,7 -28,11l-14 -30c9,-5 21,-10 34,-13 12,-3 25,-5 39,-5zm36 110l-27 1c-21,1 -37,4 -45,11 -9,7 -13,16 -13,27 0,10 3,18 9,22 6,5 13,7 24,7 14,0 27,-4 37,-13 10,-8 15,-20 15,-37l0 -18z"/>
     <path id="_9" class="fil0" d="M3614 1059c-25,0 -44,-9 -59,-26 -14,-18 -22,-44 -22,-79 0,-35 8,-61 23,-79 14,-18 34,-27 58,-27 11,0 20,1 28,4 7,3 14,6 20,11 5,5 10,10 14,16l2 0c-1,-4 -1,-9 -2,-17 -1,-7 -2,-14 -2,-20l0 -73 44 0 0 287 -34 0 -8 -28 -2 0c-3,6 -8,11 -14,16 -5,4 -12,8 -19,11 -8,3 -17,4 -27,4zm12 -35c18,0 31,-5 39,-16 8,-11 12,-27 12,-48l0 -6c0,-23 -4,-40 -11,-52 -8,-12 -21,-19 -41,-19 -15,0 -27,7 -35,19 -8,13 -12,30 -12,53 0,22 4,39 12,51 8,12 20,18 36,18z"/>
     <path id="_10" class="fil0" d="M3861 848c18,0 34,3 47,11 13,8 23,18 30,32 7,14 11,30 11,49l0 23 -137 0c1,20 6,36 16,46 10,11 25,16 43,16 13,0 25,-1 35,-4 10,-2 21,-6 32,-11l0 35c-10,5 -20,9 -31,11 -11,2 -23,3 -38,3 -20,0 -37,-4 -53,-11 -15,-8 -27,-20 -35,-35 -9,-16 -13,-35 -13,-58 0,-23 4,-42 12,-58 7,-16 18,-28 32,-37 14,-8 30,-12 49,-12zm0 33c-14,0 -25,4 -33,13 -9,8 -13,22 -15,39l93 0c0,-11 -2,-20 -5,-28 -3,-8 -8,-14 -15,-18 -6,-4 -15,-6 -25,-6z"/>
     <path id="_11" class="fil0" d="M4228 848c22,0 40,6 51,17 12,12 18,31 18,57l0 134 -44 0 0 -126c0,-16 -3,-27 -9,-35 -6,-8 -15,-12 -27,-12 -17,0 -30,6 -37,17 -8,11 -12,27 -12,47l0 109 -43 0 0 -126c0,-10 -1,-19 -4,-26 -2,-7 -6,-12 -12,-16 -5,-3 -12,-5 -20,-5 -12,0 -22,3 -29,8 -7,6 -12,14 -15,24 -3,11 -4,24 -4,39l0 102 -44 0 0 -205 34 0 6 28 2 0c5,-7 10,-13 16,-17 6,-5 13,-9 21,-11 7,-2 15,-3 23,-3 16,0 28,2 39,8 10,5 18,13 23,24l4 0c6,-11 15,-19 26,-24 12,-6 24,-8 37,-8z"/>
     <path id="_12" class="fil0" d="M4326 851l47 0 42 117c2,5 4,11 6,15 1,6 2,11 3,16 2,4 3,9 3,14l1 0c2,-6 3,-13 6,-21 2,-8 5,-16 7,-24l41 -117 46 0 -87 232c-5,14 -11,25 -19,34 -7,10 -16,17 -26,22 -10,5 -21,7 -34,7 -6,0 -11,0 -16,-1 -4,0 -8,-1 -11,-2l0 -35c2,1 5,1 9,2 4,1 8,1 12,1 8,0 15,-2 20,-5 6,-3 11,-7 15,-13 4,-5 7,-12 10,-19l7 -19 -82 -204z"/>
     <path id="_13" class="fil0" d="M4838 953c0,17 -3,32 -7,45 -5,13 -11,24 -19,33 -9,9 -19,16 -31,21 -12,5 -25,7 -40,7 -14,0 -27,-2 -39,-7 -11,-5 -22,-12 -30,-21 -9,-9 -15,-20 -20,-33 -5,-13 -7,-28 -7,-45 0,-22 4,-42 12,-57 8,-16 19,-28 33,-36 15,-8 32,-12 52,-12 19,0 35,4 50,12 14,8 25,20 33,36 9,16 13,35 13,57zm-149 0c0,15 2,28 6,38 4,11 9,19 17,25 8,5 17,8 30,8 12,0 21,-3 29,-8 8,-6 13,-14 17,-25 3,-10 5,-23 5,-38 0,-15 -2,-27 -5,-38 -4,-10 -9,-18 -17,-24 -8,-5 -18,-8 -30,-8 -18,0 -31,6 -39,18 -8,12 -13,30 -13,52z"/>
     <path id="_14" class="fil0" d="M4989 885l-49 0 0 171 -44 0 0 -171 -33 0 0 -21 33 -13 0 -14c0,-17 3,-31 9,-41 5,-11 13,-18 23,-22 10,-5 23,-7 37,-7 9,0 18,1 25,2 8,2 15,4 20,6l-11 32c-5,-1 -9,-2 -14,-3 -5,-2 -11,-2 -17,-2 -10,0 -17,3 -21,9 -5,6 -7,15 -7,27l0 13 49 0 0 34z"/>
     <path id="_15" class="fil0" d="M5282 982c0,16 -4,30 -12,41 -8,12 -19,21 -34,27 -14,6 -32,9 -52,9 -9,0 -19,0 -28,-2 -9,-1 -17,-2 -25,-4 -8,-2 -15,-5 -22,-8l0 -42c11,5 23,9 37,13 14,4 27,6 41,6 12,0 21,-2 29,-5 7,-3 13,-7 16,-12 4,-6 6,-12 6,-20 0,-8 -2,-15 -6,-20 -5,-6 -11,-11 -20,-15 -8,-5 -19,-10 -32,-15 -9,-4 -17,-8 -26,-13 -8,-4 -15,-9 -21,-15 -6,-7 -11,-14 -15,-22 -4,-9 -5,-18 -5,-30 0,-15 3,-28 11,-39 7,-11 17,-19 31,-25 13,-6 28,-9 46,-9 14,0 28,2 40,5 12,3 25,7 37,12l-14 36c-11,-5 -22,-8 -32,-11 -11,-3 -21,-4 -32,-4 -10,0 -17,1 -24,4 -6,3 -11,7 -15,12 -3,5 -5,11 -5,18 0,8 2,15 6,20 4,5 10,10 18,15 8,4 19,9 32,15 15,6 27,12 38,19 10,7 18,14 23,24 6,9 9,21 9,35z"/>
     <path id="_16" class="fil0" d="M5411 1059c-19,0 -36,-3 -50,-11 -14,-8 -25,-19 -32,-34 -8,-16 -12,-35 -12,-60 0,-24 4,-44 13,-60 8,-16 20,-27 35,-35 14,-8 31,-11 51,-11 12,0 23,1 32,3 10,3 19,6 26,9l-13 35c-8,-3 -16,-6 -23,-8 -8,-2 -16,-3 -23,-3 -12,0 -22,3 -30,8 -8,5 -14,13 -17,23 -4,11 -6,24 -6,39 0,15 2,28 6,38 3,10 9,18 17,23 8,5 17,8 29,8 11,0 21,-1 30,-4 9,-3 17,-6 25,-11l0 38c-8,5 -16,8 -25,10 -9,2 -20,3 -33,3z"/>
     <path id="_17" class="fil0" d="M5560 851l0 205 -44 0 0 -205 44 0zm-22 -78c7,0 13,2 18,6 5,3 7,9 7,18 0,9 -2,15 -7,19 -5,3 -11,5 -18,5 -6,0 -12,-2 -17,-5 -5,-4 -7,-10 -7,-19 0,-9 2,-15 7,-18 5,-4 11,-6 17,-6z"/>
     <path id="_18" class="fil0" d="M5703 848c18,0 34,3 47,11 13,8 23,18 30,32 7,14 10,30 10,49l0 23 -136 0c0,20 6,36 16,46 10,11 24,16 43,16 13,0 24,-1 35,-4 10,-2 21,-6 32,-11l0 35c-10,5 -21,9 -31,11 -11,2 -24,3 -38,3 -20,0 -38,-4 -53,-11 -15,-8 -27,-20 -36,-35 -8,-16 -12,-35 -12,-58 0,-23 4,-42 11,-58 8,-16 19,-28 33,-37 14,-8 30,-12 49,-12zm0 33c-14,0 -25,4 -33,13 -9,8 -14,22 -15,39l93 0c0,-11 -2,-20 -5,-28 -4,-8 -9,-14 -15,-18 -6,-4 -15,-6 -25,-6z"/>
     <path id="_19" class="fil0" d="M5945 848c23,0 41,6 54,17 13,12 19,31 19,57l0 134 -43 0 0 -125c0,-16 -3,-28 -10,-36 -6,-8 -16,-12 -30,-12 -20,0 -33,6 -41,18 -8,13 -12,30 -12,53l0 102 -43 0 0 -205 34 0 6 28 2 0c5,-7 10,-13 17,-17 6,-5 13,-8 22,-11 8,-2 16,-3 25,-3z"/>
     <path id="_20" class="fil0" d="M6161 1059c-19,0 -36,-3 -50,-11 -14,-8 -25,-19 -33,-34 -8,-16 -11,-35 -11,-60 0,-24 4,-44 12,-60 9,-16 20,-27 35,-35 15,-8 32,-11 51,-11 12,0 23,1 33,3 10,3 18,6 25,9l-13 35c-7,-3 -15,-6 -23,-8 -8,-2 -15,-3 -22,-3 -12,0 -22,3 -30,8 -8,5 -14,13 -18,23 -4,11 -6,24 -6,39 0,15 2,28 6,38 4,10 10,18 18,23 7,5 17,8 28,8 11,0 21,-1 30,-4 9,-3 17,-6 25,-11l0 38c-7,5 -16,8 -25,10 -8,2 -19,3 -32,3z"/>
     <path id="_21" class="fil0" d="M6347 848c19,0 34,3 47,11 13,8 23,18 30,32 7,14 11,30 11,49l0 23 -137 0c1,20 6,36 16,46 10,11 25,16 43,16 13,0 25,-1 35,-4 11,-2 21,-6 32,-11l0 35c-10,5 -20,9 -31,11 -10,2 -23,3 -38,3 -20,0 -37,-4 -53,-11 -15,-8 -27,-20 -35,-35 -9,-16 -13,-35 -13,-58 0,-23 4,-42 12,-58 8,-16 18,-28 32,-37 14,-8 31,-12 49,-12zm0 33c-13,0 -24,4 -33,13 -8,8 -13,22 -15,39l93 0c0,-11 -2,-20 -5,-28 -3,-8 -8,-14 -15,-18 -6,-4 -15,-6 -25,-6z"/>
     <path id="_22" class="fil0" d="M6620 997c0,14 -3,25 -10,34 -6,9 -15,16 -28,21 -12,5 -27,7 -45,7 -15,0 -27,-1 -37,-3 -11,-2 -20,-5 -30,-9l0 -37c10,4 21,8 33,11 12,4 24,5 35,5 14,0 24,-2 31,-6 6,-5 9,-11 9,-18 0,-5 -2,-9 -4,-12 -2,-4 -7,-7 -14,-11 -7,-4 -17,-8 -30,-14 -13,-5 -24,-10 -32,-15 -9,-5 -16,-11 -21,-19 -4,-7 -7,-17 -7,-28 0,-18 8,-32 22,-41 14,-9 33,-14 57,-14 12,0 24,1 35,3 11,3 22,7 33,11l-14 33c-9,-4 -18,-7 -27,-10 -10,-3 -19,-4 -29,-4 -11,0 -19,2 -25,5 -6,4 -9,8 -9,15 0,5 2,9 4,12 3,3 8,7 15,10 7,4 17,8 29,13 12,4 23,9 32,14 8,5 16,11 20,19 5,7 7,17 7,28z"/>
    </g>
    <polygon class="fil1" points="1695,720 1695,382 1767,382 1767,720 "/>
    <path class="fil1" d="M2153 720l-91 0 -148 -256 -2 0c3,45 4,78 4,97l0 159 -64 0 0 -338 91 0 147 253 2 0c-3,-44 -4,-75 -4,-93l0 -160 65 0 0 338z"/>
    <path class="fil1" d="M2438 626c0,31 -11,55 -33,73 -22,17 -53,26 -92,26 -36,0 -68,-7 -96,-20l0 -67c23,10 42,17 58,22 16,4 31,6 44,6 16,0 28,-3 36,-9 8,-6 13,-15 13,-27 0,-7 -2,-13 -6,-18 -4,-5 -9,-10 -16,-15 -7,-5 -22,-12 -44,-23 -21,-9 -36,-19 -47,-28 -10,-9 -18,-19 -25,-31 -6,-12 -9,-26 -9,-42 0,-30 10,-53 31,-70 20,-18 48,-26 84,-26 18,0 34,2 50,6 16,4 33,10 50,18l-23 56c-18,-8 -33,-13 -45,-16 -11,-3 -23,-4 -34,-4 -14,0 -24,3 -32,9 -7,6 -11,15 -11,25 0,6 2,12 5,16 3,5 7,10 14,14 6,5 21,12 45,24 32,15 54,30 65,45 12,16 18,34 18,56z"/>
    <polygon class="fil1" points="2630,720 2558,720 2558,441 2466,441 2466,382 2722,382 2722,441 2630,441 "/>
    <polygon class="fil1" points="2774,720 2774,382 2846,382 2846,720 "/>
    <polygon class="fil1" points="3062,720 2990,720 2990,441 2898,441 2898,382 3154,382 3154,441 3062,441 "/>
    <path class="fil1" d="M3482 382l0 219c0,25 -6,47 -17,66 -11,19 -27,33 -48,43 -21,10 -46,15 -75,15 -44,0 -78,-11 -102,-33 -24,-23 -36,-53 -36,-92l0 -218 72 0 0 207c0,26 5,45 15,58 11,12 28,18 53,18 23,0 40,-6 51,-19 10,-12 15,-31 15,-57l0 -207 72 0z"/>
    <polygon class="fil1" points="3696,720 3624,720 3624,441 3532,441 3532,382 3788,382 3788,441 3696,441 "/>
    <polygon class="fil1" points="4035,720 3840,720 3840,382 4035,382 4035,441 3912,441 3912,515 4026,515 4026,574 3912,574 3912,661 4035,661 "/>
    <path class="fil1" d="M4536 551c0,56 -13,99 -41,129 -28,30 -68,45 -120,45 -52,0 -92,-15 -119,-45 -28,-30 -42,-73 -42,-130 0,-56 14,-99 42,-129 28,-30 68,-45 120,-45 52,0 92,15 119,45 28,30 41,73 41,130zm-247 0l0 0c0,37 7,66 22,85 14,19 36,29 64,29 58,0 86,-38 86,-114 0,-77 -28,-115 -85,-115 -29,0 -50,10 -65,29 -15,19 -22,48 -22,86z"/>
    <polygon class="fil1" points="4677,720 4607,720 4607,382 4801,382 4801,441 4677,441 4677,528 4792,528 4792,587 4677,587 "/>
    <path class="fil1" d="M4990 382l106 0c48,0 83,7 105,20 21,14 32,36 32,65 0,21 -5,37 -14,50 -10,13 -22,21 -38,24l0 2c21,5 37,14 46,27 10,13 15,30 15,52 0,31 -11,55 -34,73 -22,17 -52,25 -91,25l-127 0 0 -338zm72 134l0 0 42 0c19,0 34,-3 42,-9 9,-6 13,-16 13,-30 0,-13 -4,-22 -14,-28 -9,-6 -24,-8 -45,-8l-38 0 0 75zm0 57l0 0 0 88 47 0c20,0 34,-4 44,-11 9,-8 14,-19 14,-35 0,-28 -20,-42 -60,-42l-45 0z"/>
    <polygon class="fil1" points="5309,720 5309,382 5381,382 5381,720 "/>
    <path class="fil1" d="M5774 551c0,56 -14,99 -42,129 -28,30 -67,45 -119,45 -52,0 -92,-15 -120,-45 -28,-30 -42,-73 -42,-130 0,-56 14,-99 42,-129 28,-30 68,-45 120,-45 52,0 92,15 120,45 27,30 41,73 41,130zm-247 0l0 0c0,37 7,66 21,85 15,19 36,29 65,29 57,0 86,-38 86,-114 0,-77 -29,-115 -86,-115 -28,0 -50,10 -65,29 -14,19 -21,48 -21,86z"/>
    <path class="fil1" d="M6152 551c0,56 -14,99 -42,129 -28,30 -68,45 -120,45 -52,0 -91,-15 -119,-45 -28,-30 -42,-73 -42,-130 0,-56 14,-99 42,-129 28,-30 68,-45 120,-45 52,0 92,15 119,45 28,30 42,73 42,130zm-248 0l0 0c0,37 8,66 22,85 14,19 36,29 64,29 58,0 86,-38 86,-114 0,-77 -28,-115 -85,-115 -29,0 -50,10 -65,29 -14,19 -22,48 -22,86z"/>
    <path class="fil1" d="M6294 590l0 130 -72 0 0 -338 99 0c46,0 80,8 102,25 22,17 33,42 33,76 0,20 -6,38 -16,53 -11,16 -27,28 -47,37 51,76 84,125 100,147l-80 0 -81 -130 -38 0zm0 -58l0 0 23 0c23,0 39,-4 50,-11 11,-8 16,-20 16,-36 0,-16 -5,-27 -16,-34 -11,-7 -28,-10 -51,-10l-22 0 0 91z"/>
    <path class="fil1" d="M6664 530l134 0 0 176c-22,7 -42,12 -61,15 -20,3 -39,4 -59,4 -51,0 -90,-15 -117,-45 -27,-30 -41,-73 -41,-129 0,-55 16,-98 47,-128 31,-31 75,-46 130,-46 35,0 69,7 101,21l-24 57c-25,-12 -51,-18 -77,-18 -31,0 -56,10 -75,31 -19,21 -28,49 -28,84 0,37 8,65 23,84 15,20 37,29 65,29 15,0 31,-1 46,-4l0 -71 -64 0 0 -60z"/>
    <path class="fil1" d="M7086 720l-24 -80 -124 0 -24 80 -78 0 120 -340 88 0 120 340 -78 0zm-41 -140l0 0c-23,-73 -36,-115 -39,-124 -3,-10 -5,-18 -6,-23 -5,20 -20,69 -44,147l89 0z"/>
    <path class="fil1" d="M7507 720l-91 0 -148 -256 -2 0c3,45 5,78 5,97l0 159 -65 0 0 -338 91 0 147 253 2 0c-3,-44 -4,-75 -4,-93l0 -160 65 0 0 338z"/>
    <polygon class="fil1" points="7592,720 7592,382 7664,382 7664,720 "/>
    <path class="fil1" d="M7893 437c-27,0 -48,10 -63,30 -14,20 -22,49 -22,85 0,76 29,113 85,113 24,0 53,-6 87,-18l0 61c-28,11 -59,17 -94,17 -49,0 -86,-15 -113,-45 -26,-30 -39,-73 -39,-128 0,-36 7,-67 19,-93 13,-27 32,-47 56,-61 24,-14 52,-21 84,-21 33,0 66,8 99,24l-23 58c-12,-6 -25,-11 -38,-16 -13,-4 -25,-6 -38,-6z"/>
    <path class="fil1" d="M8319 437c-27,0 -48,10 -63,30 -15,20 -22,49 -22,85 0,76 28,113 85,113 24,0 53,-6 86,-18l0 61c-27,11 -58,17 -93,17 -49,0 -87,-15 -113,-45 -26,-30 -39,-73 -39,-128 0,-36 6,-67 19,-93 13,-27 31,-47 55,-61 24,-14 53,-21 85,-21 33,0 66,8 99,24l-23 58c-13,-6 -25,-11 -38,-16 -13,-4 -26,-6 -38,-6z"/>
    <polygon class="fil1" points="8755,720 8683,720 8683,574 8549,574 8549,720 8477,720 8477,382 8549,382 8549,514 8683,514 8683,382 8755,382 "/>
    <polygon class="fil1" points="9036,720 8841,720 8841,382 9036,382 9036,441 8912,441 8912,515 9027,515 9027,574 8912,574 8912,661 9036,661 "/>
    <path class="fil1" d="M9250 720l-82 -265 -2 0c3,54 5,90 5,108l0 157 -65 0 0 -338 98 0 80 259 2 0 85 -259 98 0 0 338 -67 0 0 -160c0,-7 0,-16 0,-26 0,-10 1,-36 3,-79l-2 0 -87 265 -66 0z"/>
    <polygon class="fil1" points="9554,720 9554,382 9626,382 9626,720 "/>
    <path class="fil1" d="M9911 626c0,31 -11,55 -33,73 -22,17 -53,26 -92,26 -36,0 -68,-7 -96,-20l0 -67c23,10 42,17 58,22 16,4 30,6 44,6 15,0 27,-3 36,-9 8,-6 12,-15 12,-27 0,-7 -1,-13 -5,-18 -4,-5 -9,-10 -16,-15 -8,-5 -22,-12 -44,-23 -21,-9 -37,-19 -47,-28 -10,-9 -18,-19 -25,-31 -6,-12 -9,-26 -9,-42 0,-30 10,-53 31,-70 20,-18 48,-26 84,-26 17,0 34,2 50,6 16,4 33,10 50,18l-23 56c-18,-8 -33,-13 -45,-16 -12,-3 -23,-4 -35,-4 -13,0 -24,3 -31,9 -7,6 -11,15 -11,25 0,6 2,12 5,16 3,5 7,10 14,14 6,5 21,12 45,24 32,15 54,30 65,45 12,16 18,34 18,56z"/>
    <polygon class="fil1" points="10103,720 10031,720 10031,441 9939,441 9939,382 10195,382 10195,441 10103,441 "/>
    <path class="fil1" d="M10319 590l0 130 -72 0 0 -338 99 0c46,0 80,8 102,25 22,17 33,42 33,76 0,20 -5,38 -16,53 -11,16 -27,28 -47,37 51,76 84,125 100,147l-80 0 -81 -130 -38 0zm0 -58l0 0 23 0c23,0 40,-4 50,-11 11,-8 17,-20 17,-36 0,-16 -6,-27 -17,-34 -11,-7 -28,-10 -51,-10l-22 0 0 91z"/>
    <polygon class="fil1" points="10666,521 10737,382 10814,382 10702,589 10702,720 10630,720 10630,591 10518,382 10596,382 "/>
   </g>
   <g id="_105553180333184">
    <g>
     <path class="fil2" d="M633 507c-65,7 -116,60 -120,126 0,3 0,889 0,889l-264 0c0,-5 0,-647 0,-647 12,-94 102,-250 171,-303 44,-34 183,-76 211,-64 1,0 1,0 2,-1z"/>
     <path class="fil3" d="M781 1015c65,-7 116,-60 119,-126 0,-2 0,-889 0,-889l264 0c1,5 1,647 1,647 -26,244 -278,380 -383,368 0,0 -1,0 -1,0z"/>
     <path class="fil4" d="M0 1280l0 -265c0,0 779,0 781,0 0,0 1,0 1,0 32,-3 64,-10 96,-23 0,0 0,0 0,0 19,-7 39,-17 58,-28 27,-17 54,-38 78,-62 60,-60 123,-158 147,-239 0,0 4,-15 4,-15l0 6 0 67 0 109 0 2 0 0c0,113 -43,225 -128,312 -1,2 -10,10 -12,12 -92,88 -212,129 -330,124 0,0 -695,0 -695,0z"/>
     <path class="fil5" d="M1414 242l-1 265c0,0 -781,1 -782,1 -31,2 -63,10 -95,22 0,0 0,0 0,0 -20,8 -39,17 -58,29 -28,16 -54,37 -79,62 -59,59 -123,158 -146,238 0,0 -4,15 -4,16l-1 -74 0 -110 0 0c1,-113 44,-226 128,-313 2,-1 10,-9 13,-12 92,-87 211,-128 329,-123 0,0 695,-1 696,-1z"/>
    </g>
   </g>
  </g>
 </g>
</svg>
