<?xml version="1.0" encoding="UTF-8"?>
<!DOCTYPE svg PUBLIC "-//W3C//DTD SVG 1.1//EN" "http://www.w3.org/Graphics/SVG/1.1/DTD/svg11.dtd">
<!-- Creator: CorelDRAW X8 -->
<svg xmlns="http://www.w3.org/2000/svg" xml:space="preserve" width="177.864mm" height="34.3506mm" version="1.1" style="shape-rendering:geometricPrecision; text-rendering:geometricPrecision; image-rendering:optimizeQuality; fill-rule:evenodd; clip-rule:evenodd"
viewBox="0 0 17102 3303"
 xmlns:xlink="http://www.w3.org/1999/xlink">
 <defs>
  <style type="text/css">
   <![CDATA[
    .fil0 {fill:#FEFEFE}
    .fil2 {fill:#E32B4B}
    .fil1 {fill:#E32D4C}
    .fil3 {fill:#2B2A29;fill-rule:nonzero}
   ]]>
  </style>
 </defs>
 <g id="Warstwa_x0020_1">
  <metadata id="CorelCorpID_0Corel-Layer"/>
  <g id="_1374433346688">
   <rect class="fil0" width="3486" height="3303"/>
   <g>
    <path class="fil1" d="M0 3303l642 0 7 -2119 2654 2119 183 0 0 -1101c-890,-471 -1911,-914 -2018,-2202l-1468 0 0 3303z"/>
    <polygon class="fil1" points="1193,3303 2385,3303 1193,2385 "/>
   </g>
   <path class="fil2" d="M3486 0l-1284 0c15,697 709,1334 1284,1468l0 -1468z"/>
  </g>
  <polygon class="fil3" points="4048,1322 4048,524 4156,524 4575,1151 4575,524 4677,524 4677,1322 4568,1322 4149,696 4149,1322 "/>
  <path id="1" class="fil3" d="M8947 1066l100 -9c4,40 15,73 32,99 18,25 44,46 81,62 36,16 77,24 122,24 41,0 76,-6 107,-18 31,-12 54,-29 69,-50 15,-21 22,-44 22,-68 0,-25 -7,-47 -21,-65 -15,-19 -39,-35 -72,-48 -22,-8 -69,-21 -143,-38 -73,-18 -124,-35 -154,-50 -38,-20 -66,-45 -85,-75 -18,-29 -28,-63 -28,-99 0,-41 12,-78 35,-113 23,-35 56,-62 100,-80 44,-18 93,-28 146,-28 60,0 112,10 157,29 45,19 80,47 104,84 25,37 38,79 39,126l-101 8c-5,-51 -24,-89 -55,-114 -32,-26 -78,-39 -140,-39 -63,0 -110,12 -139,35 -29,24 -44,52 -44,85 0,29 10,52 31,71 20,18 73,37 159,57 86,19 145,36 177,51 46,21 81,48 103,81 22,33 33,70 33,113 0,43 -12,82 -37,120 -24,37 -59,67 -104,87 -46,21 -97,32 -154,32 -72,0 -133,-11 -181,-32 -49,-21 -87,-53 -115,-95 -28,-42 -42,-90 -44,-143z"/>
  <path id="2" class="fil3" d="M13975 1042l106 27c-22,87 -62,153 -119,198 -57,46 -128,69 -211,69 -86,0 -156,-18 -210,-53 -53,-35 -94,-86 -122,-152 -28,-67 -43,-138 -43,-214 0,-83 16,-155 48,-217 32,-62 77,-109 136,-141 58,-33 123,-49 193,-49 80,0 147,21 201,61 55,41 93,98 114,172l-104 24c-18,-58 -45,-100 -80,-126 -35,-27 -80,-40 -133,-40 -61,0 -112,14 -154,44 -41,29 -70,69 -86,118 -17,50 -25,101 -25,154 0,67 10,127 29,177 20,51 51,89 92,114 42,25 87,37 135,37 60,0 109,-17 150,-51 41,-34 69,-85 83,-152z"/>
  <path id="3" class="fil3" d="M4767 1322l245 -639 93 0 260 639 -96 0 -74 -193 -269 0 -69 193 -90 0zm184 -262l218 0 -67 -177c-20,-54 -35,-98 -46,-133 -9,41 -20,82 -35,122l-70 188z"/>
  <polygon id="4" class="fil3" points="5595,1322 5595,758 5384,758 5384,683 5890,683 5890,758 5679,758 5679,1322 "/>
  <polygon id="5" class="fil3" points="5992,1322 5992,683 6076,683 6076,1322 "/>
  <path id="6" class="fil3" d="M6199 1011c0,-106 29,-188 86,-248 57,-60 130,-90 220,-90 59,0 112,14 160,42 47,28 83,67 108,118 25,50 37,107 37,171 0,65 -13,123 -39,174 -26,51 -63,89 -111,116 -48,26 -100,39 -155,39 -60,0 -114,-15 -161,-44 -48,-29 -84,-68 -108,-118 -24,-50 -37,-104 -37,-160zm88 2c0,77 20,137 62,181 41,45 93,67 155,67 64,0 116,-23 157,-67 42,-45 62,-108 62,-190 0,-52 -9,-97 -26,-136 -18,-39 -44,-69 -77,-90 -34,-21 -72,-32 -114,-32 -60,0 -111,20 -155,61 -43,42 -64,110 -64,206z"/>
  <polygon id="7" class="fil3" points="6918,1322 6918,683 7005,683 7340,1185 7340,683 7421,683 7421,1322 7335,1322 6999,821 6999,1322 "/>
  <path id="8" class="fil3" d="M7493 1322l246 -639 92 0 261 639 -97 0 -74 -193 -269 0 -69 193 -90 0zm184 -262l218 0 -67 -177c-20,-54 -35,-98 -45,-133 -9,41 -21,82 -36,122l-70 188z"/>
  <polygon id="9" class="fil3" points="8155,1322 8155,683 8240,683 8240,1247 8554,1247 8554,1322 "/>
  <path id="10" class="fil3" d="M10164 1098l84 22c-17,69 -49,122 -95,158 -46,37 -102,55 -169,55 -68,0 -124,-14 -168,-42 -43,-28 -75,-69 -98,-122 -22,-53 -34,-110 -34,-171 0,-66 13,-124 38,-174 26,-49 62,-87 109,-113 47,-25 98,-38 155,-38 63,0 117,16 161,49 43,32 73,78 91,137l-83 19c-15,-46 -37,-80 -65,-101 -28,-21 -63,-32 -106,-32 -49,0 -90,12 -123,35 -33,24 -56,55 -69,95 -13,40 -20,81 -20,123 0,54 8,101 23,142 16,40 41,71 74,91 33,20 69,30 108,30 47,0 87,-14 120,-41 33,-28 55,-68 67,-122z"/>
  <polygon id="11" class="fil3" points="10367,1322 10367,683 10452,683 10452,1322 "/>
  <polygon id="12" class="fil3" points="10602,1322 10602,683 11064,683 11064,758 10687,758 10687,955 11040,955 11040,1030 10687,1030 10687,1247 11079,1247 11079,1322 "/>
  <polygon id="13" class="fil3" points="11195,1322 11195,683 11282,683 11617,1185 11617,683 11698,683 11698,1322 11611,1322 11276,821 11276,1322 "/>
  <path id="14" class="fil3" d="M12295 1098l85 22c-18,69 -50,122 -96,158 -46,37 -102,55 -168,55 -69,0 -125,-14 -168,-42 -43,-28 -76,-69 -98,-122 -23,-53 -34,-110 -34,-171 0,-66 13,-124 38,-174 26,-49 62,-87 108,-113 47,-25 99,-38 155,-38 64,0 118,16 161,49 44,32 74,78 91,137l-83 19c-15,-46 -36,-80 -64,-101 -28,-21 -64,-32 -106,-32 -49,0 -90,12 -123,35 -33,24 -56,55 -69,95 -14,40 -21,81 -21,123 0,54 8,101 24,142 16,40 40,71 74,91 33,20 69,30 108,30 47,0 87,-14 120,-41 32,-28 55,-68 66,-122z"/>
  <polygon id="15" class="fil3" points="12486,1322 12486,683 12947,683 12947,758 12571,758 12571,955 12923,955 12923,1030 12571,1030 12571,1247 12963,1247 12963,1322 "/>
  <polygon id="16" class="fil3" points="14197,1322 14197,683 14658,683 14658,758 14281,758 14281,955 14634,955 14634,1030 14281,1030 14281,1247 14673,1247 14673,1322 "/>
  <polygon id="17" class="fil3" points="14789,1322 14789,683 14876,683 15211,1185 15211,683 15292,683 15292,1322 15205,1322 14870,821 14870,1322 "/>
  <polygon id="18" class="fil3" points="15597,1322 15597,758 15386,758 15386,683 15892,683 15892,758 15681,758 15681,1322 "/>
  <path id="19" class="fil3" d="M15981 1322l0 -639 283 0c57,0 100,6 130,18 29,11 53,31 71,60 17,29 26,62 26,97 0,45 -14,83 -44,114 -29,31 -74,51 -136,59 23,11 40,22 52,32 24,23 48,51 69,85l111 174 -106 0 -84 -133c-25,-38 -45,-67 -61,-88 -16,-20 -30,-34 -43,-42 -12,-9 -25,-14 -38,-17 -10,-2 -26,-3 -47,-3l-98 0 0 283 -85 0zm85 -357l181 0c39,0 69,-4 91,-12 21,-8 38,-20 49,-38 11,-18 17,-37 17,-57 0,-30 -11,-55 -33,-75 -22,-19 -56,-29 -103,-29l-202 0 0 211z"/>
  <polygon id="20" class="fil3" points="16625,1322 16625,683 17087,683 17087,758 16710,758 16710,955 17062,955 17062,1030 16710,1030 16710,1247 17102,1247 17102,1322 "/>
  <path class="fil3" d="M9093 2812l0 63 -353 0c-1,-16 2,-31 7,-45 9,-24 24,-48 44,-71 20,-24 49,-51 86,-81 58,-48 97,-85 118,-113 20,-28 30,-54 30,-79 0,-26 -9,-48 -28,-66 -18,-18 -43,-27 -73,-27 -31,0 -57,10 -76,28 -19,19 -28,45 -28,79l-68 -7c5,-50 22,-88 52,-115 31,-26 71,-39 122,-39 51,0 92,14 122,42 30,29 45,64 45,106 0,22 -5,43 -14,63 -8,21 -23,43 -43,66 -20,22 -54,54 -101,94 -40,33 -65,55 -76,67 -11,12 -21,24 -28,35l262 0z"/>
  <path id="1" class="fil3" d="M9164 2611c0,-63 7,-114 20,-152 13,-39 32,-69 58,-89 25,-21 57,-31 96,-31 29,0 54,5 76,17 21,11 39,28 53,50 14,22 25,48 33,79 8,31 12,74 12,126 0,63 -6,114 -19,152 -13,39 -32,69 -58,90 -25,21 -58,31 -97,31 -51,0 -92,-18 -121,-55 -35,-45 -53,-117 -53,-218zm68 1c0,88 10,146 30,175 21,29 46,43 76,43 30,0 56,-14 76,-43 21,-29 31,-88 31,-175 0,-88 -10,-147 -31,-175 -20,-29 -46,-44 -76,-44 -31,0 -55,13 -73,38 -22,33 -33,93 -33,181z"/>
  <path id="2" class="fil3" d="M9826 2875l-66 0 0 -418c-16,15 -37,30 -62,45 -26,15 -49,27 -69,34l0 -63c36,-17 68,-38 96,-63 27,-24 47,-48 58,-71l43 0 0 536z"/>
  <path id="3" class="fil3" d="M10336 2471l-65 6c-6,-26 -15,-45 -25,-57 -18,-18 -40,-28 -66,-28 -21,0 -40,6 -56,18 -21,15 -37,37 -49,66 -12,29 -18,70 -19,123 16,-24 36,-42 58,-53 23,-12 47,-18 72,-18 44,0 81,16 112,49 31,32 46,73 46,124 0,34 -7,65 -21,94 -15,29 -35,51 -60,66 -25,15 -54,23 -86,23 -55,0 -99,-20 -134,-60 -34,-40 -52,-107 -52,-199 0,-103 20,-178 58,-225 33,-41 78,-61 135,-61 42,0 76,11 103,35 27,23 43,56 49,97zm-269 231c0,23 5,44 14,65 10,21 23,36 40,47 18,11 36,16 55,16 28,0 52,-11 72,-33 19,-23 29,-53 29,-91 0,-37 -10,-66 -29,-88 -20,-21 -44,-32 -75,-32 -29,0 -55,11 -75,32 -21,22 -31,49 -31,84z"/>
  <polygon id="4" class="fil3" points="10378,2884 10533,2332 10586,2332 10431,2884 "/>
  <path id="5" class="fil3" d="M10961 2812l0 63 -354 0c0,-16 2,-31 8,-45 9,-24 23,-48 44,-71 20,-24 48,-51 85,-81 58,-48 97,-85 118,-113 21,-28 31,-54 31,-79 0,-26 -9,-48 -28,-66 -19,-18 -43,-27 -73,-27 -32,0 -57,10 -76,28 -19,19 -29,45 -29,79l-67 -7c4,-50 22,-88 52,-115 30,-26 71,-39 121,-39 52,0 92,14 122,42 30,29 45,64 45,106 0,22 -4,43 -13,63 -9,21 -23,43 -44,66 -20,22 -54,54 -101,94 -39,33 -65,55 -76,67 -11,12 -20,24 -27,35l262 0z"/>
  <path id="6" class="fil3" d="M11376 2812l0 63 -354 0c0,-16 2,-31 8,-45 9,-24 24,-48 44,-71 20,-24 48,-51 85,-81 58,-48 97,-85 118,-113 21,-28 31,-54 31,-79 0,-26 -9,-48 -28,-66 -19,-18 -43,-27 -73,-27 -32,0 -57,10 -76,28 -19,19 -29,45 -29,79l-67 -7c4,-50 22,-88 52,-115 30,-26 71,-39 121,-39 52,0 92,14 122,42 30,29 45,64 45,106 0,22 -4,43 -13,63 -9,21 -23,43 -44,66 -20,22 -54,54 -101,94 -39,33 -64,55 -76,67 -11,12 -20,24 -27,35l262 0z"/>
  <polygon id="7" class="fil3" points="11416,2884 11571,2332 11624,2332 11468,2884 "/>
  <path id="8" class="fil3" d="M11622 2875l205 -534 77 0 218 534 -80 0 -62 -162 -225 0 -58 162 -75 0zm153 -219l183 0 -56 -148c-17,-45 -30,-83 -38,-112 -8,35 -18,69 -30,103l-59 157z"/>
  <polygon id="9" class="fil3" points="12121,2884 12276,2332 12329,2332 12173,2884 "/>
  <polygon id="10" class="fil3" points="12385,2875 12385,2341 12457,2341 12738,2760 12738,2341 12806,2341 12806,2875 12733,2875 12453,2456 12453,2875 "/>
  <path id="11" class="fil3" d="M12882 2875l0 -65 273 -343c20,-24 38,-45 56,-63l-298 0 0 -63 382 0 0 63 -300 370 -32 38 341 0 0 63 -422 0z"/>
  <path id="12" class="fil3" d="M13698 2812l0 63 -354 0c0,-16 2,-31 8,-45 9,-24 24,-48 44,-71 20,-24 48,-51 86,-81 57,-48 97,-85 117,-113 21,-28 31,-54 31,-79 0,-26 -9,-48 -28,-66 -19,-18 -43,-27 -73,-27 -32,0 -57,10 -76,28 -19,19 -29,45 -29,79l-67 -7c5,-50 22,-88 52,-115 30,-26 71,-39 122,-39 51,0 92,14 121,42 30,29 45,64 45,106 0,22 -4,43 -13,63 -9,21 -23,43 -43,66 -21,22 -55,54 -102,94 -39,33 -64,55 -76,67 -11,12 -20,24 -27,35l262 0z"/>
  <polygon id="13" class="fil3" points="13738,2884 13893,2332 13946,2332 13791,2884 "/>
  <path id="14" class="fil3" d="M13976 2611c0,-63 7,-114 20,-152 13,-39 32,-69 58,-89 25,-21 57,-31 96,-31 29,0 54,5 76,17 21,11 39,28 53,50 14,22 25,48 33,79 8,31 12,74 12,126 0,63 -6,114 -19,152 -13,39 -32,69 -58,90 -25,21 -58,31 -97,31 -51,0 -92,-18 -121,-55 -35,-45 -53,-117 -53,-218zm68 1c0,88 10,146 30,175 21,29 46,43 76,43 30,0 56,-14 76,-43 21,-29 31,-88 31,-175 0,-88 -10,-147 -31,-175 -20,-29 -46,-44 -76,-44 -31,0 -55,13 -73,38 -22,33 -33,93 -33,181z"/>
  <path id="15" class="fil3" d="M14391 2611c0,-63 7,-114 20,-152 13,-39 32,-69 58,-89 25,-21 57,-31 96,-31 29,0 54,5 76,17 21,11 39,28 53,50 14,22 25,48 33,79 8,31 12,74 12,126 0,63 -6,114 -19,152 -13,39 -32,69 -58,90 -25,21 -58,31 -97,31 -51,0 -91,-18 -121,-55 -35,-45 -53,-117 -53,-218zm68 1c0,88 10,146 30,175 21,29 46,43 76,43 30,0 56,-14 76,-43 21,-29 31,-88 31,-175 0,-88 -10,-147 -31,-175 -20,-29 -46,-44 -76,-44 -31,0 -55,13 -73,38 -22,33 -33,93 -33,181z"/>
  <path id="16" class="fil3" d="M15053 2875l-66 0 0 -418c-16,15 -37,30 -62,45 -26,15 -49,27 -69,34l0 -63c36,-17 68,-38 96,-63 27,-24 47,-48 58,-71l43 0 0 536z"/>
  <path id="17" class="fil3" d="M15323 2585c-28,-9 -48,-24 -61,-42 -13,-19 -20,-41 -20,-67 0,-39 14,-71 42,-98 28,-26 65,-39 112,-39 46,0 84,13 112,40 28,27 43,60 43,99 0,25 -7,47 -20,65 -13,18 -32,33 -59,42 33,11 58,28 75,52 17,24 25,52 25,85 0,46 -16,84 -48,115 -33,32 -75,47 -128,47 -52,0 -95,-15 -127,-47 -32,-31 -48,-70 -48,-116 0,-35 9,-64 26,-88 18,-23 43,-39 76,-48zm-13 -111c0,25 8,46 24,62 16,16 37,24 63,24 26,0 46,-8 62,-24 16,-16 24,-35 24,-58 0,-24 -8,-45 -24,-61 -17,-16 -38,-25 -63,-25 -25,0 -46,8 -62,24 -16,17 -24,36 -24,58zm-22 247c0,19 4,37 13,54 9,18 22,31 40,41 17,10 36,14 56,14 32,0 57,-10 78,-30 20,-20 30,-46 30,-77 0,-31 -10,-57 -31,-78 -21,-21 -47,-31 -79,-31 -31,0 -57,10 -77,31 -20,20 -30,45 -30,76z"/>
  <path id="18" class="fil3" d="M15846 2875l0 -127 -232 0 0 -61 244 -346 54 0 0 346 72 0 0 61 -72 0 0 127 -66 0zm0 -188l0 -240 -167 240 167 0z"/>
  <path id="19" class="fil3" d="M4047 2875l0 -534 106 0 126 378c12,35 20,62 26,79 6,-19 15,-48 28,-86l129 -371 95 0 0 534 -68 0 0 -447 -156 447 -64 0 -154 -455 0 455 -68 0z"/>
  <path id="20" class="fil3" d="M4612 2875l204 -534 78 0 218 534 -81 0 -62 -162 -225 0 -57 162 -75 0zm153 -219l182 0 -55 -148c-17,-45 -30,-83 -39,-112 -7,35 -17,69 -29,103l-59 157z"/>
  <polygon id="21" class="fil3" points="5169,2875 5169,2341 5555,2341 5555,2404 5240,2404 5240,2568 5535,2568 5535,2630 5240,2630 5240,2812 5568,2812 5568,2875 "/>
  <path id="22" class="fil3" d="M5642 2704l67 -6c3,26 10,48 22,66 11,17 29,31 54,42 24,10 51,15 82,15 27,0 50,-4 71,-12 21,-8 36,-19 46,-33 10,-14 15,-29 15,-46 0,-16 -5,-31 -14,-43 -10,-13 -26,-23 -49,-32 -14,-5 -46,-14 -95,-26 -49,-12 -83,-23 -103,-33 -25,-14 -44,-30 -57,-50 -12,-20 -18,-42 -18,-67 0,-27 7,-52 23,-75 15,-24 37,-42 67,-54 29,-12 62,-18 98,-18 39,0 74,6 104,19 31,13 54,32 70,56 16,25 25,53 26,85l-68 5c-3,-34 -15,-59 -36,-77 -21,-17 -53,-25 -94,-25 -42,0 -74,7 -93,23 -20,16 -30,35 -30,57 0,19 7,35 21,47 14,13 49,25 107,38 57,13 97,25 118,34 31,15 54,33 69,55 15,22 22,47 22,75 0,29 -8,56 -24,81 -17,25 -40,44 -70,58 -31,14 -65,21 -103,21 -48,0 -89,-7 -121,-21 -33,-14 -59,-35 -77,-64 -19,-28 -29,-60 -30,-95z"/>
  <polygon id="23" class="fil3" points="6299,2875 6299,2404 6123,2404 6123,2341 6546,2341 6546,2404 6370,2404 6370,2875 "/>
  <path id="24" class="fil3" d="M6621 2875l0 -534 236 0c48,0 84,5 109,14 25,10 45,27 59,51 15,24 22,51 22,81 0,37 -12,69 -36,95 -25,26 -63,43 -114,50 19,9 33,18 43,27 20,18 40,42 58,71l93 145 -89 0 -70 -111c-21,-32 -38,-57 -51,-74 -14,-17 -26,-29 -36,-35 -11,-7 -21,-12 -32,-15 -8,-1 -21,-2 -40,-2l-81 0 0 237 -71 0zm71 -298l151 0c33,0 58,-4 76,-10 18,-7 32,-18 41,-32 10,-15 14,-31 14,-48 0,-26 -9,-47 -27,-63 -18,-16 -47,-24 -87,-24l-168 0 0 177z"/>
  <path id="25" class="fil3" d="M7136 2615c0,-88 24,-158 72,-208 48,-50 109,-75 184,-75 50,0 94,12 134,35 39,24 70,57 90,99 21,42 32,90 32,143 0,54 -11,102 -33,145 -22,43 -53,75 -93,97 -40,22 -84,33 -130,33 -50,0 -95,-12 -135,-36 -40,-25 -70,-58 -90,-100 -20,-42 -31,-86 -31,-133zm74 1c0,65 17,115 51,152 35,37 78,56 131,56 53,0 96,-19 131,-56 34,-38 51,-91 51,-159 0,-44 -7,-82 -22,-114 -14,-32 -36,-57 -64,-75 -28,-18 -60,-27 -95,-27 -50,0 -93,17 -129,52 -36,34 -54,91 -54,171z"/>
  <path id="26" class="fil3" d="M8021 2585c-27,-9 -48,-24 -61,-42 -13,-19 -19,-41 -19,-67 0,-39 14,-71 41,-98 28,-26 65,-39 112,-39 46,0 84,13 112,40 29,27 43,60 43,99 0,25 -7,47 -20,65 -13,18 -32,33 -59,42 33,11 58,28 75,52 17,24 25,52 25,85 0,46 -16,84 -48,115 -32,32 -75,47 -127,47 -53,0 -95,-15 -128,-47 -32,-31 -48,-70 -48,-116 0,-35 9,-64 26,-88 18,-23 43,-39 76,-48zm-13 -111c0,25 8,46 24,62 16,16 37,24 63,24 26,0 47,-8 63,-24 16,-16 24,-35 24,-58 0,-24 -9,-45 -25,-61 -17,-16 -37,-25 -62,-25 -26,0 -46,8 -63,24 -16,17 -24,36 -24,58zm-22 247c0,19 4,37 13,54 9,18 22,31 40,41 17,10 36,14 56,14 32,0 58,-10 78,-30 20,-20 30,-46 30,-77 0,-31 -10,-57 -31,-78 -21,-21 -47,-31 -79,-31 -31,0 -57,10 -77,31 -20,20 -30,45 -30,76z"/>
  <polygon id="27" class="fil3" points="8561,3024 8561,2341 8706,2341 8706,2395 8627,2395 8627,2969 8706,2969 8706,3024 "/>
  <polygon id="28" class="fil3" points="16179,3024 16034,3024 16034,2969 16113,2969 16113,2395 16034,2395 16034,2341 16179,2341 "/>
  <path class="fil3" d="M4055 2101l0 -534 202 0c35,0 63,1 81,5 27,4 49,12 66,25 18,12 32,29 43,51 11,22 16,46 16,73 0,45 -14,84 -43,115 -29,31 -81,47 -157,47l-137 0 0 218 -71 0zm71 -281l138 0c46,0 78,-8 98,-25 19,-17 28,-41 28,-72 0,-22 -5,-41 -17,-57 -11,-16 -26,-27 -44,-32 -12,-3 -34,-5 -66,-5l-137 0 0 191z"/>
  <path id="1" class="fil3" d="M4531 1841c0,-89 24,-158 72,-208 48,-50 109,-75 184,-75 50,0 94,12 134,35 39,24 70,56 90,99 21,42 32,89 32,143 0,54 -11,102 -33,145 -22,43 -53,75 -93,97 -40,22 -84,33 -130,33 -50,0 -95,-12 -135,-37 -40,-24 -70,-57 -90,-99 -20,-42 -31,-86 -31,-133zm74 1c0,64 17,115 51,152 35,37 78,55 131,55 53,0 96,-18 131,-56 34,-37 51,-90 51,-158 0,-44 -7,-82 -22,-114 -14,-32 -36,-58 -64,-75 -28,-18 -60,-27 -95,-27 -50,0 -93,17 -129,51 -36,35 -54,92 -54,172z"/>
  <polygon id="2" class="fil3" points="5130,2101 5130,1567 5201,1567 5201,2038 5464,2038 5464,2101 "/>
  <path id="3" class="fil3" d="M5490 2101l205 -534 78 0 217 534 -80 0 -62 -162 -225 0 -58 162 -75 0zm154 -219l182 0 -56 -149c-17,-45 -29,-82 -38,-111 -8,35 -17,69 -30,103l-58 157z"/>
  <polygon id="4" class="fil3" points="6045,2101 6045,1567 6118,1567 6398,1986 6398,1567 6466,1567 6466,2101 6394,2101 6113,1682 6113,2101 "/>
  <path id="5" class="fil3" d="M6585 2101l0 -534 184 0c42,0 73,2 95,7 31,7 57,20 79,39 28,23 49,54 63,91 14,37 21,79 21,127 0,40 -5,76 -14,108 -10,31 -22,57 -37,78 -15,20 -31,36 -48,48 -18,12 -39,21 -64,27 -25,6 -54,9 -86,9l-193 0zm71 -63l114 0c35,0 63,-3 83,-10 20,-6 36,-15 48,-27 16,-17 29,-40 39,-68 9,-28 14,-63 14,-103 0,-56 -9,-99 -28,-129 -18,-30 -40,-51 -66,-61 -19,-7 -50,-11 -92,-11l-112 0 0 409z"/>
 </g>
</svg>
