<?xml version="1.0" encoding="UTF-8" standalone="no"?>
<!-- Creator: CorelDRAW X8 -->

<svg
   xml:space="preserve"
   width="533.58594"
   height="75"
   version="1.1"
   style="clip-rule:evenodd;fill-rule:evenodd;image-rendering:optimizeQuality;shape-rendering:geometricPrecision;text-rendering:geometricPrecision"
   viewBox="0 0 13574.558 1908.0861"
   id="svg22"
   sodipodi:docname="ncn_logo.svg"
   inkscape:version="1.3 (0e150ed6c4, 2023-07-21)"
   xmlns:inkscape="http://www.inkscape.org/namespaces/inkscape"
   xmlns:sodipodi="http://sodipodi.sourceforge.net/DTD/sodipodi-0.dtd"
   xmlns="http://www.w3.org/2000/svg"
   xmlns:svg="http://www.w3.org/2000/svg"><sodipodi:namedview
   id="namedview22"
   pagecolor="#ffffff"
   bordercolor="#000000"
   borderopacity="0.25"
   inkscape:showpageshadow="2"
   inkscape:pageopacity="0.0"
   inkscape:pagecheckerboard="0"
   inkscape:deskcolor="#d1d1d1"
   inkscape:document-units="px"
   inkscape:zoom="1.9596219"
   inkscape:cx="175.54407"
   inkscape:cy="166.61377"
   inkscape:window-width="1435"
   inkscape:window-height="1237"
   inkscape:window-x="539"
   inkscape:window-y="153"
   inkscape:window-maximized="0"
   inkscape:current-layer="Warstwa_x0020_1" />&#10; <defs
   id="defs1">&#10;  <style
   type="text/css"
   id="style1">&#10;   <![CDATA[
    .fil0 {fill:#FEFEFE}
    .fil2 {fill:#E32B4B}
    .fil1 {fill:#E32D4C}
    .fil3 {fill:#2B2A29;fill-rule:nonzero}
   ]]>&#10;  </style>&#10; </defs>&#10; <g
   id="Warstwa_x0020_1"
   inkscape:label="Warstwa 1"
   inkscape:groupmode="layer">&#10;  <metadata
   id="CorelCorpID_0Corel-Layer" />&#10;  <g
   id="_1374433346688"
   transform="matrix(0.57768274,0,0,0.57768274,3681.2371,2.2950358)">&#10;   <rect
   class="fil0"
   width="3486"
   height="3303"
   id="rect1"
   x="0"
   y="0" />&#10;   <g
   id="g1">&#10;    <path
   class="fil1"
   d="m 0,3303 h 642 l 7,-2119 2654,2119 h 183 V 2202 C 2596,1731 1575,1288 1468,0 H 0 Z"
   id="path1" />&#10;    <polygon
   class="fil1"
   points="2385,3303 1193,2385 1193,3303 "
   id="polygon1" />&#10;   </g>&#10;   <path
   class="fil2"
   d="M 3486,0 H 2202 c 15,697 709,1334 1284,1468 z"
   id="path2" />&#10;  </g>&#10;  <polygon
   class="fil3"
   points="4156,524 4575,1151 4575,524 4677,524 4677,1322 4568,1322 4149,696 4149,1322 4048,1322 4048,524 "
   id="polygon2"
   transform="matrix(0.57768274,0,0,0.57768274,3681.2371,2.2950358)" />&#10;  <path
   id="1"
   class="fil3"
   d="m 8849.7646,618.10483 57.7683,-5.19915 c 2.3106,23.10731 8.6652,42.17084 18.4858,57.19059 10.3982,14.44207 25.418,26.57341 46.7922,35.81634 20.7966,9.24292 44.4816,13.86438 70.4774,13.86438 23.685,0 43.9038,-3.4661 61.812,-10.39829 17.9082,-6.93219 31.1949,-16.75281 39.8601,-28.88413 8.6653,-12.13134 12.709,-25.41805 12.709,-39.28243 0,-14.44208 -4.0437,-27.1511 -12.1314,-37.54938 -8.6652,-10.97597 -22.5295,-20.21889 -41.593,-27.72878 -12.7091,-4.62145 -39.8601,-12.13134 -82.6086,-21.95194 -42.1709,-10.39829 -71.6328,-20.21889 -88.9632,-28.88414 -21.9519,-11.55364 -38.127,-25.99571 -49.1031,-43.3262 -10.3983,-16.7528 -16.1751,-36.39401 -16.1751,-57.19059 0,-23.68499 6.9322,-45.05925 20.2189,-65.27816 13.2867,-20.21889 32.3502,-35.81632 57.7683,-46.2146 25.418,-10.3983 53.7245,-16.17512 84.3417,-16.17512 34.661,0 64.7004,5.77682 90.6962,16.7528 25.9957,10.97596 46.2145,27.15109 60.079,48.52534 14.442,21.37426 21.9519,45.63694 22.5296,72.78804 l -58.346,4.62145 c -2.8884,-29.46181 -13.8643,-51.41376 -31.7725,-65.85583 -18.4859,-15.01976 -45.0593,-22.52963 -80.8757,-22.52963 -36.3939,0 -63.5451,6.93219 -80.2978,20.21889 -16.7528,13.8644 -25.418,30.03951 -25.418,49.10304 0,16.7528 5.7768,30.0395 17.9081,41.01548 11.5537,10.39828 42.1708,21.37426 91.8516,32.92791 49.6807,10.97598 83.764,20.79658 102.2499,29.46182 26.5734,12.13134 46.7922,27.72878 59.5012,46.79231 12.7091,19.06353 19.0635,40.43779 19.0635,65.27814 0,24.84036 -6.9321,47.36998 -21.3742,69.32192 -13.8644,21.37427 -34.0833,38.70476 -60.0789,50.2584 -26.5734,12.13134 -56.0354,18.48585 -88.9632,18.48585 -41.5932,0 -76.8318,-6.35451 -104.5607,-18.48585 -28.3063,-12.13132 -50.2584,-30.61717 -66.4335,-54.87985 -16.1751,-24.26268 -24.2626,-51.99145 -25.4179,-82.60863 z"
   style="stroke-width:0.577683" />&#10;  <path
   id="2"
   class="fil3"
   d="m 11754.353,604.24044 61.235,15.59743 c -12.709,50.2584 -35.817,88.38546 -68.744,114.38119 -32.928,26.5734 -73.944,39.8601 -121.892,39.8601 -49.68,0 -90.118,-10.39828 -121.313,-30.61717 -30.617,-20.21891 -54.302,-49.68072 -70.477,-87.80778 -16.175,-38.70475 -24.841,-79.72023 -24.841,-123.62412 0,-47.94766 9.243,-89.54081 27.729,-125.35714 18.486,-35.81634 44.482,-62.96742 78.565,-81.45326 33.506,-19.06353 71.055,-28.30646 111.493,-28.30646 46.214,0 84.919,12.13134 116.114,35.23865 31.773,23.68498 53.724,56.6129 65.856,99.36142 l -60.079,13.86439 c -10.398,-33.5056 -25.996,-57.76828 -46.215,-72.78802 -20.219,-15.59744 -46.214,-23.10732 -76.832,-23.10732 -35.238,0 -64.7,8.08756 -88.963,25.41804 -23.685,16.75281 -40.437,39.86011 -49.68,68.16657 -9.821,28.88413 -14.442,58.34596 -14.442,88.96313 0,38.70476 5.776,73.36572 16.752,102.24986 11.554,29.46181 29.462,51.41375 53.147,65.85583 24.263,14.44206 50.258,21.37426 77.987,21.37426 34.661,0 62.968,-9.82062 86.653,-29.46183 23.685,-19.6412 39.86,-49.10302 47.947,-87.80777 z"
   style="stroke-width:0.577683" />&#10;  <path
   id="3"
   class="fil3"
   d="m 6435.0507,765.99161 141.5322,-369.13928 h 53.7246 l 150.1976,369.13928 h -55.4576 l -42.7486,-111.49277 h -155.3966 l -39.8601,111.49277 z m 106.2936,-151.35287 h 125.9349 l -38.7048,-102.24986 c -11.5536,-31.19486 -20.2189,-56.6129 -26.5734,-76.83179 -5.1991,23.68498 -11.5536,47.36998 -20.2189,70.47729 z"
   style="stroke-width:0.577683" />&#10;  <polygon
   id="4"
   class="fil3"
   points="5679,758 5679,1322 5595,1322 5595,758 5384,758 5384,683 5890,683 5890,758 "
   transform="matrix(0.57768274,0,0,0.57768274,3681.2371,2.2950358)" />&#10;  <polygon
   id="5"
   class="fil3"
   points="6076,683 6076,1322 5992,1322 5992,683 "
   transform="matrix(0.57768274,0,0,0.57768274,3681.2371,2.2950358)" />&#10;  <path
   id="6"
   class="fil3"
   d="m 7262.2924,586.33228 c 0,-61.23438 16.7528,-108.60436 49.6806,-143.26532 32.928,-34.66097 75.0989,-51.99144 127.0902,-51.99144 34.0833,0 64.7006,8.08755 92.4293,24.26266 27.1512,16.17512 47.9478,38.70476 62.3898,68.16657 14.442,28.88413 21.3742,61.81206 21.3742,98.78374 0,37.54938 -7.5099,71.05499 -22.5295,100.5168 -15.0198,29.46183 -36.3941,51.41377 -64.1229,67.01121 -27.7287,15.01974 -57.7683,22.52962 -89.5409,22.52962 -34.6609,0 -65.8557,-8.66524 -93.0069,-25.41804 -27.7287,-16.75281 -48.5253,-39.28243 -62.3896,-68.16657 -13.8645,-28.88413 -21.3743,-60.079 -21.3743,-92.42923 z m 50.8361,1.15536 c 0,44.48157 11.5536,79.14254 35.8162,104.56057 23.685,25.99574 53.7246,38.70476 89.5409,38.70476 36.9717,0 67.0113,-13.28672 90.6963,-38.70476 24.2626,-25.99571 35.8162,-62.38973 35.8162,-109.75972 0,-30.03949 -5.1991,-56.03521 -15.0198,-78.56485 -10.3983,-22.52962 -25.4179,-39.8601 -44.4814,-51.99144 -19.6413,-12.13134 -41.5932,-18.48585 -65.8559,-18.48585 -34.6609,0 -64.1229,11.55366 -89.5408,35.23865 -24.8405,24.26268 -36.9717,63.54509 -36.9717,119.00264 z"
   style="stroke-width:0.577683" />&#10;  <polygon
   id="7"
   class="fil3"
   points="7005,683 7340,1185 7340,683 7421,683 7421,1322 7335,1322 6999,821 6999,1322 6918,1322 6918,683 "
   transform="matrix(0.57768274,0,0,0.57768274,3681.2371,2.2950358)" />&#10;  <path
   id="8"
   class="fil3"
   d="m 8009.8138,765.99161 142.11,-369.13928 h 53.1468 l 150.7752,369.13928 h -56.0352 l -42.7485,-111.49277 h -155.3967 l -39.8601,111.49277 z m 106.2936,-151.35287 h 125.9349 l -38.7048,-102.24986 c -11.5536,-31.19486 -20.2188,-56.6129 -25.9956,-76.83179 -5.1991,23.68498 -12.1314,47.36998 -20.7966,70.47729 z"
   style="stroke-width:0.577683" />&#10;  <polygon
   id="9"
   class="fil3"
   points="8554,1247 8554,1322 8155,1322 8155,683 8240,683 8240,1247 "
   transform="matrix(0.57768274,0,0,0.57768274,3681.2371,2.2950358)" />&#10;  <path
   id="10"
   class="fil3"
   d="m 9552.8044,636.59068 48.5254,12.70902 c -9.8206,39.8601 -28.3065,70.47729 -54.8799,91.27387 -26.5734,21.37425 -58.9236,31.77255 -97.6284,31.77255 -39.2824,0 -71.6326,-8.08756 -97.0507,-24.26268 -24.8403,-16.17511 -43.3262,-39.86011 -56.6129,-70.47729 -12.709,-30.61718 -19.6411,-63.54511 -19.6411,-98.78375 0,-38.12706 7.5097,-71.63267 21.9519,-100.5168 15.0198,-28.30645 35.8162,-50.2584 62.9674,-65.27814 27.1511,-14.44207 56.6129,-21.95194 89.5409,-21.95194 36.3939,0 67.5888,9.24292 93.0069,28.30645 24.8403,18.48584 42.1708,45.05925 52.5691,79.14254 l -47.9478,10.97596 c -8.6652,-26.5734 -21.3742,-46.21461 -37.5493,-58.34595 -16.1751,-12.13134 -36.3939,-18.48585 -61.2344,-18.48585 -28.3065,0 -51.9915,6.93219 -71.055,20.21889 -19.0635,13.8644 -32.3502,31.77255 -39.8601,54.87987 -7.5099,23.1073 -11.5536,46.7923 -11.5536,71.05497 0,31.19487 4.6215,58.34596 13.2867,82.03095 9.2429,23.10731 23.685,41.01547 42.7485,52.56913 19.0635,11.55366 39.8601,17.33049 62.3898,17.33049 27.1511,0 50.2584,-8.08757 69.3219,-23.685 19.0635,-16.17512 31.7726,-39.28242 38.7047,-70.47729 z"
   style="stroke-width:0.577683" />&#10;  <polygon
   id="11"
   class="fil3"
   points="10452,683 10452,1322 10367,1322 10367,683 "
   transform="matrix(0.57768274,0,0,0.57768274,3681.2371,2.2950358)" />&#10;  <polygon
   id="12"
   class="fil3"
   points="11079,1247 11079,1322 10602,1322 10602,683 11064,683 11064,758 10687,758 10687,955 11040,955 11040,1030 10687,1030 10687,1247 "
   transform="matrix(0.57768274,0,0,0.57768274,3681.2371,2.2950358)" />&#10;  <polygon
   id="13"
   class="fil3"
   points="11282,683 11617,1185 11617,683 11698,683 11698,1322 11611,1322 11276,821 11276,1322 11195,1322 11195,683 "
   transform="matrix(0.57768274,0,0,0.57768274,3681.2371,2.2950358)" />&#10;  <path
   id="14"
   class="fil3"
   d="m 10783.846,636.59068 49.103,12.70902 c -10.398,39.8601 -28.884,70.47729 -55.457,91.27387 -26.574,21.37425 -58.924,31.77255 -97.051,31.77255 -39.86,0 -72.21,-8.08756 -97.051,-24.26268 -24.84,-16.17511 -43.904,-39.86011 -56.612,-70.47729 -13.287,-30.61718 -19.642,-63.54511 -19.642,-98.78375 0,-38.12706 7.51,-71.63267 21.952,-100.5168 15.02,-28.30645 35.817,-50.2584 62.39,-65.27814 27.151,-14.44207 57.191,-21.95194 89.541,-21.95194 36.971,0 68.166,9.24292 93.007,28.30645 25.418,18.48584 42.748,45.05925 52.569,79.14254 l -47.948,10.97596 c -8.665,-26.5734 -20.796,-46.21461 -36.972,-58.34595 -16.175,-12.13134 -36.971,-18.48585 -61.234,-18.48585 -28.306,0 -51.991,6.93219 -71.055,20.21889 -19.063,13.8644 -32.35,31.77255 -39.86,54.87987 -8.088,23.1073 -12.131,46.7923 -12.131,71.05497 0,31.19487 4.621,58.34596 13.864,82.03095 9.243,23.10731 23.107,41.01547 42.749,52.56913 19.063,11.55366 39.86,17.33049 62.389,17.33049 27.151,0 50.259,-8.08757 69.322,-23.685 18.486,-16.17512 31.773,-39.28242 38.127,-70.47729 z"
   style="stroke-width:0.577683" />&#10;  <polygon
   id="15"
   class="fil3"
   points="12963,1247 12963,1322 12486,1322 12486,683 12947,683 12947,758 12571,758 12571,955 12923,955 12923,1030 12571,1030 12571,1247 "
   transform="matrix(0.57768274,0,0,0.57768274,3681.2371,2.2950358)" />&#10;  <polygon
   id="16"
   class="fil3"
   points="14673,1247 14673,1322 14197,1322 14197,683 14658,683 14658,758 14281,758 14281,955 14634,955 14634,1030 14281,1030 14281,1247 "
   transform="matrix(0.57768274,0,0,0.57768274,3681.2371,2.2950358)" />&#10;  <polygon
   id="17"
   class="fil3"
   points="14876,683 15211,1185 15211,683 15292,683 15292,1322 15205,1322 14870,821 14870,1322 14789,1322 14789,683 "
   transform="matrix(0.57768274,0,0,0.57768274,3681.2371,2.2950358)" />&#10;  <polygon
   id="18"
   class="fil3"
   points="15681,758 15681,1322 15597,1322 15597,758 15386,758 15386,683 15892,683 15892,758 "
   transform="matrix(0.57768274,0,0,0.57768274,3681.2371,2.2950358)" />&#10;  <path
   id="19"
   class="fil3"
   d="M 12913.185,765.99161 V 396.85233 h 163.484 c 32.928,0 57.768,3.46611 75.099,10.3983 16.753,6.35451 30.617,17.90816 41.015,34.66097 9.821,16.75279 15.02,35.81632 15.02,56.03523 0,25.99571 -8.087,47.94766 -25.418,65.85581 -16.753,17.90817 -42.748,29.46183 -78.565,34.08329 13.287,6.35451 23.107,12.70902 30.04,18.48585 13.864,13.2867 27.729,29.46183 39.86,49.10304 l 64.123,100.51679 h -61.235 l -48.525,-76.83181 c -14.442,-21.95194 -25.996,-38.70474 -35.239,-50.83608 -9.243,-11.55366 -17.33,-19.64121 -24.84,-24.26268 -6.932,-5.19913 -14.442,-8.08755 -21.952,-9.8206 -5.777,-1.15536 -15.02,-1.73304 -27.151,-1.73304 h -56.613 v 163.48421 z m 49.103,-206.23274 h 104.561 c 22.529,0 39.86,-2.31074 52.569,-6.93219 12.131,-4.62146 21.952,-11.55366 28.306,-21.95195 6.355,-10.39828 9.821,-21.37426 9.821,-32.9279 0,-17.33049 -6.355,-31.77257 -19.064,-43.32621 -12.709,-10.97598 -32.35,-16.75281 -59.501,-16.75281 h -116.692 z"
   style="stroke-width:0.577683" />&#10;  <polygon
   id="20"
   class="fil3"
   points="17102,1247 17102,1322 16625,1322 16625,683 17087,683 17087,758 16710,758 16710,955 17062,955 17062,1030 16710,1030 16710,1247 "
   transform="matrix(0.57768274,0,0,0.57768274,3681.2371,2.2950358)" />&#10;  <path
   class="fil3"
   d="m 8934.1063,1626.7387 v 36.3941 h -203.9221 c -0.5777,-9.243 1.1554,-17.9082 4.0438,-25.9958 5.1992,-13.8643 13.8644,-27.7288 25.4181,-41.0155 11.5536,-13.8644 28.3063,-29.4618 49.6806,-46.7922 33.5056,-27.7289 56.0353,-49.103 68.1666,-65.2781 11.5537,-16.1751 17.3305,-31.1948 17.3305,-45.6369 0,-15.0198 -5.1991,-27.7288 -16.1751,-38.1271 -10.3983,-10.3983 -24.8404,-15.5974 -42.1708,-15.5974 -17.9082,0 -32.928,5.7768 -43.904,16.1751 -10.9759,10.976 -16.1751,25.9957 -16.1751,45.6369 l -39.2824,-4.0437 c 2.8884,-28.8842 12.7091,-50.8361 30.0394,-66.4335 17.9082,-15.0198 41.0156,-22.5297 70.4774,-22.5297 29.4618,0 53.1468,8.0876 70.4773,24.2627 17.3304,16.7528 25.9958,36.9717 25.9958,61.2344 0,12.709 -2.8886,24.8403 -8.0876,36.394 -4.6215,12.1313 -13.2868,24.8403 -24.8404,38.1269 -11.5536,12.709 -31.1949,31.1949 -58.346,54.3022 -23.1073,19.0635 -37.5493,31.7726 -43.9039,38.7047 -6.3545,6.9322 -12.1313,13.8645 -16.1751,20.2189 z"
   id="path3"
   style="stroke-width:0.577683" />&#10;  <path
   id="path4"
   class="fil3"
   d="m 8975.1217,1510.6245 c 0,-36.3939 4.0438,-65.8557 11.5536,-87.8076 7.5099,-22.5297 18.4858,-39.8602 33.5056,-51.4138 14.4422,-12.1314 32.928,-17.9082 55.4576,-17.9082 16.7527,0 31.1949,2.8884 43.9039,9.8206 12.1313,6.3545 22.5296,16.1751 30.6171,28.8842 8.0876,12.709 14.4422,27.7287 19.0635,45.6369 4.6215,17.9082 6.9323,42.7486 6.9323,72.7879 0,36.394 -3.4661,65.8558 -10.976,87.8077 -7.5099,22.5297 -18.4858,39.8601 -33.5056,51.9915 -14.442,12.1314 -33.5055,17.9082 -56.0352,17.9082 -29.4618,0 -53.1468,-10.3983 -69.8996,-31.7725 -20.2189,-25.9958 -30.6172,-67.589 -30.6172,-125.9349 z m 39.2824,0.5776 c 0,50.8362 5.7768,84.3417 17.3304,101.0946 12.1314,16.7528 26.5736,24.8403 43.904,24.8403 17.3305,0 32.3502,-8.0875 43.9039,-24.8403 12.1313,-16.7529 17.9081,-50.8362 17.9081,-101.0946 0,-50.8359 -5.7768,-84.9191 -17.9081,-101.0943 -11.5537,-16.7528 -26.5734,-25.418 -43.9039,-25.418 -17.9082,0 -31.7726,7.5099 -42.1709,21.9519 -12.709,19.0636 -19.0635,53.7245 -19.0635,104.5604 z"
   style="stroke-width:0.577683" />&#10;  <path
   id="path5"
   class="fil3"
   d="m 9357.5477,1663.1328 h -38.1271 v -241.4713 c -9.2429,8.6652 -21.3743,17.3305 -35.8163,25.9957 -15.0198,8.6652 -28.3065,15.5974 -39.8601,19.6412 v -36.394 c 20.7965,-9.8206 39.2823,-21.9519 55.4576,-36.394 15.5973,-13.8644 27.151,-27.7288 33.5055,-41.0155 h 24.8404 z"
   style="stroke-width:0.577683" />&#10;  <path
   id="path6"
   class="fil3"
   d="m 9652.1659,1429.749 -37.5494,3.4661 c -3.4662,-15.0197 -8.6652,-25.9957 -14.4421,-32.9279 -10.3983,-10.3983 -23.1072,-16.1751 -38.127,-16.1751 -12.1314,0 -23.1074,3.4661 -32.3502,10.3983 -12.1314,8.6652 -21.3743,21.3743 -28.3065,38.1271 -6.9323,16.7528 -10.3983,40.4378 -10.976,71.0549 9.2429,-13.8644 20.7966,-24.2627 33.5057,-30.6171 13.2867,-6.9322 27.151,-10.3983 41.593,-10.3983 25.4181,0 46.7924,9.2429 64.7006,28.3063 17.908,18.4859 26.5734,42.1709 26.5734,71.6327 0,19.6411 -4.0439,37.5493 -12.1314,54.3021 -8.6652,16.7529 -20.2188,29.4618 -34.661,38.1271 -14.442,8.6652 -31.1949,13.2867 -49.6807,13.2867 -31.7726,0 -57.1905,-11.5537 -77.4095,-34.6609 -19.6411,-23.1074 -30.0394,-61.8122 -30.0394,-114.959 0,-59.5011 11.5536,-102.8273 33.5055,-129.9784 19.0636,-23.685 45.0592,-35.2387 77.9872,-35.2387 24.2627,0 43.9038,6.3545 59.5013,20.2189 15.5974,13.2867 24.8404,32.3502 28.3065,56.0352 z m -155.3967,133.4446 c 0,13.2867 2.8884,25.4181 8.0875,37.5494 5.7768,12.1314 13.2867,20.7966 23.1074,27.151 10.3983,6.3546 20.7966,9.243 31.7725,9.243 16.1751,0 30.0395,-6.3544 41.5932,-19.0635 10.976,-13.2867 16.7528,-30.6172 16.7528,-52.5691 0,-21.3743 -5.7768,-38.1272 -16.7528,-50.8361 -11.5537,-12.1314 -25.4181,-18.4858 -43.3263,-18.4858 -16.7527,0 -31.7725,6.3544 -43.3261,18.4858 -12.1314,12.7089 -17.9082,28.3064 -17.9082,48.5253 z"
   style="stroke-width:0.577683" />&#10;  <polygon
   id="polygon6"
   class="fil3"
   points="10586,2332 10431,2884 10378,2884 10533,2332 "
   transform="matrix(0.57768274,0,0,0.57768274,3681.2371,2.2950358)" />&#10;  <path
   id="path7"
   class="fil3"
   d="m 10013.217,1626.7387 v 36.3941 h -204.4991 c 0,-9.243 1.1554,-17.9082 4.6215,-25.9958 5.1991,-13.8643 13.2867,-27.7288 25.4181,-41.0155 11.5536,-13.8644 27.7287,-29.4618 49.1029,-46.7922 33.5057,-27.7289 56.0352,-49.103 68.1666,-65.2781 12.1313,-16.1751 17.9082,-31.1948 17.9082,-45.6369 0,-15.0198 -5.1991,-27.7288 -16.1751,-38.1271 -10.9761,-10.3983 -24.8404,-15.5974 -42.1708,-15.5974 -18.4859,0 -32.928,5.7768 -43.904,16.1751 -10.9759,10.976 -16.7527,25.9957 -16.7527,45.6369 l -38.7048,-4.0437 c 2.3107,-28.8842 12.709,-50.8361 30.0394,-66.4335 17.3306,-15.0198 41.0156,-22.5297 69.8997,-22.5297 30.0395,0 53.1468,8.0876 70.4772,24.2627 17.3309,16.7528 25.9959,36.9717 25.9959,61.2344 0,12.709 -2.311,24.8403 -7.51,36.394 -5.1992,12.1313 -13.2867,24.8403 -25.418,38.1269 -11.5537,12.709 -31.1949,31.1949 -58.3459,54.3022 -22.5297,19.0635 -37.5494,31.7726 -43.904,38.7047 -6.3544,6.9322 -11.5536,13.8645 -15.5974,20.2189 z"
   style="stroke-width:0.577683" />&#10;  <path
   id="path8"
   class="fil3"
   d="m 10252.956,1626.7387 v 36.3941 h -204.5 c 0,-9.243 1.156,-17.9082 4.622,-25.9958 5.199,-13.8643 13.864,-27.7288 25.418,-41.0155 11.553,-13.8644 27.729,-29.4618 49.103,-46.7922 33.505,-27.7289 56.035,-49.103 68.166,-65.2781 12.132,-16.1751 17.908,-31.1948 17.908,-45.6369 0,-15.0198 -5.199,-27.7288 -16.175,-38.1271 -10.976,-10.3983 -24.84,-15.5974 -42.171,-15.5974 -18.485,0 -32.927,5.7768 -43.903,16.1751 -10.976,10.976 -16.753,25.9957 -16.753,45.6369 l -38.705,-4.0437 c 2.311,-28.8842 12.709,-50.8361 30.04,-66.4335 17.33,-15.0198 41.015,-22.5297 69.899,-22.5297 30.04,0 53.147,8.0876 70.477,24.2627 17.331,16.7528 25.996,36.9717 25.996,61.2344 0,12.709 -2.311,24.8403 -7.51,36.394 -5.199,12.1313 -13.286,24.8403 -25.418,38.1269 -11.553,12.709 -31.195,31.1949 -58.346,54.3022 -22.529,19.0635 -36.971,31.7726 -43.904,38.7047 -6.354,6.9322 -11.553,13.8645 -15.597,20.2189 z"
   style="stroke-width:0.577683" />&#10;  <polygon
   id="polygon8"
   class="fil3"
   points="11624,2332 11468,2884 11416,2884 11571,2332 "
   transform="matrix(0.57768274,0,0,0.57768274,3681.2371,2.2950358)" />&#10;  <path
   id="path9"
   class="fil3"
   d="m 10395.066,1663.1328 118.425,-308.4825 h 44.481 l 125.935,308.4825 h -46.214 l -35.817,-93.5847 h -129.978 l -33.506,93.5847 z m 88.385,-126.5126 h 105.716 l -32.35,-85.4969 c -9.821,-25.9957 -17.331,-47.9477 -21.952,-64.7005 -4.621,20.2189 -10.398,39.8602 -17.33,59.5014 z"
   style="stroke-width:0.577683" />&#10;  <polygon
   id="polygon9"
   class="fil3"
   points="12329,2332 12173,2884 12121,2884 12276,2332 "
   transform="matrix(0.57768274,0,0,0.57768274,3681.2371,2.2950358)" />&#10;  <polygon
   id="polygon10"
   class="fil3"
   points="12457,2341 12738,2760 12738,2341 12806,2341 12806,2875 12733,2875 12453,2456 12453,2875 12385,2875 12385,2341 "
   transform="matrix(0.57768274,0,0,0.57768274,3681.2371,2.2950358)" />&#10;  <path
   id="path10"
   class="fil3"
   d="m 11122.946,1663.1328 v -37.5494 l 157.708,-198.1451 c 11.553,-13.8644 21.951,-25.9957 32.35,-36.394 h -172.15 v -36.394 h 220.675 v 36.394 l -173.305,213.7425 -18.486,21.9519 h 196.99 v 36.3941 z"
   style="stroke-width:0.577683" />&#10;  <path
   id="path11"
   class="fil3"
   d="m 11594.335,1626.7387 v 36.3941 h -204.499 c 0,-9.243 1.155,-17.9082 4.621,-25.9958 5.199,-13.8643 13.864,-27.7288 25.418,-41.0155 11.554,-13.8644 27.729,-29.4618 49.681,-46.7922 32.928,-27.7289 56.035,-49.103 67.589,-65.2781 12.131,-16.1751 17.908,-31.1948 17.908,-45.6369 0,-15.0198 -5.199,-27.7288 -16.175,-38.1271 -10.976,-10.3983 -24.841,-15.5974 -42.171,-15.5974 -18.486,0 -32.928,5.7768 -43.904,16.1751 -10.976,10.976 -16.753,25.9957 -16.753,45.6369 l -38.705,-4.0437 c 2.889,-28.8842 12.709,-50.8361 30.04,-66.4335 17.33,-15.0198 41.015,-22.5297 70.477,-22.5297 29.462,0 53.147,8.0876 69.9,24.2627 17.33,16.7528 25.996,36.9717 25.996,61.2344 0,12.709 -2.311,24.8403 -7.51,36.394 -5.199,12.1313 -13.287,24.8403 -24.841,38.1269 -12.131,12.709 -31.772,31.1949 -58.923,54.3022 -22.53,19.0635 -36.972,31.7726 -43.904,38.7047 -6.355,6.9322 -11.554,13.8645 -15.598,20.2189 z"
   style="stroke-width:0.577683" />&#10;  <polygon
   id="polygon11"
   class="fil3"
   points="13946,2332 13791,2884 13738,2884 13893,2332 "
   transform="matrix(0.57768274,0,0,0.57768274,3681.2371,2.2950358)" />&#10;  <path
   id="path12"
   class="fil3"
   d="m 11754.931,1510.6245 c 0,-36.3939 4.044,-65.8557 11.554,-87.8076 7.51,-22.5297 18.486,-39.8602 33.505,-51.4138 14.442,-12.1314 32.928,-17.9082 55.458,-17.9082 16.753,0 31.195,2.8884 43.904,9.8206 12.131,6.3545 22.529,16.1751 30.617,28.8842 8.087,12.709 14.442,27.7287 19.063,45.6369 4.622,17.9082 6.933,42.7486 6.933,72.7879 0,36.394 -3.466,65.8558 -10.976,87.8077 -7.51,22.5297 -18.486,39.8601 -33.506,51.9915 -14.442,12.1314 -33.506,17.9082 -56.035,17.9082 -29.462,0 -53.147,-10.3983 -69.9,-31.7725 -20.219,-25.9958 -30.617,-67.589 -30.617,-125.9349 z m 39.283,0.5776 c 0,50.8362 5.776,84.3417 17.33,101.0946 12.131,16.7528 26.573,24.8403 43.904,24.8403 17.33,0 32.35,-8.0875 43.904,-24.8403 12.131,-16.7529 17.908,-50.8362 17.908,-101.0946 0,-50.8359 -5.777,-84.9191 -17.908,-101.0943 -11.554,-16.7528 -26.574,-25.418 -43.904,-25.418 -17.908,0 -31.773,7.5099 -42.171,21.9519 -12.709,19.0636 -19.063,53.7245 -19.063,104.5604 z"
   style="stroke-width:0.577683" />&#10;  <path
   id="path13"
   class="fil3"
   d="m 11994.669,1510.6245 c 0,-36.3939 4.044,-65.8557 11.554,-87.8076 7.51,-22.5297 18.486,-39.8602 33.506,-51.4138 14.442,-12.1314 32.928,-17.9082 55.457,-17.9082 16.753,0 31.195,2.8884 43.904,9.8206 12.131,6.3545 22.53,16.1751 30.617,28.8842 8.088,12.709 14.442,27.7287 19.064,45.6369 4.621,17.9082 6.932,42.7486 6.932,72.7879 0,36.394 -3.466,65.8558 -10.976,87.8077 -7.51,22.5297 -18.486,39.8601 -33.506,51.9915 -14.442,12.1314 -33.505,17.9082 -56.035,17.9082 -29.462,0 -52.569,-10.3983 -69.899,-31.7725 -20.219,-25.9958 -30.618,-67.589 -30.618,-125.9349 z m 39.283,0.5776 c 0,50.8362 5.777,84.3417 17.33,101.0946 12.132,16.7528 26.574,24.8403 43.904,24.8403 17.331,0 32.35,-8.0875 43.904,-24.8403 12.131,-16.7529 17.908,-50.8362 17.908,-101.0946 0,-50.8359 -5.777,-84.9191 -17.908,-101.0943 -11.554,-16.7528 -26.573,-25.418 -43.904,-25.418 -17.908,0 -31.772,7.5099 -42.171,21.9519 -12.709,19.0636 -19.063,53.7245 -19.063,104.5604 z"
   style="stroke-width:0.577683" />&#10;  <path
   id="path14"
   class="fil3"
   d="m 12377.095,1663.1328 h -38.127 v -241.4713 c -9.243,8.6652 -21.374,17.3305 -35.816,25.9957 -15.02,8.6652 -28.307,15.5974 -39.86,19.6412 v -36.394 c 20.796,-9.8206 39.282,-21.9519 55.457,-36.394 15.598,-13.8644 27.151,-27.7288 33.506,-41.0155 h 24.84 z"
   style="stroke-width:0.577683" />&#10;  <path
   id="path15"
   class="fil3"
   d="m 12533.07,1495.6048 c -16.175,-5.1991 -27.729,-13.8643 -35.239,-24.2626 -7.51,-10.976 -11.554,-23.685 -11.554,-38.7047 0,-22.5297 8.088,-41.0155 24.263,-56.6129 16.175,-15.0198 37.549,-22.5297 64.701,-22.5297 26.573,0 48.525,7.5099 64.7,23.1073 16.175,15.5975 24.84,34.661 24.84,57.1906 0,14.4421 -4.043,27.1511 -11.553,37.5494 -7.51,10.3983 -18.486,19.0635 -34.084,24.2626 19.064,6.3545 33.506,16.1751 43.327,30.0395 9.82,13.8643 14.442,30.0394 14.442,49.1029 0,26.5734 -9.243,48.5255 -27.729,66.4335 -19.064,18.4859 -43.326,27.1512 -73.943,27.1512 -30.04,0 -54.88,-8.6653 -73.366,-27.1512 -18.486,-17.908 -27.729,-40.4377 -27.729,-67.0111 0,-20.2188 5.199,-36.9717 15.02,-50.8361 10.398,-13.2867 24.84,-22.5295 43.904,-27.7287 z m -7.51,-64.1227 c 0,14.4421 4.621,26.5734 13.864,35.8163 9.243,9.2429 21.374,13.8644 36.394,13.8644 15.02,0 26.574,-4.6215 35.817,-13.8644 9.242,-9.2429 13.864,-20.2189 13.864,-33.5056 0,-13.8644 -4.622,-25.9957 -13.864,-35.2386 -9.821,-9.2429 -21.952,-14.4421 -36.394,-14.4421 -14.443,0 -26.574,4.6215 -35.817,13.8644 -9.243,9.8206 -13.864,20.7966 -13.864,33.5056 z m -12.709,142.6875 c 0,10.9759 2.31,21.3742 7.51,31.1949 5.199,10.3983 12.709,17.9082 23.107,23.685 9.821,5.7768 20.797,8.0875 32.35,8.0875 18.486,0 32.928,-5.7768 45.059,-17.3305 11.554,-11.5536 17.331,-26.5734 17.331,-44.4815 0,-17.9082 -5.777,-32.928 -17.908,-45.0592 -12.132,-12.1314 -27.151,-17.9082 -45.637,-17.9082 -17.908,0 -32.928,5.7768 -44.482,17.9082 -11.553,11.5536 -17.33,25.9956 -17.33,43.9038 z"
   style="stroke-width:0.577683" />&#10;  <path
   id="path16"
   class="fil3"
   d="m 12835.198,1663.1328 v -73.3658 h -134.023 v -35.2386 l 140.955,-199.8781 h 31.195 v 199.8781 h 41.593 v 35.2386 h -41.593 v 73.3658 z m 0,-108.6044 v -138.6437 l -96.473,138.6437 z"
   style="stroke-width:0.577683" />&#10;  <path
   id="path17"
   class="fil3"
   d="m 6019.1192,1663.1328 v -308.4825 h 61.2343 l 72.788,218.364 c 6.9322,20.2188 11.5537,35.8162 15.0198,45.6369 3.466,-10.976 8.6652,-27.7289 16.1751,-49.6808 l 74.521,-214.3201 h 54.8799 v 308.4825 h -39.2824 v -258.2241 l -90.1185,258.2241 h -36.9717 l -88.9631,-262.8456 v 262.8456 z"
   style="stroke-width:0.577683" />&#10;  <path
   id="path18"
   class="fil3"
   d="m 6345.5099,1663.1328 117.8473,-308.4825 h 45.0593 l 125.9347,308.4825 h -46.7922 l -35.8164,-93.5847 H 6421.764 l -32.928,93.5847 z m 88.3854,-126.5126 h 105.1383 l -31.7726,-85.4969 c -9.8205,-25.9957 -17.3304,-47.9477 -22.5295,-64.7005 -4.0439,20.2189 -9.8207,39.8602 -16.7529,59.5014 z"
   style="stroke-width:0.577683" />&#10;  <polygon
   id="21"
   class="fil3"
   points="5568,2812 5568,2875 5169,2875 5169,2341 5555,2341 5555,2404 5240,2404 5240,2568 5535,2568 5535,2630 5240,2630 5240,2812 "
   transform="matrix(0.57768274,0,0,0.57768274,3681.2371,2.2950358)" />&#10;  <path
   id="22"
   class="fil3"
   d="m 6940.5231,1564.3489 38.7048,-3.466 c 1.733,15.0198 5.7768,27.7288 12.7089,38.1271 6.3546,9.8205 16.7529,17.9081 31.1949,24.2627 13.8644,5.7768 29.4618,8.6652 47.37,8.6652 15.5974,0 28.8841,-2.3108 41.0155,-6.9323 12.1313,-4.6213 20.7965,-10.9759 26.5734,-19.0635 5.7768,-8.0875 8.6652,-16.7527 8.6652,-26.5734 0,-9.2428 -2.8884,-17.9082 -8.0875,-24.8403 -5.7768,-7.5099 -15.0198,-13.2867 -28.3065,-18.4858 -8.0876,-2.8884 -26.5734,-8.0876 -54.8799,-15.0198 -28.3063,-6.9323 -47.9476,-13.2867 -59.5012,-19.0635 -14.442,-8.0876 -25.4181,-17.3304 -32.9279,-28.884 -6.9322,-11.5537 -10.3983,-24.2627 -10.3983,-38.7048 0,-15.5974 4.0437,-30.0395 13.2867,-43.3262 8.6652,-13.8644 21.3743,-24.2627 38.7047,-31.1949 16.7529,-6.9322 35.8164,-10.3983 56.613,-10.3983 22.5295,0 42.7484,3.4661 60.0788,10.976 17.9082,7.5099 31.1949,18.4859 40.4379,32.3502 9.2429,14.4421 14.442,30.6172 15.0197,49.1031 l -39.2825,2.8884 c -1.7329,-19.6412 -8.6652,-34.0833 -20.7964,-44.4816 -12.1314,-9.8206 -30.6173,-14.442 -54.3022,-14.442 -24.2627,0 -42.7485,4.0437 -53.7245,13.2867 -11.5537,9.2429 -17.3305,20.2188 -17.3305,32.9279 0,10.9759 4.0438,20.2189 12.1314,27.1511 8.0875,7.5098 28.3065,14.442 61.812,21.9519 32.9279,7.5098 56.0351,14.442 68.1665,19.6412 17.9082,8.6652 31.1949,19.0635 39.8601,31.7724 8.6652,12.709 12.7091,27.1512 12.7091,43.3263 0,16.7527 -4.6215,32.3502 -13.8644,46.7923 -9.8206,14.442 -23.1073,25.418 -40.4379,33.5055 -17.908,8.0876 -37.5493,12.1314 -59.5012,12.1314 -27.7288,0 -51.4138,-4.0438 -69.8997,-12.1314 -19.0635,-8.0875 -34.0833,-20.2188 -44.4814,-36.9717 -10.9761,-16.1751 -16.7529,-34.6609 -17.3306,-54.8799 z"
   style="stroke-width:0.577683" />&#10;  <polygon
   id="23"
   class="fil3"
   points="6370,2404 6370,2875 6299,2875 6299,2404 6123,2404 6123,2341 6546,2341 6546,2404 "
   transform="matrix(0.57768274,0,0,0.57768274,3681.2371,2.2950358)" />&#10;  <path
   id="24"
   class="fil3"
   d="m 7506.0745,1663.1328 v -308.4825 h 136.3331 c 27.7288,0 48.5254,2.8884 62.9674,8.0875 14.4422,5.7769 25.9958,15.5975 34.0833,29.4619 8.6652,13.8643 12.7091,29.4618 12.7091,46.7923 0,21.3742 -6.9323,39.8601 -20.7966,54.8797 -14.4422,15.0197 -36.3941,24.8403 -65.8559,28.8842 10.976,5.1991 19.0635,10.3983 24.8403,15.5974 11.5538,10.3983 23.1074,24.2627 33.5057,41.0154 l 53.7244,83.7641 h -51.4137 l -40.4377,-64.1228 c -12.1314,-18.4858 -21.9521,-32.928 -29.4618,-42.7486 -8.0877,-9.8205 -15.0198,-16.7528 -20.7966,-20.2188 -6.3546,-4.0439 -12.1314,-6.9323 -18.4859,-8.6654 -4.6215,-0.5776 -12.1314,-1.1553 -23.1073,-1.1553 h -46.7924 v 136.9109 z m 41.0154,-172.1495 h 87.2301 c 19.0635,0 33.5057,-2.3107 43.904,-5.7768 10.3983,-4.0437 18.4858,-10.3983 23.685,-18.4858 5.7768,-8.6652 8.0875,-17.9081 8.0875,-27.7287 0,-15.0198 -5.1991,-27.1511 -15.5974,-36.394 -10.3983,-9.243 -27.1511,-13.8644 -50.2584,-13.8644 h -97.0508 z"
   style="stroke-width:0.577683" />&#10;  <path
   id="25"
   class="fil3"
   d="m 7803.5811,1512.9352 c 0,-50.8359 13.8643,-91.2737 41.5932,-120.1579 27.7287,-28.8841 62.9674,-43.3262 106.2936,-43.3262 28.8841,0 54.3022,6.9322 77.4094,20.2189 22.5297,13.8644 40.4379,32.928 51.9915,57.1906 12.1314,24.2627 18.4859,51.9915 18.4859,82.6086 0,31.1947 -6.3545,58.9236 -19.0635,83.7639 -12.7091,24.8404 -30.6173,43.3263 -53.7245,56.0353 -23.1073,12.7089 -48.5254,19.0635 -75.0988,19.0635 -28.8842,0 -54.8799,-6.9322 -77.9871,-20.7966 -23.1074,-14.4421 -40.4379,-33.5056 -51.9915,-57.7683 -11.5536,-24.2626 -17.9082,-49.6807 -17.9082,-76.8318 z m 42.7485,0.5777 c 0,37.5493 9.8206,66.4335 29.4619,87.8077 20.2188,21.3744 45.0593,32.3504 75.6764,32.3504 30.6172,0 55.4575,-10.976 75.6765,-32.3504 19.6411,-21.9519 29.4618,-52.569 29.4618,-91.8514 0,-25.418 -4.0439,-47.3699 -12.7091,-65.8558 -8.0875,-18.4858 -20.7966,-32.9279 -36.9717,-43.3262 -16.1751,-10.3983 -34.6609,-15.5974 -54.8799,-15.5974 -28.8841,0 -53.7244,9.8206 -74.521,30.0395 -20.7966,19.6412 -31.1949,52.5691 -31.1949,98.7836 z"
   style="stroke-width:0.577683" />&#10;  <path
   id="26"
   class="fil3"
   d="m 8314.8303,1495.6048 c -15.5973,-5.1991 -27.7287,-13.8643 -35.2386,-24.2626 -7.5099,-10.976 -10.976,-23.685 -10.976,-38.7047 0,-22.5297 8.0876,-41.0155 23.685,-56.6129 16.1751,-15.0198 37.5494,-22.5297 64.7004,-22.5297 26.5734,0 48.5255,7.5099 64.7006,23.1073 16.7527,15.5975 24.8403,34.661 24.8403,57.1906 0,14.4421 -4.0437,27.1511 -11.5536,37.5494 -7.5099,10.3983 -18.4859,19.0635 -34.0833,24.2626 19.0635,6.3545 33.5056,16.1751 43.3261,30.0395 9.8207,13.8643 14.4422,30.0394 14.4422,49.1029 0,26.5734 -9.243,48.5255 -27.7289,66.4335 -18.4858,18.4859 -43.3261,27.1512 -73.3656,27.1512 -30.6172,0 -54.8799,-8.6653 -73.9434,-27.1512 -18.4858,-17.908 -27.7288,-40.4377 -27.7288,-67.0111 0,-20.2188 5.1991,-36.9717 15.0198,-50.8361 10.3983,-13.2867 24.8403,-22.5295 43.9038,-27.7287 z m -7.5098,-64.1227 c 0,14.4421 4.6214,26.5734 13.8644,35.8163 9.2428,9.2429 21.3742,13.8644 36.394,13.8644 15.0197,0 27.1511,-4.6215 36.3939,-13.8644 9.243,-9.2429 13.8645,-20.2189 13.8645,-33.5056 0,-13.8644 -5.1991,-25.9957 -14.4421,-35.2386 -9.8207,-9.2429 -21.3743,-14.4421 -35.8163,-14.4421 -15.0198,0 -26.5734,4.6215 -36.394,13.8644 -9.243,9.8206 -13.8644,20.7966 -13.8644,33.5056 z m -12.709,142.6875 c 0,10.9759 2.3107,21.3742 7.5099,31.1949 5.1991,10.3983 12.7089,17.9082 23.1072,23.685 9.8206,5.7768 20.7966,8.0875 32.3503,8.0875 18.4859,0 33.5055,-5.7768 45.0593,-17.3305 11.5536,-11.5536 17.3304,-26.5734 17.3304,-44.4815 0,-17.9082 -5.7768,-32.928 -17.9082,-45.0592 -12.1313,-12.1314 -27.1511,-17.9082 -45.6369,-17.9082 -17.9082,0 -32.9279,5.7768 -44.4816,17.9082 -11.5536,11.5536 -17.3304,25.9956 -17.3304,43.9038 z"
   style="stroke-width:0.577683" />&#10;  <polygon
   id="27"
   class="fil3"
   points="8706,2969 8706,3024 8561,3024 8561,2341 8706,2341 8706,2395 8627,2395 8627,2969 "
   transform="matrix(0.57768274,0,0,0.57768274,3681.2371,2.2950358)" />&#10;  <polygon
   id="28"
   class="fil3"
   points="16034,2341 16179,2341 16179,3024 16034,3024 16034,2969 16113,2969 16113,2395 16034,2395 "
   transform="matrix(0.57768274,0,0,0.57768274,3681.2371,2.2950358)" />&#10;  <path
   class="fil3"
   d="M 6023.7405,1216.0064 V 907.52388 h 116.6921 c 20.2188,0 36.3939,0.57768 46.7922,2.88842 15.5974,2.31072 28.3065,6.93219 38.1271,14.44206 10.3983,6.93219 18.4859,16.75281 24.8403,29.46183 6.3545,12.70902 9.243,26.5734 9.243,42.1708 0,25.99571 -8.0877,48.52531 -24.8404,66.43351 -16.7528,17.9082 -46.7924,27.1511 -90.6962,27.1511 h -79.1425 v 125.9348 z m 41.0156,-162.3288 h 79.7202 c 26.5734,0 45.0592,-4.6215 56.6128,-14.4421 10.9761,-9.8206 16.1753,-23.685 16.1753,-41.59311 0,-12.70903 -2.8884,-23.68499 -9.8207,-32.92792 -6.3546,-9.24292 -15.0198,-15.59743 -25.4181,-18.48585 -6.9321,-1.73305 -19.6411,-2.88841 -38.127,-2.88841 h -79.1425 z"
   id="path19"
   style="stroke-width:0.577683" />&#10;  <path
   id="path20"
   class="fil3"
   d="m 6298.7175,1065.8089 c 0,-51.4137 13.8645,-91.27382 41.5932,-120.15796 27.7289,-28.88413 62.9675,-43.32621 106.2936,-43.32621 28.8842,0 54.3023,6.93219 77.4096,20.21891 22.5296,13.86438 40.4378,32.35023 51.9914,57.19059 12.1314,24.26267 18.4858,51.41377 18.4858,82.60857 0,31.1949 -6.3544,58.9237 -19.0635,83.764 -12.709,24.8404 -30.6172,43.3262 -53.7244,56.0352 -23.1074,12.7091 -48.5255,19.0636 -75.0989,19.0636 -28.8841,0 -54.8797,-6.9322 -77.9871,-21.3743 -23.1073,-13.8644 -40.4377,-32.9279 -51.9915,-57.1906 -11.5536,-24.2626 -17.9082,-49.6807 -17.9082,-76.8318 z m 42.7487,0.5777 c 0,36.9717 9.8205,66.4335 29.4618,87.8078 20.2188,21.3742 45.0592,31.7725 75.6763,31.7725 30.6173,0 55.4576,-10.3983 75.6765,-32.3502 19.6412,-21.3743 29.4618,-51.9915 29.4618,-91.2739 0,-25.418 -4.0437,-47.37 -12.709,-65.85581 -8.0876,-18.48582 -20.7966,-33.50557 -36.9717,-43.32618 -16.1751,-10.39828 -34.661,-15.59743 -54.8798,-15.59743 -28.8841,0 -53.7246,9.8206 -74.5212,29.46183 -20.7966,20.21889 -31.1947,53.14679 -31.1947,99.36139 z"
   style="stroke-width:0.577683" />&#10;  <polygon
   id="polygon20"
   class="fil3"
   points="5464,2038 5464,2101 5130,2101 5130,1567 5201,1567 5201,2038 "
   transform="matrix(0.57768274,0,0,0.57768274,3681.2371,2.2950358)" />&#10;  <path
   id="path21"
   class="fil3"
   d="m 6852.7154,1216.0064 118.425,-308.48252 h 45.0592 l 125.3571,308.48252 h -46.2146 l -35.8163,-93.5846 h -129.9786 l -33.5057,93.5846 z m 88.963,-126.5125 h 105.1383 l -32.3502,-86.0747 c -9.8206,-25.99571 -16.7527,-47.36997 -21.9519,-64.12277 -4.6215,20.21889 -9.8206,39.86012 -17.3305,59.50136 z"
   style="stroke-width:0.577683" />&#10;  <polygon
   id="polygon21"
   class="fil3"
   points="6118,1567 6398,1986 6398,1567 6466,1567 6466,2101 6394,2101 6113,1682 6113,2101 6045,2101 6045,1567 "
   transform="matrix(0.57768274,0,0,0.57768274,3681.2371,2.2950358)" />&#10;  <path
   id="path22"
   class="fil3"
   d="M 7485.2779,1216.0064 V 907.52388 h 106.2936 c 24.2627,0 42.1709,1.15536 54.8799,4.04378 17.9082,4.04377 32.9279,11.55366 45.6369,22.52962 16.1751,13.2867 28.3065,31.19487 36.3941,52.56914 8.0875,21.37428 12.1312,45.63688 12.1312,73.36568 0,23.1073 -2.8884,43.9039 -8.0875,62.3897 -5.7768,17.9082 -12.7089,32.928 -21.3743,45.0593 -8.6652,11.5536 -17.908,20.7966 -27.7287,27.7287 -10.3983,6.9322 -22.5297,12.1314 -36.9717,15.5975 -14.4421,3.4661 -31.1949,5.1991 -49.6807,5.1991 z m 41.0154,-36.394 h 65.8559 c 20.2189,0 36.394,-1.733 47.9476,-5.7768 11.5538,-3.4661 20.7966,-8.6652 27.7289,-15.5974 9.2428,-9.8207 16.7527,-23.1074 22.5295,-39.2825 5.1992,-16.1751 8.0876,-36.394 8.0876,-59.5013 0,-32.3502 -5.199,-57.1905 -16.1751,-74.52104 -10.3983,-17.33047 -23.1072,-29.46181 -38.127,-35.23864 -10.976,-4.04378 -28.8842,-6.35451 -53.1468,-6.35451 h -64.7006 z"
   style="stroke-width:0.577683" />&#10; </g>&#10;</svg>
