<?xml version="1.0" encoding="UTF-8"?>
<!DOCTYPE svg PUBLIC "-//W3C//DTD SVG 1.1//EN" "http://www.w3.org/Graphics/SVG/1.1/DTD/svg11.dtd">
<!-- Creator: CorelDRAW X8 -->
<svg xmlns="http://www.w3.org/2000/svg" xml:space="preserve" width="177.864mm" height="34.3506mm" version="1.1" style="shape-rendering:geometricPrecision; text-rendering:geometricPrecision; image-rendering:optimizeQuality; fill-rule:evenodd; clip-rule:evenodd"
viewBox="0 0 16461 3179"
 xmlns:xlink="http://www.w3.org/1999/xlink">
 <defs>
  <style type="text/css">
   <![CDATA[
    .fil0 {fill:#FEFEFE}
    .fil2 {fill:#E32B4B}
    .fil1 {fill:#E32D4C}
    .fil3 {fill:#2B2A29;fill-rule:nonzero}
   ]]>
  </style>
 </defs>
 <g id="Warstwa_x0020_1">
  <metadata id="CorelCorpID_0Corel-Layer"/>
  <g id="_2293442786432">
   <rect class="fil0" width="3356" height="3179"/>
   <g>
    <path class="fil1" d="M0 3179l618 0 6 -2039 2555 2039 177 0 0 -1060c-857,-453 -1840,-879 -1943,-2119l-1413 0 0 3179z"/>
    <polygon class="fil1" points="1148,3179 2296,3179 1148,2296 "/>
   </g>
   <path class="fil2" d="M3356 0l-1237 0c15,671 683,1284 1237,1413l0 -1413z"/>
  </g>
  <path class="fil3" d="M3896 1580l0 -769 105 0 403 603 0 -603 98 0 0 769 -105 0 -403 -604 0 604 -98 0zm4716 -247l96 -9c4,39 15,70 31,95 17,25 43,45 78,60 35,16 74,23 118,23 39,0 73,-5 102,-17 30,-12 52,-28 67,-48 14,-20 21,-42 21,-66 0,-24 -7,-45 -21,-63 -13,-18 -37,-33 -69,-45 -20,-8 -66,-20 -137,-37 -70,-17 -120,-33 -148,-48 -37,-20 -64,-44 -82,-72 -18,-28 -27,-61 -27,-96 0,-39 11,-75 33,-109 22,-34 54,-59 97,-77 42,-17 89,-26 141,-26 57,0 107,9 150,28 44,18 77,45 101,81 23,35 36,76 38,121l-98 7c-5,-48 -23,-85 -53,-110 -31,-24 -75,-37 -134,-37 -62,0 -107,11 -135,34 -28,23 -42,50 -42,82 0,27 10,50 30,68 20,18 71,36 153,55 83,18 140,35 170,49 45,20 78,46 99,78 22,31 32,68 32,109 0,41 -12,79 -35,115 -23,36 -57,64 -101,84 -44,20 -93,30 -148,30 -69,0 -127,-10 -174,-30 -47,-20 -84,-51 -110,-91 -27,-41 -41,-87 -43,-138zm4840 -23l102 26c-21,83 -59,147 -115,191 -55,43 -123,65 -203,65 -82,0 -150,-16 -201,-50 -52,-34 -92,-83 -119,-147 -27,-64 -40,-132 -40,-205 0,-80 15,-150 45,-210 31,-59 75,-105 131,-136 56,-31 118,-46 186,-46 77,0 141,20 194,59 52,39 89,94 109,165l-100 23c-17,-56 -43,-96 -77,-122 -34,-25 -76,-38 -128,-38 -59,0 -108,14 -148,42 -39,29 -67,67 -83,114 -16,48 -24,97 -24,148 0,65 9,122 28,171 19,49 49,85 89,109 40,24 83,36 130,36 57,0 105,-16 144,-49 40,-33 66,-81 80,-146zm-8863 270l236 -615 89 0 250 615 -92 0 -71 -187 -259 0 -67 187 -86 0zm177 -253l209 0 -64 -170c-19,-52 -34,-95 -44,-129 -8,40 -20,80 -34,119l-67 180zm619 253l0 -543 -202 0 0 -72 487 0 0 72 -203 0 0 543 -82 0zm382 0l0 -615 82 0 0 615 -82 0zm200 -300c0,-102 28,-182 83,-239 54,-58 125,-87 212,-87 57,0 108,14 153,41 46,27 81,65 105,113 23,49 36,104 36,165 0,62 -13,118 -38,167 -25,50 -61,87 -107,112 -46,25 -96,38 -150,38 -58,0 -109,-14 -155,-42 -45,-28 -80,-66 -104,-114 -23,-49 -35,-100 -35,-154zm84 2c0,74 20,132 60,174 40,43 90,64 150,64 61,0 111,-21 151,-64 40,-43 59,-104 59,-183 0,-50 -8,-94 -25,-131 -17,-37 -42,-66 -74,-86 -33,-21 -69,-31 -110,-31 -57,0 -107,20 -148,59 -42,40 -63,105 -63,198zm608 298l0 -615 84 0 322 482 0 -482 79 0 0 615 -84 0 -323 -483 0 483 -78 0zm554 0l236 -615 89 0 251 615 -93 0 -71 -187 -259 0 -67 187 -86 0zm177 -253l209 0 -64 -170c-19,-52 -34,-95 -44,-129 -8,40 -20,80 -34,119l-67 180zm460 253l0 -615 81 0 0 542 303 0 0 73 -384 0zm1933 -216l82 20c-17,67 -48,118 -92,153 -44,35 -99,53 -163,53 -66,0 -120,-14 -161,-41 -42,-27 -73,-66 -95,-117 -21,-51 -32,-106 -32,-164 0,-64 12,-120 37,-168 24,-48 59,-84 104,-109 45,-24 95,-37 149,-37 61,0 113,16 155,47 42,32 71,76 87,132l-80 19c-14,-45 -34,-77 -62,-97 -27,-21 -61,-31 -102,-31 -47,0 -86,11 -118,34 -32,22 -54,53 -67,91 -13,38 -19,78 -19,118 0,52 8,98 23,137 15,39 39,68 71,87 32,20 66,29 104,29 45,0 84,-13 115,-39 32,-26 53,-65 64,-117zm196 216l0 -615 82 0 0 615 -82 0zm227 0l0 -615 444 0 0 72 -363 0 0 189 339 0 0 72 -339 0 0 209 377 0 0 73 -458 0zm570 0l0 -615 83 0 323 482 0 -482 78 0 0 615 -83 0 -323 -483 0 483 -78 0zm1059 -216l81 20c-17,67 -47,118 -91,153 -45,35 -99,53 -163,53 -66,0 -120,-14 -161,-41 -42,-27 -73,-66 -95,-117 -21,-51 -32,-106 -32,-164 0,-64 12,-120 36,-168 25,-48 60,-84 105,-109 45,-24 94,-37 149,-37 61,0 113,16 155,47 41,32 71,76 87,132l-80 19c-14,-45 -35,-77 -62,-97 -27,-21 -61,-31 -102,-31 -47,0 -87,11 -118,34 -32,22 -54,53 -67,91 -13,38 -19,78 -19,118 0,52 7,98 23,137 15,39 38,68 70,87 33,20 67,29 105,29 45,0 83,-13 115,-39 31,-26 53,-65 64,-117zm184 216l0 -615 444 0 0 72 -363 0 0 189 340 0 0 72 -340 0 0 209 377 0 0 73 -458 0zm1646 0l0 -615 444 0 0 72 -362 0 0 189 339 0 0 72 -339 0 0 209 377 0 0 73 -459 0zm570 0l0 -615 84 0 323 482 0 -482 78 0 0 615 -84 0 -323 -483 0 483 -78 0zm778 0l0 -543 -203 0 0 -72 487 0 0 72 -203 0 0 543 -81 0zm370 0l0 -615 272 0c55,0 97,5 125,16 29,11 51,31 68,59 17,28 26,58 26,92 0,44 -14,81 -42,111 -29,30 -72,48 -131,57 21,10 38,20 49,30 24,22 46,49 67,82l107 168 -102 0 -81 -128c-24,-37 -44,-66 -59,-85 -15,-20 -29,-33 -41,-41 -12,-8 -25,-14 -37,-17 -10,-2 -25,-3 -46,-3l-94 0 0 274 -81 0zm81 -344l175 0c37,0 66,-4 87,-12 21,-7 37,-19 47,-36 11,-17 17,-36 17,-56 0,-29 -11,-53 -32,-71 -21,-19 -54,-29 -99,-29l-195 0 0 204zm539 344l0 -615 444 0 0 72 -363 0 0 189 340 0 0 72 -340 0 0 209 377 0 0 73 -458 0zm-12140 794l0 -449 169 0c30,0 53,2 68,5 22,3 41,10 56,21 15,10 27,24 36,43 9,18 13,39 13,61 0,38 -12,70 -36,96 -24,27 -68,40 -132,40l-115 0 0 183 -59 0zm59 -236l116 0c39,0 66,-7 82,-21 16,-14 24,-34 24,-60 0,-19 -5,-35 -14,-49 -10,-13 -22,-22 -38,-26 -10,-3 -28,-4 -55,-4l-115 0 0 160zm340 17c0,-74 20,-132 60,-174 40,-42 92,-63 155,-63 41,0 79,10 112,30 33,19 58,47 76,82 17,35 26,76 26,120 0,46 -9,86 -28,122 -18,36 -44,63 -77,81 -34,19 -70,28 -109,28 -43,0 -80,-10 -114,-30 -33,-21 -58,-49 -75,-84 -17,-35 -26,-72 -26,-112zm62 2c0,53 14,96 43,127 29,31 66,46 109,46 45,0 82,-15 111,-47 28,-31 43,-75 43,-133 0,-36 -6,-68 -19,-95 -12,-27 -30,-48 -54,-63 -24,-15 -50,-23 -80,-23 -42,0 -78,15 -108,43 -30,29 -45,77 -45,145zm441 217l0 -449 59 0 0 396 221 0 0 53 -280 0zm301 0l172 -449 65 0 183 449 -68 0 -52 -136 -188 0 -49 136 -63 0zm129 -184l153 0 -47 -125c-14,-37 -25,-69 -32,-93 -6,29 -14,58 -25,86l-49 132zm337 184l0 -449 61 0 235 352 0 -352 57 0 0 449 -61 0 -235 -352 0 352 -57 0zm453 0l0 -449 154 0c35,0 62,3 80,7 26,6 48,17 66,32 23,20 41,45 53,77 12,31 17,66 17,106 0,34 -4,64 -11,91 -8,26 -19,48 -31,65 -13,17 -26,31 -41,40 -15,10 -32,18 -53,23 -21,5 -45,8 -72,8l-162 0zm59 -53l96 0c29,0 53,-3 69,-8 17,-6 31,-13 41,-23 14,-15 24,-34 32,-57 8,-24 12,-53 12,-87 0,-47 -8,-83 -23,-108 -15,-25 -34,-42 -56,-51 -16,-6 -41,-9 -77,-9l-94 0 0 343z"/>
 </g>
</svg>
